<mxfile host="app.diagrams.net" modified="2021-09-08T22:51:57.822Z" agent="5.0 (Macintosh; Intel Mac OS X 10_15_7) AppleWebKit/537.36 (KHTML, like Gecko) Chrome/92.0.4515.159 Safari/537.36" etag="8PLB580myL8ypmssuLAZ" version="15.0.4" type="github">
  <diagram id="J34kAYcYzhJ5-mrnefML" name="Page-1">
    <mxGraphModel dx="2260" dy="3438" grid="0" gridSize="10" guides="1" tooltips="1" connect="1" arrows="1" fold="1" page="1" pageScale="1" pageWidth="1920" pageHeight="1200" math="0" shadow="0">
      <root>
        <mxCell id="0" />
        <mxCell id="1" parent="0" />
        <mxCell id="9vK3srHALebkL6iaKBqt-2" value="" style="shape=image;verticalLabelPosition=bottom;labelBackgroundColor=#ffffff;verticalAlign=top;aspect=fixed;imageAspect=0;image=data:image/png,iVBORw0KGgoAAAANSUhEUgAAAzEAAAM4CAIAAABz+/sfAAAgAElEQVR4Ae3dCZLcOLJFUS3wLyP3v4X6pkYVBIFDMEgQ4ylrU4MgxusO9ydEZOrXj/8QQAABBBBAAAEEWhP41XoB5kcAAQQQQAABBBD4ock4AQIIIIAAAggg0J4ATdbeBlaAAAIIIIAAAgjQZHwAAQQQQAABBBBoT4Ama28DK0AAAQQQQAABBGgyPoAAAggggAACCLQnQJO1t4EVIIAAAggggAACNBkfQAABBBBAAAEE2hOgydrbwAoQQAABBBBAAAGajA8ggAACCCCAAALtCdBk7W1gBQggsCXwz7X/0o7XevyTdlFGAAEE+iFAk/VjCytBYFoCF9VSaPbz8xPb//rmv9jrn3/+2e0XG6RTxMqTwrSGsTEEEOiJAE3WkzWsBYFhCZwLmiORtKucblema7g9yLbjP//8vlpLB8/KwxrNwhFAoC8CNFlf9rAaBHomELTIrkDZSpn6NalUqjl7Om+GqGdrWhsCCPRGgCbrzSLWg0B7AluREWpqCp0bc6XLvtH9jS7pktJyextbAQII9EeAJuvPJlaEQEUCqVBIy28IlLfHHGX96TrTckWzmwoBBHokQJP1aBVrQuA9AqkICOW3pVK18dOtVZu01ETp4kP5PR8wMgII9EmAJuvTLlaFQDEC22RfSkb0Nk66097W9u160r2QaMUOg4EQ6JsATda3fawOgS8JbHP5t2pg3Pbp3sfdxdHK091RaV8eC80RGIMATTaGnawSgRMCWbY+SurT16ccltps+G0dJx7iFQIIDEGAJhvCTBaJQE5gKf1xUWCtzCTde+4rnhFAYBACNNkghrLM5QmkSbfOr2C9qIT6aZYi2l1VbLD7dprKuM1QWP7oAIDAMARosmFMZaELEog5lQi7IpiiFskax/obhWyoER/Tf4dgwUNkywgMRIAmG8hYlroEgVQ3jKgAGq45ojtaw8cGRx2nqY8EfAVtiWhik6MRoMlGs5j1TkogTZbTKIDKG4kMK8874nSRFXE2aUSxrSEJ0GRDms2i5yCQ5sUR83pva448e1tY5+uJ3OizOQKLXYxLgCYb13ZWPjCBkAU7T9XDLS9qi+FW3s+CA8OBj5alIzAyAZpsZOtZ+zgEolzwbf339EeE/N4U64wcYbo8GyfMWOnwBGiy4U1oAz0TSBPbOum81U4j7VYLmHLeSJU46znUWNscBGiyOexoF30RiGlsyiTd7aZgf9s0kXBf581qEJiFAE02iyXtozWBmK58Ovm2MjgaP5rgqIH6UgQiapdnrQOP+aciQJNNZU6bqU8gTU6lEp5x7hGItrjXXa8bBCJz4qx+8DHjfARosvlsakeVCMRsdCOT6fIGARZ5g+rFMSP8SsfPNAjMSIAmm9Gq9vQmgZh7LuYqzW4QuPf570XT3Bv8xi7W7BKt8OYpNDYCcxKgyea0q10VJxAzzZqJdohds1FXZormKH4YDYjArARoslkta19lCMS84nKlq3y/u5horN23KpsQiEbxhbMyIckoUxOgyaY2r809IBBzSZNMZtIbBJjsBrRqXaJ1HhxKXRGYnABNNrmBbe9bAjFzVMtVJipFgO1KkXx1nGimb8+m9ghMT4Amm97ENniVQEgVX2WjmF2+6qXxSwSY4yWwLw0b7HX1fGqHwAIEaLIFjGyLpwRuJPLYJS28lLcMe51ANMf1Llo2JxCtdnpMvURgCQI02RJmtsldAiEZXM9JMXnsFq6Po+VLBKJdXhrfsK8SCObbPaoqEViEAE22iKFt8w+BG5k7/NBl6BjSUhwkFl5NVwa/QoAtrlDqvE004p8Tq4TAMgRosmVMbaM/PyHcX89J6e+/yPrGzJEWro+s5RsEoi3eGNyYlQkEa4pbCCxFgCZbytyLbvZGqt6qsbQmJKc4bCxUTlqm+/XrV7RLtEKs2eUTmu2+UtkhgWjWRYOXbS9GgCZbzOCLbTcG9IvJJkvnsftuIs/eZn0vzqhZKQKpObIx01e7pszae+yNQLTgYgHMdpcjQJMtZ/JFNvxV6s3kVEwA20Kaq7Zvs3HSxspvE0jNsZ0rfXvFTLH9dig1DQkEuywSxGxzQQI02YJGn3zLIWpfTBsx9V4sZMNue2UNPFYjkNrifNIrmux8BG/bEgi2njyQ2d6SBGiyJc0+46ZjSr6YLY7ax/rdQjb4lTZZF48vEUht8dIUhu2KQLT4jPHMnhYlQJMtaviZth1D88WEEdvHQtYx1u8Wzhtnbz1WI5Aaq9qkJmpOINp9pphmL8sSoMmWNf0MG4/h+GJiiO2zQtY9e5s9njfO3nqsRiA1U7VJTdQJgWj9GeKaPSxMgCZb2Pgjbz2E4K/yQYza20I2zrZBWhN+/0JaE8rZIB4rE0gtUnlq0/VDILjByLHN2pcmQJMtbf4RN39PAKUJe7ecJZXdNruVWUePrQik1mm1BvN2QiA4w4jxzZoXJ0CTLe4AI20/xNl7QT9N2LvlbNjzNn5wL8PVw2Nqsh7WYw3NCQSXGCnGWevyBGiy5V1gBAAhtj4J8WnCPiqn46dtsvr0UbkfAkcm62eFVtKEQHCMEeKcNSLwQ5Nxgq4JhHhaJJSnOXu3nM6SzetiLIXTZzm1aZ8rtKqGBIJ7dB3sLA6BH5qME/RKIFNFz6N5mrN3y2GKbF5q7Dn5OiOkNq0zo1mGIxCcpNeYZ10I0GR8oD8CmSoqFffTnH1eTv9l61KzG+dbAt+q4dSmJ3N9O+zJUNO8StGl5Wk2mG0k7LG/yGdFCNBkfKAnAiFWZgG04GOab47KBaczVE0CqUFrzjv6XCm3o/Loe9xdf9hsT/HPWhCgyfhAHwRiMtiNnqUq4yy7hVKzGKcJgdSmTRYw6KQpt5PylJfHcb99REGrQIAm4wMdEAiRsU5Ki1G45qR1trb4LKllF0fx1fZTbrvlMFr6mW9a/mquPhuHXXcQCC0BAZqMDzQlEKJhn5F68VUNl3dTPdGz7boCm0LbLackt6e1q72kS71RDrtrGg5NjgBNxgcaEdjG9xthVBcEIoFUUsRKhXMCKbTdctY9bRNfhcr4OHQh7KVRUDQtAjQZH6hOYKYIPnT6mWzxu3Jhsj0W304KbbeczbhtkzaY5tosbLN6aDQhAjQZH6hIIAb0NI73UP42l8SNfNuxh83OugZG+dayKbHdcjbgbpujyqzv+WOH5yjuq2KANBUCNBkfqEUgxLjz0Nz52xim00Lna15neYxyw9YptG05G3DbIK0JjdOaUM4GGesxbKFWjDQPAjQZH3ifwDSheZtvJtjaWDnyZLWpdU6aeZURSLll5ests4uubJzsbTZs/49hO+9HSjMgQJPxgTcJhFjWf8w9WWFIJ+lGJss3J3sf61Vql+3Kz99u2y9Vk8KJ5YxArN8tfGycNRjxMWz8zXhpbARoMj7wGoEQwkYMvtmvx8w2ciUnDbrroZed2iXdSFr/bTkdZ/pyBifbb/Y2e/zYOGsw6GPY9Wsh08AI0GR84AUCIXKNG3bjync3kmWj3TZxBIVqBFK7HE3KWEdkYn2K8Xo5dg9/n9l2TBuMXg67eyFwGhIBmowPFCUQotWIMTf7ykuWVLIdZW+zvlljj3UIpEapM+Pcs2ReneLNyhmH7G02TtZ43MewzaLh02AI0GR8oByBEKSGC7Jpztimk91N7TYbbuOTLTg1ymRba7ud9IDsXoNly0sNsXt8svbjPobdlYugRkKAJuMDJQgMGnm3yeOkJssc25ZZA4+VCUSLVJ53nemOxFlKIFohLaQN5iuHnZaIo8ZAgCbjA88IhHg0VpxNs0WaZrL67DHbY/Y2PGZtPNYkEC1Sc9I159qemsghWiEW4qu5C2G/z6Kp3gjQZHzgAYF//vnn5+dnrFAbU0WaV8IW0le75WynWZvsrcfKBKI5Ks/bfLq48azw9sLCdPHTzDBdtobtKXt7VQ3H//n5CSHxQUzVdXUCv1YHYP+3CMRw3DACfjv1NltsE8Zum1iZzRjrt+NkLdPHrxqnHZXPCURznDeb723c+Enhxq6vO+rJvNcHubHCPrsEGrfCqk4IuCfjA98TCEGnz4C4u6qTnJG1P2l59CobwWMrAtFArRbQZN6466NCeo/1tkLarqEJk+aTBg7fR1Y9EKDJ+MA3BEKsaR7yvl3ANlWkNdlo6auTctbLY3MC0VjNV1JzAXHXR4WwmPA2LqyOOIvTrVkIzL+Jr9oiQJPxgcsEsrA+Spw9ylWxPttIrE8Lsc3bySxOpPAtgWivbzsO3T7u+qiQ7i60Oa9J3yo/JBCAXw6xGiJAk/GBCwS2ofxhqKrZ/ShXxfpsMbE+k1/ZY9bLY0ECqQmulIMLX2mZtim44IZDpTvaLadryxqkr8JHnFmNxyIEAvYLgVYTBGgyPvCJQAgoRWJTk0GyPLT7mC4s2y8plsJ5Ut4lf1T5ySufvj+ad7f+ya5f7bu72rQymz19lZXj185CfdbR40MCgepTr9V/AQJ+7nIBI9/d4jTROUs/28cYcFMFlpZjA4UTAluwWc1dT2zZL9vC9vEEyNuvtovJarIFZG8vPmaDeLxNIABv6c3m7p4ATda9iRotMISP29Gnq45Xck/62Q019tF8R0gbeWuzaY84fARYpMHR7LE+nSVW7hbSltmdmeOQwXnyGOA381cTd0+AJuveRNUXGKLGk7jTYd/dPLSt7HDlzZe0pRRqqjvmMBMeEXvDlEdzbYXUScsrjd9Y/LJjOkHDHObqC6XJqiPve8IQLOaLlecJaZuT5iNwfUdbVn377Bir21K9bpHzltuRQ03W66jZxcbZaB4fEgjYx/Bdq6xIgCarCLv7qdpKk1dnP0pIHwPrq6v6OHuFBlsy3fvpJAvckn9o7mzAbLTsbfr4sWXW4N5jn0ep7ar8W0yTHOZy26DJyrEceaQQoO+FWr2GI5DmY1mhk4ObGeW2U2XjXHnM5tp2yRp4LEgg0O7ECS2jOQGarLkJ2i8gBIWCUcZQvRHIsmx7n7OCTwQyk93wqOwGKBswfcwGT1+FctbAY1kCAfInj/B+CQI02RJmPtqkgFs2tnY1WpZZj3xAff8EMlN+62aZODv/scpsLiHiW9q32wfU/XujFb5KgCZ7FW/Xg4u2t6Nntx3ThNq181ncAwKplb9yxe2RP6q5PcVX69E4IxCwP3ANXYcnQJMNb8J7G9j+1TmLDh5HIZCmz3vOoNe4BFLrf+WxMQLEEUL3+BgLXw2r8XMCvuI57nl8vnKa7DnDwUYIofZ54Bh9hJiTRtxIzJehMJgLWu4LBDKXuO7V4SBk3dPH60MVaTn0wSxCIH64/IKbGLJ3AjRZ7xYqvj4hr1TcrD9OmimLO4YBpyGQ+sl1L017xfL17lqWJeC2bJrz+NVGaLKvcI3duJUaazVv2RDZcLSYIMf2P6tvQSA6z1cOHHp91WXuxq2CGGXW4tC0nJMma0m/2twi7HAJI6ZSQbnaMZl7otSjhjsOKy84GG5u57S7SIAmiyimLRBkAwX0NHFO65E21pRA6mMDHY2Vl0qWNT0xVSenyarirj9Zqyv3lQPojb3HNFnfQ8y4MoHoeDecVpfKBFyZr3BUabJprRyibeWo0cN0A8nQmBGn9UIbG4RAdMUejvCVNQx0zK9s52KbYKZBfMoy7xCgye5Q67/PsoLsYmhr2yzmv/4dyQpXIxCds+0ZMfsRAbJs7iNJk01oX4LsKJw1r48Jb0K3s6WJCERHbX5kLGBLgCyb6KjlW6HJciKjP695pb8NW13VxAw3undZ/2oEout2daAsJvxe2dW8cYX90mTzWDlEz5rRiv47px3z2TxOZierEojOfO7zi7+tHBKDUVZ1yTn3TZPNY9fK4WDx4Hu+/ZjA5nEvO0Hg5yc69rn/e1uNgB/GnOxc0mQzGDQEympRwERHBGLGmsGr7AGBYwLR1Y/OgvpqBIItjm3lzUgEaLKRrLW7Vtdj1WLfyUQxRe3aSCUCUxKIbn9yNLyqQ8CF2RxHjCYb244EWZ14dzRLzElju5HVI/CMQDwIRydFfQUCZNkzL+6iN03WhRluLCIEwQrn3BS7BGISumE7XRCYkkA8FLtHRmUFAsEEU3rXIpuiyYY0NEFWIbodTSHqDXlmLLoiAQHqKHpUqBegKnp6+alosvJM3x5RvKsQ17ZTBOw+HXjbvY0/DYF4ZLanSc2rBMiycQ8RTTaY7QiyV2PZ7uAxtQzmK5aLQAcE4vHZPVwqXyJAlnXg+3eWQJPdodaqj2/0vxS/joaN6aSVxc2LwBwE4lE6Omvq3yDgXn+440OTDWMyguyNmHU0pr9lDnMwLHQoAuFkHZ079cUJkGVDnY8fmmwAe60QxfpRnNTYAEfCEgcn0FVM6yf4FBdkYUAxbaDjQpP1bqzwt5yXzqphUwIiV++HwfrmItCVMktDwXzln//9u1hzuc+cu6HJurarmFUnOFJjXR8Di5uagCgnyk3t4N9tjib7jlfN1kJVhVBFjdV0aXMhcERAuBPujnxjqXqarFNzi1BvRyhqrFPXt6yFCYh74t7C7v976zRZjw4w/XdO34475+NTYz06vTUh8B8Byuw8gj1/64cx//O17v6fJuvOJATZ84hzNAI11p27WxACBwQos6M4VqSeLDvwu8bVNFljA2TTE2RFws12EGos8zSPCAxBgDLbRrNSNWRZh0eAJuvIKLMKsrb7osY6cnFLQeAWgebKrG0QKyXCtuOQZbf88cVONNmLcL8aetYzv40CNWsIsq+cUGMEuiXQXJbVDFw15yLLuvJ5mqy9OcSaNwIQNdbes60AgdIEREvRsrRP9TUeTdbYHkJM8RBDjTX2adMj8DIBYVPYfNnFmg1PkzVDH/+xi+Kna9kBqbGW3mxuBOoSoMzKhvqYkuqa0Wx/EaDJ/sJR80FAKRtQCLKa3msuBHogIIqKoj34YcE10GQFYX4xlFBSMJRQY194nqYITEdAOBVOp3FqmqyBKUWQUhGEGmvgvqZEoEsC4qq42qVjfrcomuw7Xs9bTxY4Gv4KD4LsuTcaAYGZCLSNrg2DYSk1FscRXVudC5qsKvm2ISOet9EL4kVVrzUZAkMREGaLRHhhtonX02T1sIsUzyOFMFHPX82EwMgExFvxdkT/pckqWU2AECAquZppEEDgfwREXVF3uKNAk9UwmdDwMDQEgDVMZQ4EEJiLgPAr/A7k0TTZ68YSEUSE153MBAggcExAEBaEj72jrzc02bv2EAuexIJA710LGR0BBNYgIBqLxv17Ok32oo2EACHgRfcyNAIIfElATBaTv3SZ2s1psreIO/y3D39A95ZhjIsAAmsTEJwF525PAE32lmnm+P2B9Xfxzz//vGUS4yKAAAL/EWgS3G6LoX46CtH/edAr/0+TvYK1/mnv58TeXonrsVd80aAIIHBAwIXZvXBNlh04VIFqmqwAxGwIguzGOXfIMy/yiAACdQiI2CJ2HU+7MgtNdoXSF20c72+Pt+uxL9xLUwQQeIGAC7Nv4/avX7/8RfoFT/yhyUpSJci+PdgEWUn/MxYCCNwlQJZ9G73Jsru+dtaPJjuj89U7guyrI02NfeVdGiOAQAUClNlXYZwsK+6TNFkZpATZVyeZICvjdkZBAIHSBMiyr4I5WVbWAWmyAjyd4a/OMEFWwOcMgQACrxEQ0oX015zrw8A02QdAH187vddPLzX20Z00QACBTgiI7WJ7fVekyR4xd2gd2kcOpDMCCHRMQIQX4Su7J032CLivkV08sX5q+pGf6YwAAu0IiPPifDXvo8luovb3p+unlCC76WS6IYBAHwQEfAG/jifSZDc5+5vTlSMaAtlNxLohgAAC3RAgy67EfD+G+dBhabI7AAmyK4eTILvjW/oggECvBMiyK5GfLHvivzTZ1/ReFWSvDn7xOBVp5vPKrx1LBwQQGIHATFG6SLTfHUQKuOfLNNl33KY5jbunqEil67HvXEprBBAYjYALsyvJgiy74dc02RfQnMOP55Ag+8KfNEUAgWEJSAfSwRvOS5NdpeoEXjmBV2lqhwACCIxPwCcn53nB39K/9XGa7CoxZ+/j2buKUjsEEEBgFgJSg9RQ0JdpskswnbqTU+dvQpd8SCMEEJiUgE9RThKEH8P8yutpss+4CLKT80aQfXYgLRBAYHYCZNlJmiDLrrs/TfaBFUF2ctIIsg/e4zUCCCxDgCw7SRZk2cVzQJOdgSLITs6Yn3M+cx3vEEBgSQKyhqzxxPFpskN6/tLjaB06hxcIIIDAAQGy7Ch3+GjlwGX+VNNkf1hkJedq91w5VJmfeEQAAQQyAv5Kv5s+fIKZ+cn2kSbbMvldQ5DtniiCbN9d1CKAAAJ/EyDLdpMIWfa3m+RPNFlOhCA7OUi+Q7bjLqoQQACBPQJk2Uk22QOm7ocmy53AKdo9RW7IckfxjAACCHwiIKFIKJ985K/3NNlfOJyfo/PzFyYPCCCAAAKXCfgyzDaz+Hv+rvvQZH9hcXJ2T85fjDwggAACCHxJQHKRXK64DE32h5Iz48z88QYlBBBAoCgBKUaK+ehQNNm/iJwWp+XjadEAAQQQeEJAopFozv2HJvvNx9fInJPzc+ItAgggUIQAWZalG18sS/2KJiPIsgPy+9HvvEgPiTICCCBQkABZlmUdsix6F03m18P+dTqcjXg2FBBAAIGXCPhw5q/E4yLgPz9bXZP5+0p6MAiy/86F/0cAAQTeJbCaLAv7Pcm5Pp/5+Vn7d8audiRS+bUtE2TvBmCjI4AAAn8TWCQHRTWWFuSgv33h36d178kWOQxbv9+tCTR2XUQlAggggMBLBKbPRKkOy8rbZCQTLa3Jtg6xZo1j8FK0NSwCCCDwkUCIwFNmn0yEZY+7W178E8xFNdnJR9q7XjJxJUH2MWJqgAACCLxKYEpZlimw3cfd3LqyLFtRk43l/a/Kx4Di1VhjcAQQQACBjwTeTkyvppIjabWrw7LKbd+VE9OimmzrBD3X/P5ZjBf+W9nvP8ZHDRBAAIHKBEJMfiHY/070bwx7PmamvU4et+Mse1W2nCar/3eFrbf1UEOQVY62pkMAAQQ+EnhPltXPOycibPtqu7w1ZdlamowgC35PkH2MjBoggAACTQgsJcvCPxtzlJoXlGULabKZHH37V4rrNQRZkzhrUgQQQOAigWmyVdjI7p9pzjrRZKvJsrU0WeoEa5YJsosxUTMEEECgIYG5ZVmWf4Mm21VmNFlDJ3xx6l1jZ24x/SNB9qKHGRoBBBAoSmAOWRZ2kf65m2pPcvRSsmyJe7I5PHvXj69XBghFI4bBEEAAAQReJDBH8oqC7ChhnW9zqeS1iiY7coV16pf6q8aLMdLQCCCAQEUCJxdIo+SvK5Irttnd7zr5a35Ntmvgh678xpgPl3TefR2HrhgqTYUAAgjUIDBixslSUpRcaX2ozP4MP4mZNgvlRbLY5JpsOFfeOuLzmkVcuUZoNAcCCCDQgsAcuSzdRSbF4uNJylshl9FkJw5Q71XqqWVnXcGJW0RIcyKAAAJVCbyaJsrmnZPRovY6KRx1XyGdzazJ3vPgI4/prX4FD64aFE2GAAIItCMwelIL6z9RY/HVsp9gTqvJgml7E0k110OQtYucZkYAAQReITC6LAtJMGqvo8JRrgztXyHbx6Aza7Ijo65QT5D1cb6sAgEEEChMYBFZdrTNubPbnJrsyJYrqLH4z4cVDgOGQwABBBDogMDonwKFBH10QxbTd2ywTdwTy7IJNdno/rr1v69qwvY7iBuWgAACCCDwCoE50lxUXWkhzXdH2wz1r5BtPeicmiw16lLliT219UkxPwIIINARgSO9MlbKC7s42cvRq1mvymbTZPHacyy/LLXaWd20o0BoKQgggEAfBIbOd9knmEdJMIq2bYMp891UmuxIUG9tOWXNlA7aR+izCgQQQKBHAnPIst2MHNVYLGTNQn2PVnmwptk0WWazdR4JsgenQFcEEEBgVAJDy7KT30MWpVgsbBP6fIlvHk1W3C+LD7j1p1I18/nlqNHRuhFAAIHqBMbKVlniC5IrrYwiLCukbWJ5svQ3iSYLVolGWqoQvLZ6EDAhAggggEAXBLayZqAkmC4+E2HZ4+6mfn5+ZpJl82iyXWtNXxlctouoYBEIIIAAAo0IpMpmuMSXaa/dx5NN0WSNnO5g2oGubU+86sYrguzAI1QjgAACyxGYWJZ9zI/TyLLh78mG9sKPfnbeYBovXC522jACCCDwAoFxbyh278aub2eaG4oZNNm5cJn1LUH2QkAzJAIIIDA2ges6prfkuJVlX61wjpw4tiZb9pJsDucbO/JZPQIIINAlgQlk2VdqLDSe46pseE12w3Kjd5nD87oMZRaFAAIIDE/AbcW4JhxYk437V4EnopAgG/ewWTkCCCBQhwBZVodz8VlG1WQcrrgrGBABBBBAYBoCri1GNOXAmuzJbdOgfX2NbMQzZs0IIIBAEwLLyrImtItMOqQm42dFbG8QBBBAAIG5CUiXY9mXJhvjyszXyMY6V1aLAAII9EBgze/5jPuZ0niarLjqLz7gGypvXA/rISpZAwIIILAsgVFyXNnUOWjSHEyTkfzLhhUbRwABBBC4R2AIWVZck40oy8bTZGXN1v9oI3rVvaihFwIIIIDASwTWlGUvwXxv2JE02YKXZL5G9p7rGxkBBBBYh4AEOoStB9Nk/V9rlV2hS7IhTpFFIoAAAv0TcFXWv42G0WScqX9nskIEEEAAgZ4J3MukQ9+xjXW1QZOVvdgqNtpYbtRzDLI2BBBAAIFI4CtZFtRY+mexJFdroLGS6Ria7CsfqmXoF+cJByAeIQUEEEAAAQSKELh+6ZVKsbT8YvJ7Z+iBZBlN9o4LPBt1IAcqEiMMggACCCBQjcDHa45Uge2Wn6W42r0HSqkDaLKP3lPbvC/PN5D3VIsgJkIAAQQQKEjgJLHuirCs8uU0WH74URJr75os+EF5+/Q6YthvwYNnKAQQQAABBMIFBq4AACAASURBVDICJ7k1k19Hj71m0f11jZJbB9Bk+4AnrR1Fy2fH2yMCCCCAwFgEjq7KjkTYtn6sPDxEeu1akwUP6NbqRw59e8FDeMxYQcdqEUAAAQSOCOxmsa32OqrZJrvdAbfNmtSEXRyh6KS+d03WxHK3J42Oe2MEgqyTI2EZCCCAwDoEdlVUzGUnhV+/fu32vZH+qnXpP8/2q8lGNHbqvl85Wei4ThSwUwQQQACBHgiE7JMlrDSX7ZZD+92+2VC9PXYuy2iyMg6z67XXZWXnXtJD4LAGBBBAAIE3COymqitJbbdjmZz62iidZ9t+NdlrFnll4CP3vfLXiM5d5I0QYEwEEEAAgX4IbNXVNqltc2fote27bdlVTT/YtyvpVJONZeOt725rjjwytNwaRg0CCCCAAAJ1CIRMlOWpNJFlr+LjiLKs53uQHjXZWIIsfs8xdd/dcnTitNCzc9SJBWZBAAEEEGhOYJt5d4Valr+2vdIG3Za7zbw02VOfybx2V41lbeKU3bpF8+hgAQgggAAClQlsBdZJ8kqTXbybiNmt80K3ybc7Tbb1if5Nu11z6qyxnG0k1Fc+cqZDAAEEEEBgl0DISrupKlbGjJYW4tuBCn3KMprsqQvtOnH4S0Pqsru6bfdUqEQAAQQQQKAJgd1UFa/BsqSWPj5NpdX702SfHWzrDdXN9MWEYbXna44um43bpzd8tpAWCCCAAAJTEzhKajGdHRWidMvyXbePHSbivu7JjlyhW4um92FHi9xuKjj01Ifa5hBAAAEEhiQQMlSa0UIWO5JisT7tMkSZJjtz0K126dmoRz6arXnr3EHGnYHwDgEEEEAAgXYEjtJxlF9HBVdlD43W0T3ZkRNkKqerx12/jCskyB56p+4IIIAAAk0IHGXk3ayXVsYMOESht6uyXjTZkfl7NmrqhSflbAu9eUCT025SBBBAAIGeCWyTcqg5T3bhbZb1On/sKinTZF97y0e/PHHKrmzfcziwNgQQQACBtgS2sizky60sS/NofJtW9lzuKi93ocmODN+5FaPn7Ra2H6uHZm3PmNkRQAABBBC4QiDkrDQR715JpA1ieay03o8so8miC10q7HrkVpPtjtWP1a+cRm0QQAABBBYnsJVWaRLczXShcqvnTho3f9VPdm6vybYmb26e8wVsFVhWs9u9H5MvHmJsHwEEEEDgOoHdHL1bGXLflYS4myXbVnaSo2myL9wgutqu56Vvt/7aib2vn0MtEUAAAQQQ2E1nId9l6TMmwbSQten2sZMc3ViTbY3drcHir4dNV5h63q6PhsadGFtwQQABBBBA4FsCu5k6q9xmw5OcmKbRfso9ZGqa7Ko/nLhX6ou+2v/tadceAQQQQKBnArvpL2qyNANuy1dTbAftVtdk0aId2OLDEqKfnbQ72k4PZu75tFsbAggggEDnBLYJLqbF88JJ0uzwVfN83fKebGvjDi0UlpT63NEid7fT3MCdn3PLQwABBBAYgsA2x6WZcVs+ypU91zdP2c00WbBfz7aJa9u62tY1d79tFiqHOGwWiQACCCCAwAmBbeLbTY4DJfeY5WMhLP4EwtuvWmqySKGfwtbnotjadb648qOOb9vP+AgggAACCNQhsM1028wY0+LHwna0j10qNGh7VdZGk42lo7c+l9VE3Za5S1vT1jmiZkEAAQQQWITAroqKCTHLgIM+hu20MmgzTTaKtaK3fSxkOyLIWvm0eRFAAAEEXiKwK8uy9Df6Y8P0TZN9cJ6PUiw2SAcKlS8dCcMigAACCCDQhEDIbmm+m6+8liYbS2VHyXVeyJyyoUWbnFKTIoAAAggsQmCsJJ5l54uPrZJ4g3uyscx5LsV2/8bQypaLhAPbRAABBBBoS2CsPH5Rh6XNWuXx2ppsOEN+1GSpFUO5lS3bHlGzI4AAAggsQmC4VL7N1B9rmqRymuyjXX6dy7KsfxMrLhIFbBMBBBBAoBMC08uyJtm8qiYb2oS7yiwTZH5JbCfBwjIQQAABBF4lMHRC3+bu3Zr6sowm2zXEfmUmy7aN6tvv1SNncAQQQAABBI4ITC/L6uf0eposCJqtjhmu5sgLwwaPfFc9AggggAACMxGYJq0f6ZD6ab2qJjva9hz19QX1TGfbXhBAAAEEhiNwdEkxR1qv/30kmqyM59RX08MdXQtGAAEEEJiMwApXZTVNVkmT9SmlC67KJVlNrzUXAggggEAnBMpm0jLXJEVHqZnfl9ZkpazmkqyT0GAZCCCAAAKVCbgqKwicJisgzGqK6IK2NxQCCCCAAALPCRS8KiuQkksPUTPF19Bk01urpsGeHx4jIIAAAgggUJCAq7JSMGmyp4qaICvli8ZBAAEEEBiUwPSXL3Xs8romm95ONFkdTzULAggggEC3BFyVFTFNG002jfEIsiJeaBAEEEAAgdEJTH8FU8FADTRZEGTpn08/PmzUP2yhgpFMgQACCCCAQOcEprlt2dUUda5g3tVku6o5VWNZeRdEt5V1LNT5IbQ8BBBAAAEEAoHdpN9tEv92YRWSfm1Nlomw3cdvMTVpH1buHCKAAAIIIIBAIBAyY5OkXGHSsTXZrl7eFWHbygpwH05RwTYOOQIIIIAAAmMR2E39DxNuP93fTv0v3pNtDbPVXkc1/RjgaCVvG2asQ2i1CCCAAAII/Pz8bFP/URodsf7t1N9AkwUzHKmxUN+5qd62ioONAAIIIIDAoAQmlmVvZ/+3NNmuSXb11lacvSTIdpd0b663rTLoObRsBBBAAAEEymbbe2n6vV6vCoB6mixqryNSHxscdaxc/6o9HGYEEEAAAQRGJ1BQllVO8R+ne1UD1NNkv379+mikjw0+wqrQ4FV7jH4OrR8BBBBAAIEhsvk9wfCqBnhFkx0ZY/ezywjl/G1s1rbwqjEcYwQQQAABBOYgcKQE2ibxIrO/pwQqabJgm/jp5K782q0sgq/gIO9ZYo5DaBcIIIAAAgjM/QOY7ymB8prsRFplmixtOYSgDgt22BBAAAEEEEDgnECa4gvejPQw1Hti4BVNtoss7OHkz91eXVW+J43PPdtbBBBAAAEEhiMwxG3LPZnxkh6oocl2P7jMxNmVnwC4B65gr5dsMNwxs2AEEEAAAQQ+EqDJPiLKGhTWZCcGyERY9lhQOb00FEGWuY5HBBBAAAEEzgmcqIKXknW1Yd9QBZU0WabAssdqBJ9M9Ab9c1f2FgEEEEAAgaEJ0GRfme91TRbskYmw7LH/Dy4Jsq+8SmMEEEAAAQQCgVll2RvCoKQmO+KeKbDs8cndVbW+b6B3XBFAAAEEEJiewJE2qJbB35uouDZ4V5PFS7JwE5apsfA4xCVZce7TH0IbRAABBBBAIPyislllWXFtUFKT/fz8bNXo1hKZMhtCkzlXCCCAAAIIIHCPwFYJbNXCiDX3aJz0KqbJdonHm7At65NX28Zta4oL4RN7eIUAAggggMBkBHYVQtvMXmr2sgrhRU32UXUFI3VuqrK4JztmtoMAAggggMAVAp3n+tsSraxIaK/JboOo07Es7iuOqw0CCCCAAAKTEaDJrhi0jCbbZb393limonZ7ZW3aPoYtXOGoDQIIIIAAAggcEfj40VnbdP9k9oJ3N29pskyQpY9x5/1bqCDoIzdVjwACCCCAwAoE+r+Iifrkq0JBqdBAk+3qs6/2X61xQdArnDd7RAABBBBA4IgATXZEJtYX0GS7112p8Dopp+qqN2sRZNFLFBBAAAEEEHhOoMNEn+qQe+Ugcp7D+f0LxZ6Psov4RIelr+7tv04vmuy5bxgBAQQQQACBSGBXMNTJ6a/OUkowtNRkrwJ6OHhB2Rt9UQEBBBBAAIGVCYTc+jBBd9i9a02W3oSdlDvEGpdUiu/KZ8/eEUAAAQQQyAhMeVVWSjM8vSc7gnsixYaQyaX4Zr7oEQEEEEAAgZUJHMmGeCcyaKGIbKDJdqxfhOzKR87eEUAAAQQQOCIwpSwrohzaaLIdHdRTVRGyR76oHgEEEEAAgZUJ0GRH1n+kya5g3X6I2ZP62l8LTXbkLuoRQAABBBB4SOCKeNhPz33XPhcPr2uyCHCIr5H9+vXrOdOHzqo7AggggAACcxOYUpY91w/1NFkUZ9UKv3/92vf/PWc690GyOwQQQAABBB4SuKfJ7qX174XAzR7P9cN9TTbKvde3aJ8zfeipuiOAAAIIIDA3gXua7NuEXrl90EVPDPdIk1XebYXpCLInzqQvAggggAACFwnMKssubn+3GU32l9KjyXa9RCUCCCCAAAJlCdBkW5402R9N9vzWcctXDQIIIIAAAghsCUz5DaiHNzs3NRl5u3UvNQgggAACCCBwnQAtkbGiyf66J8voeEQAAQQQQACBlwjQZBlYmuxfTeaDy8wzPCKAAAIIIPAqAR9fZnhpsj+aLEPjEQEEEEAAAQReJTDfVdmTr5Td0WTzEfTr+189cgZHAAEEEEBglwBFkWKhydyTpf6gjAACCCCAQD0CNFnKmib7rcme3DSmNJURQAABBBBA4CsC88my26Lia03W1TfyShnyNr6v3E5jBBBAAAEEEMgIFEzl/37y1fr/bv/U4B1N1nqz5eenybIT4hEBBBBAAIE6BEppsvLi4MGI93QFTeaDyzqHziwIIIAAAgjsE5hPllXSZD8/Pw+EY49d74Hbdyu1CCCAAAIIIPAlgfk02ZcA/m3+3T3ZfNR8wf+e3+iFAAIIIIBAKQLURSC5uiZzSVbqRBkHAQQQQACB2wTmk2U3BAZN9s9tB9IRAQQQQAABBIoQoMl+fzfsK5SQfYVLYwQQQAABBBC4QoDA+E6TdfWbyUr9sMCNq8UrvqUNAggggAACCFwnMKUm+1ZjfHFPNiWv6+6iJQIIIIAAAgi8R4DMoMne8y4jI4AAAggggMBVAjQZTXbVV7RDAAEEEEAAgfcI0GTrarLb/xzVe+5oZAQQQAABBJYlMN/X1t/6Phn1uuwhsXEEEEAAAQTqEFhcbFy9J1scUx1fNAsCCCCAAAIrE1hcbNBkKzu/vSOAAAIIINARAZrskjEmw+TLZJesrhECCCCAAAIVCSz+lbJL92SLM6rojaZCAAEEEEBgaQIr3wFd1WSlfm9+J+N8+6MQS58Pm0cAAQQQQKAWgck02a9fv65Ljkua7Pe/wTTXf9cB1XJC8yCAAAIIIIDAz3ya7LpRL2myyQARZNf9Q0sEEEAAAQQqE1hWddBklT3NdAgggAACCCBwRoAmO6TjC/6HaLxAAAEEEEAAgdIE5tNkFz+g+3xPNhmar75tV9rNjIcAAggggAACHwgsKzyW02R+M9mHo+A1AggggAACTQks+wHdipqsqaeZHAEEEEAAAQQ+EJjsqsxnl/u/veMilw/O4jUCCCCAAAIIvEaAJttHuyaXfRZqEUAAAQQQQOB9Amtqjw+fXU4GxRf83z9HZkAAAQQQQOApgTXlx1qazAeXT0+J/ggggAACCFQhMJksu6JAaLIqnmUSBBBAAAEEEPiGAE2W01qQSI7AMwIIIIAAAghUJ7CgAnFPVt3LTIgAAggggAACnwjQZH8RmuyXtvltsX9Z1wMCCCCAAAIdE1hQhJzdky0oUTt2TktDAAEEEEBgLQKr6RCabC3/tlsEEEAAAQRGIUCT/bHUaiz+7FwJAQQQQAABBFoTWE2HuCdr7XHmRwABBBBAAIE9AjTZHyqrsfizcyUEEEAAAQQQaE1gNR2yyj3Zld+f29r3zI8AAggggAACfxGYSZZ9lCKHmmwmCv6Zy78c3AMCCCCAAAKDEFhKjdBkg3ilZSKAAAIIILAeAZrst837oVBkJR8vDNfzcztGAAEEEECgdwKlNMCvPv47VyPuyXp3R+tDAAEEEEBgWQJFNFkfeuz3Kmiy3wjOKSzr6zaOAAIIIIBAzwTm+xeWTmgvcU9GkJ14gFcIIIAAAgj0TGCmq7JzQUKT9eyH1oYAAggggMDqBFbXZDPt/+PHt6s7u/0jgAACCCDQMYF1NMn+Pdk6++/YCS0NAQQQQAABBDr6RRBFflbg5ONLmoy7I4AAAggggEC/BNa5J6LJ+vVCK0MAAQQQQACB1TXZz89PkQu6HgY5uSTk6AgggAACCCDQP4GZZNkJ7fnvyWiyE/N7hQACCCCAQP8EZtJkJ7KEJuvfFa0QAQQQQACBpQnQZD188FhgDSeCdGkHt3kEEEAAAQQGIbCuJlvq3zEYxBstEwEEEEAAgXUJTKbJjm6Ldj67nGnnfmHsuifYzhFAAAEEZiGwiDKhyWZxWPtAAAEEEEBgUgI0WYHvcjUf4uh6cFKntS0EEEAAAQTmJDCTLDsSJ5Pfkx1te06HtSsEEEAAAQQmJUCTNb/neroAmmzSs2lbCCCAAAJrEaDJnkqi5v1psrWOrN0igAACCExKgCZrrqmeLoAmm/Rs2hYCCCCAwFoEaLKnkqh5f5psrSNrtwgggAACkxKgyZprqqcLoMkmPZu2hQACCCCwFoEVNZlf4r+Wj9stAggggAACIxCYTJPt3hnlvwtjpj37Jf4jnDJrRAABBBBA4DOBFfRJrsl+fn6efl7YTf9w5/fZzloggAACCCCAQN8EJvscbxd2rslm0qG7F4O7FFQigAACCCCAQOcEppcor2iyTqjRZJ2fLstDAAEEEEDgOoF+1MXzTwR3JcrXmqwTIldw7G74uu21RAABBBBAAIF+CAykQD6qlF2JMqomu2KY3Q3341tWggACCCCAAALXCVxJ/R/FUCcNdiUKTXbdGbREAAEEEEAAgWYEaLJcUHZC5MoydkVoM1cyMQIIIIAAAgg8IHAl9eeqpdfnXYninuyBd+iKAAIIIIAAArUI0GS5wuyEyJVl7IrQWp5jHgQQQAABBBAoSeBK6s9VS6/PuxKlwT1ZEaZXBtndcEnvMBYCCCCAAAII1CJwJfX3qsHyde1KFJqsliuZBwEEEEAAAQQeEKDJdpRdXvXlcxGmVwbZFaEPnEFXBBBAAAEEEGhG4Erq/1KSNGu+K1HckzXzLRMjgAACCCCAwHUCa2myK//A53Miz0f49evXx0H8A+TXvVxLBBBAAAEE+idwRaU0u/j6cuJdlfLXPdlHoXNFDH1c1ZVZng+yeyvYv8NZIQIIIIAAAggcESgiIT5qjDoNtkKFJjuyu3oEEEAAAQQQ6IvAQprs5+fnozZ8juP5CFeu67bysy+3shoEEEAAAQQQ+JJAEQnxUerUabDd+nf3ZOHjz3MiH98W+Tz4fJYg2ra7VYMAAggggAAC4xL4mP3ryKkiy9heHpXXZOc4rqi68xGC3voo7LZbHdcFrRwBBBBAAAEEfn5+ioihjzKjToOtULmjyZ6slSZzqBBAAAEEEEDgHgGa7I8G+3g79afpcen5IFdG2MrPe+bXCwEEEEAAAQQ6IUCT/ZFXV8TQn9YHpedAryyDJuvk/FgGAggggAACpQg8lxAH2qRB9VaofPfZZZElPwdKk5VybuMggAACCCAwEIHnEqKIkikyyCSa7AqL7VYH8jlLRQABBBBAAIEtAZrsigTqrg1NtnVlNQgggAACCAxNgCbrTm9dWRBNNvSps3gEEEAAAQS2BGiyKxKouzY02daV1SCAAAIIIDA0gbU0Wfj6/NGf3Smv4wXRZEOfOotHAAEEEEBgS4AmO1JoXdQfqTKabOvKahBAAAEEEBiaAE3Whfa6sYih3c7iEUAAAQQQQCAjQJPdkENddMkM6REBBBBAAAEEhiawkCb7+fk5+iiwVH1NsTa021k8AggggAACCGQEZtJk2dZ+a7CsqpT2aj5Oti+PCCCAAAIIIDABgeYCo9QCtragybZM1CCAAAIIIIBApwRKSaLm42z5TqvJ/Nzl1thqEEAAAQQQGJpAzW9AvS3atob4S5PN9DEtTbY1thoEEEAAAQSGJlBTk1WYK7MFTZYB8YgAAggggAACnRKooJNqTpFRpskyIB4RQAABBBBAoFMCJx/o1dRSpebKKNNkGRCPCCCAAAIIINApgRNN9vbXv26M/1G6ZZRpsgyIRwQQQAABBBDolMBYmuxcxm2/+E6Tdep2loUAAggggAACGQGa7Fzndfp2Kz8zu3pEAAEEEEAAgbEI0GSdqq7zZdFkYx0zq0UAAQQQQOAjgTqarNos2X59dpkB8YgAAggggAACnRL4qJbC1+rPb2123x59H3+3cZHK7eURTdap21kWAggggAACCGQEXtJkR4LsocI7l240WWZcjwgggAACCCAwDAGa7Fzndfp2Kz+H8TgLRQABBBBAAIE9AueaLF53fSVNYq+TwlcD/vr168oF21ao+Oxyz+bqEEAAAQQQQKA/AkNosqjtzpVcDU12zut8fQXfbrfan2tZEQIIIIAAAgh8QeCjxvjYYKs0ooQ6KWS9zmeJ42S9ssetUPnrnuzn5yfrMO7jdqtf2FxTBBBAAAEEEOiPwLkYCh8afitdooQ6KdwY82OXLd2/NNnHrX6coJ8GNNnW2GoQQAABBBAYmsBHofKxwVaonEix+Grb67zmyjK2QoUmG9o5LR4BBBBAAIGFCHzUOh8bZFoqqq7zQtbr4+OVZXzWZFdG+biUHhoEuAv5qa0igAACCCAwNYGQ2c81xrcy5lyKxbfnk27fflzGrkr5657s5+fn4yjbibut2SrQqX3V5hBAAAEEEJiZwBWJcqVNqluOdF5UY0cN0kG25Y/L2JUoNNnM7mtvCCCAAAIITEPgo9C58R3/j5LrY4OtILuyDJpsGre0EQQQQAABBJYj8IYm+6ifaLJd0fl15a4IXc6FbRgBBBBAAIEpCNBkXyuhfjrQZFOcQZtAAAEEEEDgN4H6mizMeGXeTPx87LIrUXyfjKMjgAACCCCAwAAEPgqdjx9EZsopPoYPKHf/vDfmx6XSZAM4nCUigAACCCCAwC6Bj0Lntn7aVWP3vkkWdN7HpdJkuyZWiQACCCCAAAIDEPgodGiyePPXXWFXhA7gdJaIAAIIIIAAAhsCNFl3Suv6gmiyjT+rQAABBBBAYFQCVzTZdZEQW558cHl7xo8ddyXKK9/x/7iUCOLVwu6GR/VE60YAAQQQQGBtAsXVRRjwW01WZBm7EuUVTfaq0ro++O6G1/Znu0cAAQQQQGBUAkXEUKoiPmqytHHZ8q5EyTXZz89P2VkbjhaU76iuZ90IIIAAAggg8B+BJz8FeSRFymqyeN92NF1a/9+2/vr/XJMVF6HpCuqXd3XoXwA8IIAAAggggED3BN7QJwU1WRRk28Ku+NnVJzua7I1t7y6oQuXunrt3PAtEAAEEEEAAgb8IvCFOon7KBElaf2Xe2H63kA0efmHHrj7JNdnFf7tgO0GfNbt7/svIHhBAAAEEEECgewJXtNENKXIybBRYH4eNLY8K2QhH4oQm694NLRABBBBAAIHlCZyIp0zxXH8MEuqk/ccG8dLrSI3tjkCTLe/OACCAAAIIIDAsgZc02Ykgi3rrShua7JzS77dHUnRYn7RwBBBAAAEEViRAk30WPZ23oMlWPLj2jAACCCAwHYGXNNn5/dbHST9299nlH6FIk013Km0IAQQQQGBFAh/l0Z/cf7l0RVGdD3ZlhO3Kj8SJ7/iv6Nn2jAACCCCAwFgEtsrmXC1deXtFUZ2Pc2WE7coX1WS+UjbWkbNaBBBAAAEEtgS2suZcKl18e0VRnQ8VF3Y+VDYITbY1sRoEEEAAAQQQGIBAlD6ZuHn4eC6kwtvzKc4XFsfPBvlOk53PkQ3d+ePRzgfwQUtEAAEEEEAAgZ+f92RJlE27hSsK53xt27dhol2r7nyfzK/y3yWlEgEEEEAAAQSaENgqmytqqU6b87Vt355cFdFkTbzLpAgggAACCCBwlcBW2dTRW+ezhFWdrG33FU121eraIYAAAggggEBvBHbFzblgqvA2arL0c8903t1lf63Jfn5+0kGHLp9svjefsx4EEEAAAQQQ2BLYFTfNxcmuJjvSZ3G1293Fmvk/u/TrMKKxFRBAAAEEEBiOQJ+CLGqsVIRl5aBAYstQOLkqosmGc04LRgABBBBAYCECNNk/mawb+vFEky7k1LaKAAIIIIDAgAR61mTZxVj26J5sRz3SZAOeQUtGAAEEEEDgN4GhNdlWlJxokv3PLjtHsN3hec3J/vk7AggggAACCPRMoE9NFlaVXYxlj1txci5IaLKe/dDaEEAAAQQQWJ3AoJpsK8g+/tDhKprsXJmu7u/2jwACCCCAQJcEws3Trr5pW/nxnmx3eedqZAlN9lGZdumHFoUAAggggMDqBPq8JAt6K/ukMnv89gv+v3817JG1+6FQZCXnyvQIgnoEEEAAAQQQaEiglAbYvbV6WHmytvBq2+BcjQygyR4ii2K2oUuZGgEEEEAAAQRuENjKmiKq4Pkg5x+qxjuzbCKa7DeQcwo3vEQXBBBAAAEEEHibQM+aLNNb6eORYjtXI4f3ZH4dxtt+ZnwEEEAAAQQQOCcwqCa78WWys++TTabJXJWdO723CCCAAAII9EagZ0EWP52MhfSejCbLaOSP5xeGvTmi9SCAAAIIILA4gbE0WRRnsZAJkY86ZJXPLt2TLX6wbR8BBBBAYDgCNNkfk3XLIhOeFx8/6tM/O1dCAAEEEEAAgdYEutUh8SbsvJDpk486xD1Za48zPwIIIIAAAgjsEaDJ/lAJ6i9TeeM+hu382Z4SAggggAACCPRKoHMRcn5DtlWTV0TI2T2ZH73s1VGtCwEEEEAAgckJbGVN57dCqUrbLvXjB5cffhcGTTa5v9seAggggAACvRIYTpNtdVhaQ5OlNH6XrxDp1TmtCwEEEEAAgYUI0GS5sRckkiPwjAACCCCAAALVCSyoQNb6PpmrsupnyoQIIIAAAgh8TWAyQXZRfnzQZL5S9rUf6YAAAggggAACzwhMpskufnWKJnvmNXojgAACCCCAQGkCNNk+0TW57LNQiwACCCCAAALvE1hTe6x4T3bxCvF9lzMDRqJA5AAAIABJREFUAggggAACCOQEOv9tsfnvdLjwfFF4LKfJLn7PLncQzwgggAACCCBQhcBkl2TXhcclTTYZnYtytYrjmQQBBBBAAAEE/iIwn+q4KDw+azI/evmXp3hAAAEEEEAAgTcJzKfJLtKiyS6C0gwBBBBAAAEEahCgyT5QvvANtpGaXLxF/ADFawQQQAABBBAoSmAyQfbr16XLr4DwUtP5ANFkRU+QwRBAAAEEEChDYGXJcVWTTcaIJitzdIyCAAIIIIBAUQLz6Y3rkuOSJpvya/7XGRV1NoMhgAACCCCAwD6BZX8zWcCxqCa7/stC9r1GLQIIIIAAAgiUJjDZJdm3YoMmK+1QxkMAAQQQQACBWwRoskvYFsd0iZFGCCCAAAIIIPCAwOJi4+o9ma+UPfAxXRFAAAEEEEDgA4HFv0z28/PTqSYLhkn/fOO3n/ma/4fz4TUCCCCAAAK1CCx+SdadJktFWFamyWodCvMggAACCCDQgABN1ss9WabAdh+LyzL3ZA3OnCkRQAABBBDYI0CTfafJXuK1q8C2lcU12bc/pLrnQuoQQAABBBBA4CmBlwTGG8rh4phBxnzF5QtN9t7X/Lfya7fmIoWvmrkq+8pdNEYAAQQQQOANAlNqsm9BjaHJwoXWV2LrYmOa7FuP0R4BBBBAAIHiBGiy777j/949WZBc2d1YJqrC26zy+SNNVvxcGRABBBBAAIFvCdBkPWqyI5n1nrXIsm9PjvYIIIAAAggUJPBeij8SFRXqb6iL7z67DAZ4Yycfr8HeM9gNagUd0VAIIIAAAggsTuC9FP+GYrky5j2Dfq3JXgJ3UZM9mT1+NprRpMnuuY5eCCCAAAIIFCHwJLlnOb2Tx3vSohdNFr9StqV5pKW2LXdrYve0kLW8x66IIxoEAQQQQACBlQnMJ8hu/6atO5rsPXxx5FQ/xXImpD7+MGbsuC1kQ9FkK4cDe0cAAQQQaEggpv4sNX/7WGqcb+fdtg+q4wbSrzXZez99GWhu9VNa81GHxfu2tNduOYVIk91wHV0QQAABBBB4TqAfLZUKgyfl26KiI00W9r+rn2LlS5osDPvcsYyAAAIIIIAAAtcJzCfIniiK7jTZ+UXXFd0aBdx5IRvqtqq97nlaIoAAAggggEBKgCZLadzRZM0/vszkVPZ4IsViy9AmPj5RtSlNZQQQQAABBBC4TmA+TfbkimdITfbRhJksS7VXKO9qsiccr/uflggggAACCCAQ7nc+JvRtBu+85omW6EuTpYIp01Xx8YoxPjbeajJXZQIEAggggAACNQnMJ8geaokeNdn5V8qumHBXcqVible0PdG2NZ3YXAgggAACCExA4EpCT3P3EOUnWuKmJmvylbJgjGDCj4Y8l2W7b0PlBF5uCwgggAACCHROYDcRD6G6Thb5RJB9/W+Qpwb+qIpOFv3xVTDV0RQXDbntHoc9GuEhzZSPMgIIIIAAAggcEdjm6I/aoP8GD1VEd/dkgfi5qY4UVWqtKL9OPgkNr7JeR96jHgEEEEAAAQRKEThP9GlqHqjcUpO9BDQMez74+dtov6jMdguxWVp4CLSUsxoHAQQQQACBWQlcTOJpdu6/HJTGE5Pdvyd77ytlgfuRwVJ1dW6hMELaflt2VfbEe/RFAAEEEEDgBoGjFH+e1n9/46rj/57f6XSqyYJ4Sslv5dRHi9JkN86JLggggAACCLxN4GMGTwXAKOX5NdmuFIuVF+0U2+8WtoM8x/q2NxsfAQQQQACBQQlMKcjCx24PLfLonuy9jy93xdO2ciunshpXZQ/9Q3cEEEAAAQTKEphSkxW5zelUk538sGSmzDIRtvuYdcket12KkC3rwUZDAAEEEEBgDgI02ZEdl9BkJwpv+x3/INHIsiOPUY8AAggggMBtAlMKsiIfXD76nbHRHu/xzS60dh+3t1xZTVhe1jdtE19llXGDCggggAACCCBQhMB7miFN4pXLpe5xnt6TvfeVspPLraiirps2dDky0vZtqCnifwZBAAEEEEAAgSAYrifuo5TdYT1N9q8wu2ibj06wbVAKsXOIAAIIIIAAAq9e4lwUAy81KyUYytyTbQXNjW3vDvKv8jr4v4uz7I6c9o3DZ5WOEAIIIIAAAgiUIvAxHadZuEK5yHqChCiCqIAme1X5RrW0W/jKYFv02zGzAUsp3yKmMggCCCCAAALjEthm4SznDvpYUCr0rsmChVLxdM9mYYTtaOnIW3cpCHrcU2TlCCCAAAIIPCewTbL3EnpvvQpKhTE02XMDZNrr6DGbKDR77ohGQAABBBBAYGUCIZ9mSXaOx+402asfX5ay2ZEOy+qz6QqyXvk02jsCCCCAwMoEXJJdsX6ZezKa7AprbRBAAAEEEFiTAE12xe4LabLbv/DMVdkVT9IGAQQQQACBXQKzCrJSv74/QiumycKI2Qd/vT1mH1PuPm7XTJNFd1FAAAEEEEDgWwKzarJvOXxsX1KTDQF9V4ellbuajCz76EkaIIAAAgggsCUQMuw2t05QU1wb0GSpHvtd3vWS4ty3XqsGAQQQQACB+QgcJdbdbDtWZXFtUFKTDfFN//NvlR15Q3Hu8506O0IAAQQQQGBLYFZN9oYwWFGT7cqyIzUW69+gv/VdNQgggAACCExDYFZBVvzb/cHii2qyKMui5PpYoMmmiRE2ggACCCBQhwBN9hXnwppslI8vPyqw3QZk2Ve+pTECCCCAwMoECLJvrU+T7aqv/Uqa7Fv30h4BBBBAYFkCNNm3pn9Fk81qhvAjmt8i1h4BBBBAAIHVCMz9KzBeuqMpr8l8fLnawbNfBBBAAAEEMgKz3s689O3+QI8m2/+Y8qj2JWmcubJHBBBAAAEEhiZAk90w3yuazFXZDUvoggACCCCAwBwECLJ7dqTJjm7EDutdld1zNb0QQAABBBYhQJPdM/RCmqygi5Bl97xNLwQQQACB6QmUzbaHFySNXrwqAN7SZD6+nP7U2SACCCCAAAJbAgU1WSPddTjtq4Ls5+eHJjtEf/7ibcNsvVwNAggggAACnROYWJC9+hOXwaw02bn0OnxLk3UeFywPAQQQQKA+AZrsCfMXNdn0H1+SZU88T18EEEAAgckITPx7Yitckr372eXcmqyOeSY7rraDAAIIIDAxAZdkD4377j3Z3LLMP7X00Pl0RwABBBCYhoBLsuempMkOvzF25YWPL5+7oBEQQAABBCYg4JLsuRFpsivS67CNq7LnLmgEBBBAAIHRCcx9SVbt20qva7K5P76sZqfRj6v1I4AAAghMTMAlWRHj0mSHd2AXX7gqK+KIBkEAAQQQGJSAS7JShquhyVyVlbKWcRBAAAEEEOiNgEuyUhahyS5eh501c1VWyh2NgwACCCAwFgGXZAXttbQmKyjt/QBmQac0FAIIIIDAKATKZtKz+49G72rm90qabIWPL2uabZSzap0IIIAAAhMTcElW1rg0WTHhTZOVdU2jIYAAAgh0TqDgJVmxZFx0oMqZvaomm9t4vlXWeeywPAQQQACBggRWuCSbVpNN//Gl31VW8KgbCgEEEECgcwJz37M0yen17slW0GRNTNj5obU8BBBAAIH5CEwvyJok9KqabAVZVvmec75zbkcIIIAAAv0TmF6TNcnmNFnRbwP+b7Amhuz/AFshAggggMAcBKYXZE0uyX5+fmprMldlcxxIu0AAAQQQWJbA9Jqs1d0KTVb+nqyVvl42Otg4AggggEA1AtMLsoZJvIEmW+SqrJXKrnYsTYQAAgggsBqB6X//RUNB1uazyxU0WVujrhYj7BcBBBBAoA4Bl2Svcm52T8aur9rV4AgggAACCJQlsEjibvgxVxtN1u1VWVmHa2jXsufQaAgggAACCBRPka98ofvZoG0Td0tNVta6z6zwVu+21hVBEEAAAQQQKEJgkZTdNms302TdXpWVVWdtrVvkHBoEAQQQQACBRTRZW0PTZGU12M5oZFlbFzc7AggggMBDAisIsh5+OK+lJlvnqowsexgOdEcAAQQQaEVghd9/0YMga/a7MKJjkd4RhQICCCCAAAIdEpCpqxml8T3ZIldlnQjwal5lIgQQQACBOQgQZDXtSJPtfAPsjSofX9Z0a3MhgAACCBQhQJMVwXhxkPaazFXZRVNphgACCCCAQE0CBFlN2u2/TxZ2u47V3ZZV9m/TIYAAAgjcI7DIV/u7+nJRF/dkrsruHRi9EEAAAQQQeInAOtclLwG8MSxN9saXx87GdFV2w011QQABBBCoSWARQdbVJVkvn10GP1vEA2iymmHFXAgggAACNwjIyDegPe/Syz3ZOh9f9qbKn/uQERBAAAEEZiKwiCDrMB13pMnWkWXhi5MzHWB7QQABBBCYg4Cv9je0I0129t2v9975BLOh05saAQQQQOCIgEuyIzIV6vvSZOtclXV4ZVrB20yBAAIIINAzAYKsrXVosvfuwj6M7BPMtq5vdgQQQACBlMA6n1p2ey3SnSZzVZaeEGUEEEAAAQTqEHBJVofzySw02YfbrLdf+2LZiXd6hQACCCBQh8A6gqzbS7K+fj9Z6nbrOIdPMFO7KyOAAAII1CfgU8v6zHdn7PGeLCz07QuqfsZ3VbbrmioRQAABBOoQWOce5NevfmVPv/dkS32rrOd71DrhwCwIIIAAAq0ILCXIOr8E6VcwruYlnTtKq2BhXgQQQACB9wgs9all/zcg/WoyV2XvHUIjI4AAAgggIM/25gO9a7Keb8uKr81VWW/Hw3oQQACBiQm8kcX6+a52tpIhfqKua022moTv/1p14thkawgggMBSBIoLskwD9fY4xK3HAJpsKb8ZQsgvFbZsFgEEEJiPwIJfI6PJyrjxUprMVVkZpzEKAggggMAxAYn1mE3LN73fkwU2vKelj5gbAQQQQGAiAlJqt8akyXr7yPv3enyC2e2BsTAEEEBgaAKrfWo51qdPY2gyX/YfOgRYPAIIIIBAJwRcknViiN1l0GQ93pOFNQ3xhcRdr1KJAAIIINAhgdUE2ViXZF3/20pbb+ZMWyZqEEAAAQQQuEJADr1CqW2bYe7JwseXq7mUL5a1PR5mRwABBOYgsObXyIb7uGkkTbbgt8qGu3edI3jZBQIIIDAZgdVuNAbNnuNpMo41WaSwHQQQQACBVwmsmTeHuyQb7PtkwWWL+1bxAd/4qYERfevVEGNwBBBAAIErBEbJcWVT56BJc7B7suB/Q3hYcfca1MOuhAxtEEAAAQTeILDg18gG/dQyWJ8mK6udXhyNJnsjYBkTAQQQmJjAglcYNFkDf+ZnDaCbEgEEEEBgHAIS5Ti2+nelQ96Trfl7McIVnNuy4c6YBSOAAAL1CSwryIbOkqNqsjV/L0a4kh3a4eoHJjMigAACqxFY82tkQ39qGVx0YE1Glq0WZewXAQQQQOAjAYLsI6JuGwyvyZa9nu3WpSwMAQQQQKAhgWXT4gQfIo2tyZa9KpvghrZhwDI1AgggMCuBNQXZNDlxBk3GBWcNLvaFAAIIIHCdwMrZcIJLsiF/j//WO3nhlokaBBBAAIGlCCz7NbJpLskm0WSLf4I5x18OlgqdNosAAgiUJUCQleXZarThP7sM4IIuefGX6Hc8dDiKrRzIvAgggAACbQmsLMjCpUxb/gVnn0STvXFVNtBHoq7KCh4JQyGAAAJjERgrW5W94pgs/c2jyd6QZWVd59XRJvPLsQKi1SKAAAKtCAwkyIonwfkS32yajHe2igvmRQABBBCoTGDxlEeTVfa3r6db2UFn+tmTrw2vAwIIILAYAfluPoNPdU8WzLOym/q+/3xH1I4QQACBLYGVv9c/8QXEnJqMLNseYDUIIIAAAnMQIMjm+9QyeOaEmmzxL/uHv0DM6q9zxFO7QAABBG4TWFyQTXxJNs/vjN0698pXZXO77NbWahBAAIF1CJxktxXk2tw3DnPek4WrshPHLf4TuR0OOLfjrhN/7RQBBBCIBI7yWlBj8c8OU1KRJYUNRhrzFabVZD7BdFs233G1IwQQWJnARUE28W3Z9HcNM2uygWTZ0Ul7/heL6T145QBt7wggsA6B3TQRL8Z2CxczyO7IF/vWbLZCOqPJanpUm7lW8ON14rKdIoDAggR2ZdOuDssq22Sdd2ZdIZdNrsleuirbPR7vOGGZUVdw5QXDtC0jgMAKBHYzTqa9Th7LZJFvRtld8DcD7LRdJIvNr8lekmU7LtN31SIOvUKAtkcEEFiHwK6+OVFg21d9p6ZLq1snf62iyXbd+pIvzNIoHNR1ApmdIoAAAqMTCHE7y0Kxciu/dmuy7sM9hk2NbsqL619Ck7kqC4dwKc++eAA0QwABBPokECJ2JqHC/UK8ZdgVYVllNsJwj+tcks38O2O3Zyw68XAeWXDBZNnWMdQggAACvRG4IshCasgUWPZYMH00GWopQbacJiPL/MtLvUVe60EAAQQyAueCbJvIMh0WH5uoqIKTho1kcOZ+XOWzy2DFrSsX9J6BhlrQ0ec+xnaHAALTEAjxOUsoMXntvo1/2Q5vj9pkY/b/uNol2Vr3ZOHERs/u3x1fXWE4tNNEMRtBAAEEJiCwK6di2jqXXOnb2OXVPPLq4AsKshU12Yjf9/9tpxf+I8smiOC2gAAC0xC4Lsh2W6a3ZVnGeCmJZLMUfFxTkK2ryQb6O8SrSyXLponmNoIAAkMTOJJZQeiEt9s/Mxl0MsirqSRbxsPHsIuhrXl78Wt9nyxiGsg7Hzr3x+4re3/0BwUEEECgIYETLZXefoVm2Z8hyMfKjzG//wbLXpItek8WDh5ZFk9mOMwN45GpEUAAgWUJhAgcA3JWiGLrvJD1GvdxZUG2uiYjy+K5JcuWzQc2jgACDQmcCLJzEZa+jZF89IJMtOhnl+EEnhyG0T37xvodhoZx2dQIILAggaMcFOrDrUEsHxVuRPs+u4QNLugG6ZaX1mQj/gzmq2fJkUjPhjICCCDwHoEQb7chfVsfanb/3HYft2bxTy2Dp62uyciy7ACHY/9eGDIyAggggMBWeIVQfF6fybIseg/9SJCFQ0GT/RydgaH9++HiHQ85AwEEEHiJwNFXmVPJtY3h6dujEba9hqgJW3uJ9ljD0mS/7UWWbc8tWTbWSbZaBBAYgsCRnMok126z2GYbscetIchSv6XJ/qWxewDG9fIiKyfL0qOijAACCDwkcJJoot5KC9tIfjLCtvEQNRJN6lQ02R8a8/n68wPptPzxDyUEEEDgAYHzFJNKsbSchfHzQbLG/T9KMZlD0WR/AZnM3YscSGfmLxfxgAACCHxP4GNySXVYVo6RPAzycajYPhTiaFl980fJZetHNNlfTILvNvfU3hbg5PzlJR4QQACBbwhcVFFRPG0L6b+wdD1B7I5zvfurLcPavqG4RFuaLDdzcJRXfXHEwZ2f3FE8I4AAAp8IfJtQQvuTP6+nj6NBro/wXsuwtk/wVnxPk+1Y/eLfad7z1z5Hdop2fEUVAgggcEAgxMxv4/mRlvoqMZ0M8tU43y7+YnufvRy4zA9Ntk+mB6+96Nw1m5Fl++6iFgEEEPibwD1BFuP5VlTFV+eFbcfdmvNBXn1LkP3tKX890WR/4UgfyLLdYxmOdwpKGQEEEEAgJRDi5G4IvV6ZaqmLvdIuH8sXxyzbjCBL/WRbpsm2TP6tKXKoynpzP6M5V4d+4wUCCKxNoODf578a6qMIyxrUTyhhAWt7x4fd02RngL46D/X9u+2MZNmZ63iHAAJLEmiVNaLeSn9CM1ZuC03Sh6zx8UzQZB8QtTpgTQ7Mt5P6S88H7/EaAQSWIRDi4bdRtEj7kKfSbLUVYVlNkXm/GoQgu3IUaLLPlFJH/8oFV2hMln12IC0QQGB2Al0JspB6MhGWPtbPTQTZxRNAk10CRZadnGGy7JIPaYQAApMSaC7IwueV2yid6rC0vG35ag1Bdt3xabKrrMiy80Pr1F31JO0QQGAiAg1TQ5w66q1tlI6vYmHb5tUaqeErZ6fJruIKDv2q744+uLN31Zm0QwCBKQhEVVQ/esepo9g6SlJpg8rrDFNPYepKm6DJvgB95PGVvbzn6ZzAL/xJUwQQGJZA23RwJMiOVnVU/2o2kQ5ueDdN9h20eBJedeWhB3cOv3MprRFAYDQCTSROzAshDYU1HP0ZG8dfjZHW1Cn75OSGX9NkX0N7VZa9OnidcxhmcRq/diwdEEBgBAJto/QVQRYlYyzsBv9XNyIF3PNlmuwOt1ddeffwjFgZwsEdvvoggAAC/RE4lzgVovR1QdZ2qQTZbeelyW6iI8uuBCCy7KZ76YYAAp0RaKty4keQ12XZlRD9RhuC7Inn0mQ36TU/n2+cpTfGJMtuephuCCDQDYHmAT8sIL0LiDW7hTeC+ZUxw2K6sdt4C6HJHtksPSFX/HXZNv7m9MjPdEYAgXYEmsf5IHS26WNXjTVcrTj/3ElpskcMj47K9vCo8fenR66mMwIIVCfQQ4RPhdc2j6Rv2642zF7dRLNNSJM9tWjbY7A9oj3XOLRPvU1/BBCoRaCH2B7WkP65jfDnb7ft36gJa6hlmZnnockKWDe44xuOPuWYTm8BnzMEAgi8RqCfkB5Wkv25zQttFxxmf80aaw1Mk5Wxd8OP8Lfns/8aZ7iM2xkFAQRKE2irb7LoHRaz/XPb7OifIc9avvHoa2QFfZAmKwaTLPvqtJNlxTzPQAggUIhAV4IsRNStIMsWGRt8FYFLNSbICrnev8PQZCV5kmXfnvMQTUrawFgIIIDA9wQyofNtKHu1fVRdWSFM2nDlBNn3jvahB032AdC3r8myb2NTCCjfctYeAQQQKEWgoay5EjAzKbZ9vDJI8TYEWSn3S8ehyVIaZcpk2Y3D73iXcT6jIIDAlwSGiNhbHRZrbsTb511E7C+97Gpzmuwqqa/aDXHInx/LsiOEEPMVZ40RQACB2wRCzCkbx94bLYqwtPDedCcjE2S3Xe5jR5rsI6KbDeaQZfV34bTfdDjdEEDgGwJNgtuJ0LnyKlVj9dcfVihEf+NlX7elyb5GdrHDWH8DuxIOqrUJ6C5y1gwBBBD4isDQwTnKsmoBOZ1IcP7K0240psluQLvaZeiTn57DJmWH/6qfaYcAAtcIiMlPgrmYfM3LHrWiyR7h+9hZCBACPjqJBgggUIGAaCwaV3Czh1PQZA8Bfu4uEDwJBOGXU/sGw2c/0wIBBA4ICMKC8IFrdFdNk9UwiYggItTwM3MggMCGgPAr/G6cot8KmqySbcSFh3HBhVklTzUNArMQEHVF3eF8mSarZzIBQoCo521mQmBtAuKteDviCaDJqlpNmHgeJlyYVXVZkyEwGgFhVpgdzWf/rJcm+8OiTmmyeNHq9xZSZnXc1SwIDESgbXRtGAyLiLB0kEByINNPs1SarIEp2waO9OCNXhY4GrivKRHokoC4Wiqei6sNHZwmawNf+CgVPlyYtfFgsyLQDQHhVDjtxhmfLoQme0rwdn9xpGAcocxu+6GOCIxLQBQVRcf13t2V02S7WCpVhl+FWvZQrTxaCNCVjGcaBBBoSoAgKxvtf35+/Hbuph79e3KarLEJhJWyYcWFWWOHNj0C7xMQNoXN972szQw0WRvu6aziS/H4QpmlDqaMwDQEREvRchpn3t0ITbaLpUHlTD9H/UbUuDdmiOANzGlKBBAoSoAauxcDP/byeWVRP306GE32lGDB/rPKsrb7IssKuqihEGhCoLkgaxvEPuqq2w0Isib+fDIpTXYCp8GrWU/+7ZBRqiNl1sCbTYnAYwLN1VipENThOATZY/csPwBNVp7pwxHJsveCF2X20Dl1R6AaAWrsvUgYvnFbzZQmuk6AJrvOql5LsuztYOQviPW82UwIfEmAGns1ABJkX/pj1eY0WVXc1yfrKipNqRHdmV33Ri0RqEOgq7j3tjBqMr64V8eTb89Ck91G93rHocNTWHz/Yk6Eet2PTYDABQJDh7sm6urGpMLdBU9s3IQma2yA8+kHjVNh2emfN8JHzS5C1bkfeovAewQGjXI1A1SRuUS593y44Mg0WUGYrwwVvvlU5EzWGSSVYmm5zuxPZhGzXvFggyJwQCCcuCdnVt+LBPy7SQc+2F01TdadSbYLGitypTpsWz6KIP18yhnWvLWCGgQQKEWgq5jWT/A5Co8P68W0Un5bYRyarALkMlMMETi2IiwuO0bhWPMw0LzaXRQr47VGQeBvAjEOvHp+DR4J+Bnzvx2w9yearHcLpevrX82caLL4b1DGYNF/IW4ntYIyAgh8SyAepf5P/UwrJMi+ddTm7Wmy5ib4bgE9/y0zht20kAW4dP39S8yw+Lid70ylNQII/PzE45OFAo+vEgjYOeBwBGiy4Uz2b4x79TzfGDxG3rSwHSe+3b7qvCaufDyPsWIEWhCIR6bzoz3f8gL5FjY351MCNNlTgk36hyPXVSiJ8TctZCtMX6VbGOXCLGwnrLyJ3U2KwBAE0tOdBQGPbxMQoIY4I0eLpMmOyPRe31vUC+tJ/8xCT/oqLcdmIyozX9fo/ZxYX0UC8VzHQ61QmUAwQUWbm6owAZqsMNDKw/WjY2I4DoVtJMoaZI+hfT/b2a5/tybuorLdTYdAVwTiQdg9JirrEPBXxK4Oxb3F0GT3uHXUqysdcxSaY/3HQvjxzDohrOAscV8deYalIPAygej2BY+Soe4RIMhedvZKw9NklUC/Ok2IjPdO8rZXjLO31V4cIQ4ea44K25axZqBC3N2r5jY4As0JRFcf6HjOutRgi+YuYQFFCNBkRTB2MchtCZWFqhhtYyFrcOUx9r1S2A4Ye21fDVET19+FZ1gEAoUIRMce4hiusEjXY4Vcu5dhaLJeLPF8HSFcPgxDMeZmhd1hr6vAbLTsMRv8/G3WuOfHuJHnxjUCAm0JRGfu+cQ1X9v1kFhkqcEobR3D7GUJ0GRlebYf7UlQiGE3LcTfv39v5NgrHTMtZ7EpfRXLWZvhHuNG2vt3nT4TAAAQm0lEQVSHFSDwDYHousMduukX7IbsG0cepi1NNoypri80hNEbISnG37QQxrk9ZuweC9vB06Wmb9Ny2mbcctzRdWtqiUB9AtFRxz1rE688WKe+V5ixAgGarALkBlOEQ/tVVIpROC2kI8Qx49VX+varcpwi6xXrdwtZ43Ef4+4aeIYpETglEJ1z3PM198qDgU5t6OXABGiygY13vvRwdC+GpxiI08K2bxE1FobdLi+dere8Xc9uzfNF7g77RmXc5rkpvUXgbQLRFd/w8zfGHOiYF9x+MNPbzmD8hgRosobwa0x9JXLFcJwVslCSvg2vrgyeDZI+Zt3T8Y/KafeZynG/NXzCHAj8RyA63kynada9+ALZf2478//TZDNbN+wthN2TOBXjclrYtk/fRjkVC9v25zWhY+yeDX70eD7mBG/Tjc/vmnbYgkDqYxMcmRW2EEzWwlnMWZsATVabeJP5wpE+CV5pmI46KW2fNYiPoc1ul7T7UTkuLA54UjgaZMr6lEMTnzHpZARSj5ryyMy6qWC4ybzRdo4I0GRHZCasP1dOJyE7fbUth1B4MvjJq/QXbWxHTmtmDbhX9hU5TOiUtvQygeg8VzxNmyMC50HsqNfzep9Xvnw+uhueJuvOJG8v6CS4HIXvWH9SCNHnZPDz8HQycnh13n2Rtymlt/3E+OMSSP1kkaMx3zapsXEP4JOV02RP6A3Z96PEyQJ6+rhbDtEwfXU7PqaDpOXbA550vC0fT8as9iqFI3YPeQ5LLzpziWquWHyioQ9mKRrBmqV9xHgDEKDJBjDSG0s8D3xZfD9/zMJQaJxVfvWYTfdV3wUbp7jecBVj9kwgtf6Czj/llv0tq+cT9/baaLK3Cfc7/kXxlAb9bTmLiVmD7K3Htwmk/Pv1PCt7RiC18tseZfyaBIJln3mH3mMToMnGtt/D1YcQcBJ04nVamgZiedsxvoqFbRs1dQhEE4TCQ1fRvSGBzJR1/McslQk4pw2PWD9T02T92KLZSkIsOApAJ7Is65JljviYNfNYn0C0RSg0czUTXyaQmay+z5ixGgGn8vKxmL8hTTa/ja/sMASFkxi0VWZZ4yyFZI9ZY49tCWTWueIh2rxNIDNKWw8xezUCwe5ve5fxRyFAk41iqRrrjMJrNx7FtyGIZG2yjJI9Zo13H+P4u29bVfa5qoI0Mkv5fnGNk/a/ObbkC5q1w6H6PEptV+W4VTtuo0xEk41iqUrrDHniJKCHEJY122aXbc3JmF51RWBru0rON/U0W6pdGd1iKhMI/jC1y9vcHQI02R1qc/cJweIkQkVZFtpsk81uzcmAXvVMYNea/n5/EgSOiPVsZWurSSB4yIkLebUsAZpsWdN/2HiIGudxKoqzoyQU68/H8XY4AtGyWeGDV033Ott+fBzOoBZch0DwkOnOgQ0VI0CTFUM530AhfJyEqpiBPhZOBvFqGgIf3WDEM/JxU9OYz0beJhB8acRTYM3VCNBk1VCPOlGIIyfRStI6geNVJPDRT9IGb5+WdK6P5bgFBQTuEQg+9rZXG38CAjTZBEZ8fQshoJwHo6PEdt7L2z4J/PPr1z/tVnbkS0f14QAcvT2qb7c/M69FIHjg62HaBFMQoMmmMGOVTYTIchJNd5PfSXuv+iQQBNnJn50sO/pbJ+uxDAQyAtRYldQ01SQ02VTmfHszH2XZr1+/YqZs+4t/suDo8TqBrRr7bdb//rcd5+TVtnHBmuhpBcc0FAKlCBBkb+ejKcenyaY067ubuqLMSsU149QnEDVWLMQ1xJpQiPXbQmy5fVWqprImi9NtC6V2ZJw5CAQPeTcKG31SAjTZpIZ9eVsh6MwRQCvvovPrw6ilYiHjE+tvFLKhHj5GbVRqnBOvjnOdFB4uo7funTtqb7jieoKHvByADT8tAZpsWtNW2Fj4xaExGClMQGCrtLJNbRukNWnj3/X/93///u+/jz5D47TZ7XKUR1dGiI23hZPusXFsE2t2C7GZwoIEfn5+/C7lCnln7ilosrnt+/ruQmZaMP7OuuVUYO3qp22DWJMx+V0fNVks/CfOssY3HqMq+tg3toyF0CU+nhSywU9auljKWC31GBzj9YBrgtkJ0GSzW7jK/kI8WioEz7rZKLBiIdtprN8WdlpGKZYVsqa3HqM8+tg7toyFrEus3xaut6TJMlaLPAafqRJoTTI/AZpsfhtX22GITYsE4lm3eUlp/XfXlTXOmPx+m0mx+Jg1/f4xFU8fe6eNd7102yDWZIPH+qNC1t7jxASCD1QLsCZagQBNtoKV6+0xBKmJo/D0W8tkVvabY7dv05oMDk2WAfE4EwGCrF5eWWkmmmwla9faK2U2bu5JNVYop3vZvk1rdlrGi7GskDY9KJ97UXh73iYOnDbe7bJtkNbEcbJfv5e2ieW0sfKUBIKta0VT86xFgCZby941dxsi15RBeeJNpRrrqSbLdFj6+PfvFo6C5ryQYk9bpvVH5bR9KKctt2/TmustfaUsZTVfOXhFzShqrtUI0GSrWbzqfrfJb74wPd+OtrLsYk2K4neXVIRl5bTpQflIFYXm52+3Q6btt265fZvWpKOl9bvltLHyTASCuasGUJOtR4AmW8/m1XccYtlM0XmpvURBdr7rrNlzTfZhukQQnbcMb5Pm/xbTXtu3ac29lmkv5aEJBGeoHjhNuCIBmmxFqzfZc4hrQ4dmi08JZCIsvIqVfzTZtR/STEe+Uj7STEd90/ZbV9y+3a05+T7Z0bzqhyYQ3KBJwDTpmgRosjXt3mbXMc/1FqZ9DaigRf6SZXuCrMhc0Zcu2i5tH8phGbH+yqpi43SEKx21OSdw0Yjng5R9G23dJlaadVUCNNmqlm+3b/msbPJYc7SYMi+m87R9Vk4BnrxKmynPTSC4QbsYaeZ1CdBk69q+7c5D1Js7stvdewRS8XRxlrTLRSV3cWTNpiFAjbXNC2anyfhASwKUWbfJrHPVkgqsbhnuLqxzsLtrXqGSGmuZCcz9HwGa7D8S/r8dAcpshZxXdo/jarKyHIz2nAA11i72mzknQJPlRDw3IRBT7PMIa4QVCESHce20grlf2mP0oiZBz6QIbAnQZFsmapoRCCHypfhr2JkIxGxKk81k1pp7CS7ULNiZGIE9AjTZHhV1TQlQZjUzU7dznYut25rsfNhuaVhYQQLUWNMAb/IzAjTZGR3vGhKgzAomofmGuq3J5kNhR9cJUGMNQ7qprxCgya5Q0qYZAcrser5ZqiVNtpS5n2+WGmsWxE38DQGa7Bta2jYiQJk9z0mTjUCTTWbQ97ZDjTUK26a9Q4Amu0NNnyYEKLP38tZwI9Nkw5ms/oKpsSaB2qRPCNBkT+jp24AAZVY/t3U4I03WoVH6WRI11iA0m7IEAZqsBEVjVCdAmfWT/5qshCZrgr3/Samx6sHYhCUJ0GQlaRqrMoGYmPtPFVZYlkA0vd9tURbsoKNFf6gcgkyHQFkCNFlZnkZrQCCG40HTiWXfIBCNTpPdoDdTl+gJDUKPKREoTYAmK03UeI0IxNA8U76xlyMC0dw02RGi6eujDzQKOaZFoDwBmqw8UyO2JRAi9fQJae4NflRaMR9/bDk3qDV3F6zfNs6YHYE3CNBkb1A1ZnsClFmH2ToKqY9riy2P7Jg2+DiaBtMQCHZvH1+sAIF3CNBk73A1ah8EYuaeJictspFouFjINh7r3ZNlZKZ8jObuI65YBQJvEaDJ3iJr3H4IxIA+ZbqaclPBZCdbizaNmiwWTnp5NRyBaOh+4omVIPAeAZrsPbZG7o7Ax0w/XMZadsExVS9LYPqNBxN3F0QsCIE3CdBkb9I1dpcEpPMJ0jkjTmDE3S1Ey3YZPCwKgXcJ0GTv8jV6zwRC9N9NDCo7JxAzd+frtLzrBIJNe44Y1obA2wRosrcJG793ArL79azZT0tW68cWD1cSTdl7pLA+BN4nQJO9z9gMgxAIueFhgtG9DoGYyOtMZ5Y3CAQjDhIeLBOBGgRoshqUzTEQAcn+jexbfExmKo602oDRdgOFBUtFoA4BmqwOZ7OMRyBmjmq5ykTXCbDOdVadtIwmGy8WWDECtQjQZLVIm2dMAjGR+PVXnaT2sIxol65WZTFbAtFS//zzz5gxwKoRqEeAJqvH2kxDE4ipZZt11NQnwBz1mX87Y7TR0Aff4hGoSYAmq0nbXDMQiJnm2xSl/XUCH28ln1jh4+DX13m7ZVj/r1+/4kaOCrenaNUxbmSG024PCNQlQJPV5W22iQjE3NMq+a087yjwT9YZXk0jy+JOJzritoJAbQI0WW3i5puMQExFPdy+rKPSIvZ+tnxlSbFN6i1p5W65nz1uV5IueLKjbTsI1CdAk9VnbsY5CaTJaZu61JQlEGmXHfbb0eIyvi2kE33smzbupJyuec7zbFcItCBAk7Wgbs7ZCcSM1UkGnW8ZPRCOa4iFlHOs3C2kLT9+fJk1bvgY9zL7CbY/BNoQoMnacDfrIgRiDks/q2qYU6eZOoJtuKO4hljIFhPrt4XrLZt7Trr4RY6tbSLQigBN1oq8edcikCa2LB97vEEg8rzRt1SXuIZYyEaO9dvC9Zahb9a+wmO65rXOqt0i0I4ATdaOvZkXJtAq0VbI5XWmiIqhznS7s8Q1xELWLNZvC9dbhr5Z+/cew3QLH01bR6AlAZqsJX1zL04gTdXvZdkpR47oGu4uriEWssXE+t1C2ni3QVqZNi5eTida/EjaPgJtCdBkbfmbHYF/CaR5sXjSnW/AiKvh1uIa0kK6nrR+W77XMu31pJyuxyFEAIFOCNBknRjCMhD4l0CaLJ8k3aH7RghHu/jY4Khj2fq4jFhIx4+Vu4UrLdM2RcrpShw5BBDojQBN1ptFrAeBPwRCBv35+Wn+w3fFBUEqDq6UswXELll95ce4jFhIFxArvy2kgzwvh3/8O6zhj28pIYBAfwRosv5sYkUI7BHI8vrzVN3zCHGzu4uMb5tL1XQloRwXHF/Fmm3hSpttr481cdhQ2PMmdQgg0CMBmqxHq1gTAh8JpHn3Y5KerEE/e09XEsrpL4BNsceWaWXBchw/3Ip99B8NEECgQwI0WYdGsSQEviOQ5uPmV0cFdcbRUOl+j9rUqU9Xsi2/uoZsuu88RmsEEOiSAE3WpVksCoG7BLJUPaVES/f4qu65OHgdyOmuQ/muj+iHAAKdEqDJOjWMZSFQisA2l1+UGt02S3fU7SIfLizdIwVW6iwYB4HOCdBknRvI8hAoTGCb7B+qh/rd0y3Un/2lGdNNEWGFnd5wCAxCgCYbxFCWicA7BLZSINS8pDyKDJuuuciAlQdJ15+W37GwURFAYBgCNNkwprJQBKoRSIVCWq6sXY6m63BJV5aaLruaKU2EAAIDEaDJBjKWpSLQmEBQFeF32KYKo86X3KPuSaeOlQ0L6XoyRI0NZnoEEBiKAE02lLksFoFeCWx1Sawp/u8QxJHraMH09+CnU8dyrzaxLgQQGIwATTaYwSwXgREJRPlypZDew+3efqWD7DY4qowd0yli5UlhRObWjAACwxGgyYYzmQUjsASBE4WUvkpZpPUn5bSLMgIIINAPAZqsH1tYCQIIIIAAAgisS4AmW9f2do4AAggggAAC/RCgyfqxhZUggAACCCCAwLoEaLJ1bW/nCCCAAAIIINAPAZqsH1tYCQIIIIAAAgisS+D/AQw/2NKzMZPwAAAAAElFTkSuQmCC;" parent="1" vertex="1">
          <mxGeometry x="2606" y="-1022" width="817" height="824" as="geometry" />
        </mxCell>
        <mxCell id="9vK3srHALebkL6iaKBqt-8" value="" style="rounded=1;whiteSpace=wrap;html=1;fillColor=none;strokeWidth=2;strokeColor=#FFFFFF;" parent="1" vertex="1">
          <mxGeometry x="2794.75" y="-696.75" width="439.5" height="173.5" as="geometry" />
        </mxCell>
        <mxCell id="pdDi6k7Y1tWrQhEmMbj3-1" value="" style="rounded=0;whiteSpace=wrap;html=1;" parent="1" vertex="1">
          <mxGeometry x="3263" y="290" width="120" height="445" as="geometry" />
        </mxCell>
        <mxCell id="cygzcmpLsrVy6WZKYC0e-9" style="rounded=0;orthogonalLoop=1;jettySize=auto;html=1;entryX=0;entryY=0;entryDx=0;entryDy=0;fillColor=#f8cecc;strokeColor=#b85450;strokeWidth=3;" parent="1" source="cygzcmpLsrVy6WZKYC0e-1" target="cygzcmpLsrVy6WZKYC0e-2" edge="1">
          <mxGeometry relative="1" as="geometry" />
        </mxCell>
        <mxCell id="cygzcmpLsrVy6WZKYC0e-20" style="edgeStyle=none;rounded=0;orthogonalLoop=1;jettySize=auto;html=1;entryX=0;entryY=0.5;entryDx=0;entryDy=0;fillColor=#d5e8d4;strokeColor=#82b366;strokeWidth=3;" parent="1" source="cygzcmpLsrVy6WZKYC0e-1" target="cygzcmpLsrVy6WZKYC0e-5" edge="1">
          <mxGeometry relative="1" as="geometry" />
        </mxCell>
        <mxCell id="cygzcmpLsrVy6WZKYC0e-1" value="" style="ellipse;whiteSpace=wrap;html=1;aspect=fixed;strokeColor=none;fillColor=#82B366;" parent="1" vertex="1">
          <mxGeometry x="400" y="520" width="80" height="80" as="geometry" />
        </mxCell>
        <mxCell id="cygzcmpLsrVy6WZKYC0e-18" style="edgeStyle=none;rounded=0;orthogonalLoop=1;jettySize=auto;html=1;entryX=0;entryY=1;entryDx=0;entryDy=0;fillColor=#dae8fc;strokeColor=#6c8ebf;strokeWidth=3;" parent="1" source="cygzcmpLsrVy6WZKYC0e-2" target="cygzcmpLsrVy6WZKYC0e-3" edge="1">
          <mxGeometry relative="1" as="geometry" />
        </mxCell>
        <mxCell id="cygzcmpLsrVy6WZKYC0e-2" value="" style="ellipse;whiteSpace=wrap;html=1;aspect=fixed;strokeColor=#b85450;fillColor=none;strokeWidth=3;" parent="1" vertex="1">
          <mxGeometry x="480" y="680" width="80" height="80" as="geometry" />
        </mxCell>
        <mxCell id="cygzcmpLsrVy6WZKYC0e-19" style="edgeStyle=none;rounded=0;orthogonalLoop=1;jettySize=auto;html=1;entryX=0;entryY=1;entryDx=0;entryDy=0;fillColor=#d5e8d4;strokeColor=#82b366;strokeWidth=3;" parent="1" source="cygzcmpLsrVy6WZKYC0e-3" target="cygzcmpLsrVy6WZKYC0e-5" edge="1">
          <mxGeometry relative="1" as="geometry" />
        </mxCell>
        <mxCell id="cygzcmpLsrVy6WZKYC0e-3" value="" style="ellipse;whiteSpace=wrap;html=1;aspect=fixed;strokeColor=none;fillColor=#6C8EBF;" parent="1" vertex="1">
          <mxGeometry x="600" y="600" width="80" height="80" as="geometry" />
        </mxCell>
        <mxCell id="cygzcmpLsrVy6WZKYC0e-13" style="edgeStyle=none;rounded=0;orthogonalLoop=1;jettySize=auto;html=1;entryX=0;entryY=0;entryDx=0;entryDy=0;fillColor=#f8cecc;strokeColor=#b85450;strokeWidth=3;" parent="1" source="cygzcmpLsrVy6WZKYC0e-5" target="cygzcmpLsrVy6WZKYC0e-6" edge="1">
          <mxGeometry relative="1" as="geometry" />
        </mxCell>
        <mxCell id="cygzcmpLsrVy6WZKYC0e-21" style="edgeStyle=none;rounded=0;orthogonalLoop=1;jettySize=auto;html=1;fillColor=#d5e8d4;strokeColor=#82b366;strokeWidth=3;" parent="1" source="cygzcmpLsrVy6WZKYC0e-5" target="cygzcmpLsrVy6WZKYC0e-8" edge="1">
          <mxGeometry relative="1" as="geometry" />
        </mxCell>
        <mxCell id="cygzcmpLsrVy6WZKYC0e-5" value="" style="ellipse;whiteSpace=wrap;html=1;aspect=fixed;strokeColor=none;fillColor=#82B366;" parent="1" vertex="1">
          <mxGeometry x="720" y="520" width="80" height="80" as="geometry" />
        </mxCell>
        <mxCell id="cygzcmpLsrVy6WZKYC0e-16" style="edgeStyle=none;rounded=0;orthogonalLoop=1;jettySize=auto;html=1;entryX=0;entryY=1;entryDx=0;entryDy=0;fillColor=#dae8fc;strokeColor=#6c8ebf;strokeWidth=3;" parent="1" source="cygzcmpLsrVy6WZKYC0e-6" target="cygzcmpLsrVy6WZKYC0e-7" edge="1">
          <mxGeometry relative="1" as="geometry" />
        </mxCell>
        <mxCell id="cygzcmpLsrVy6WZKYC0e-6" value="" style="ellipse;whiteSpace=wrap;html=1;aspect=fixed;strokeColor=#b85450;fillColor=none;strokeWidth=3;" parent="1" vertex="1">
          <mxGeometry x="800" y="680" width="80" height="80" as="geometry" />
        </mxCell>
        <mxCell id="cygzcmpLsrVy6WZKYC0e-17" style="edgeStyle=none;rounded=0;orthogonalLoop=1;jettySize=auto;html=1;entryX=0;entryY=1;entryDx=0;entryDy=0;fillColor=#d5e8d4;strokeColor=#82b366;strokeWidth=3;" parent="1" source="cygzcmpLsrVy6WZKYC0e-7" target="cygzcmpLsrVy6WZKYC0e-8" edge="1">
          <mxGeometry relative="1" as="geometry" />
        </mxCell>
        <mxCell id="cygzcmpLsrVy6WZKYC0e-7" value="" style="ellipse;whiteSpace=wrap;html=1;aspect=fixed;strokeColor=none;fillColor=#6C8EBF;" parent="1" vertex="1">
          <mxGeometry x="920" y="600" width="80" height="80" as="geometry" />
        </mxCell>
        <mxCell id="cygzcmpLsrVy6WZKYC0e-22" style="edgeStyle=none;rounded=0;orthogonalLoop=1;jettySize=auto;html=1;strokeWidth=3;fillColor=#d5e8d4;strokeColor=#82b366;" parent="1" source="cygzcmpLsrVy6WZKYC0e-8" edge="1">
          <mxGeometry relative="1" as="geometry">
            <mxPoint x="1170" y="560" as="targetPoint" />
          </mxGeometry>
        </mxCell>
        <mxCell id="cygzcmpLsrVy6WZKYC0e-8" value="" style="ellipse;whiteSpace=wrap;html=1;aspect=fixed;strokeColor=none;fillColor=#82B366;" parent="1" vertex="1">
          <mxGeometry x="1040" y="520" width="80" height="80" as="geometry" />
        </mxCell>
        <mxCell id="cygzcmpLsrVy6WZKYC0e-23" style="edgeStyle=none;rounded=0;orthogonalLoop=1;jettySize=auto;html=1;strokeWidth=3;fillColor=#d5e8d4;strokeColor=#82b366;" parent="1" edge="1">
          <mxGeometry relative="1" as="geometry">
            <mxPoint x="400" y="559.17" as="targetPoint" />
            <mxPoint x="350" y="559.17" as="sourcePoint" />
          </mxGeometry>
        </mxCell>
        <mxCell id="cygzcmpLsrVy6WZKYC0e-24" value="&lt;font style=&quot;font-size: 30px&quot; color=&quot;#82b366&quot;&gt;state&lt;/font&gt;" style="text;html=1;strokeColor=none;fillColor=none;align=center;verticalAlign=middle;whiteSpace=wrap;rounded=0;" parent="1" vertex="1">
          <mxGeometry x="280" y="550" width="40" height="20" as="geometry" />
        </mxCell>
        <mxCell id="cygzcmpLsrVy6WZKYC0e-26" value="&lt;span style=&quot;font-size: 30px&quot;&gt;&lt;font color=&quot;#6c8ebf&quot;&gt;action&lt;/font&gt;&lt;/span&gt;" style="text;html=1;strokeColor=none;fillColor=none;align=center;verticalAlign=middle;whiteSpace=wrap;rounded=0;" parent="1" vertex="1">
          <mxGeometry x="287" y="630" width="40" height="20" as="geometry" />
        </mxCell>
        <mxCell id="cygzcmpLsrVy6WZKYC0e-27" value="&lt;span style=&quot;font-size: 30px&quot;&gt;&lt;font color=&quot;#b85450&quot;&gt;observation&lt;/font&gt;&lt;/span&gt;" style="text;html=1;strokeColor=none;fillColor=none;align=center;verticalAlign=middle;whiteSpace=wrap;rounded=0;" parent="1" vertex="1">
          <mxGeometry x="325" y="710" width="40" height="20" as="geometry" />
        </mxCell>
        <mxCell id="cygzcmpLsrVy6WZKYC0e-35" style="edgeStyle=none;rounded=0;orthogonalLoop=1;jettySize=auto;html=1;entryX=0.5;entryY=0;entryDx=0;entryDy=0;strokeWidth=3;" parent="1" source="cygzcmpLsrVy6WZKYC0e-27" target="cygzcmpLsrVy6WZKYC0e-27" edge="1">
          <mxGeometry relative="1" as="geometry" />
        </mxCell>
        <mxCell id="VxEENUbsBkE_jdYZC9L_-3" style="edgeStyle=orthogonalEdgeStyle;rounded=0;orthogonalLoop=1;jettySize=auto;html=1;" parent="1" source="VxEENUbsBkE_jdYZC9L_-1" edge="1">
          <mxGeometry relative="1" as="geometry">
            <mxPoint x="480" y="160" as="targetPoint" />
          </mxGeometry>
        </mxCell>
        <mxCell id="VxEENUbsBkE_jdYZC9L_-1" value="" style="ellipse;whiteSpace=wrap;html=1;aspect=fixed;strokeColor=none;fillColor=#82B366;" parent="1" vertex="1">
          <mxGeometry x="200" y="120" width="80" height="80" as="geometry" />
        </mxCell>
        <mxCell id="VxEENUbsBkE_jdYZC9L_-6" style="edgeStyle=orthogonalEdgeStyle;rounded=0;orthogonalLoop=1;jettySize=auto;html=1;" parent="1" source="VxEENUbsBkE_jdYZC9L_-2" edge="1">
          <mxGeometry relative="1" as="geometry">
            <mxPoint x="480" y="280" as="targetPoint" />
          </mxGeometry>
        </mxCell>
        <mxCell id="VxEENUbsBkE_jdYZC9L_-2" value="" style="ellipse;whiteSpace=wrap;html=1;aspect=fixed;strokeColor=none;fillColor=#6C8EBF;" parent="1" vertex="1">
          <mxGeometry x="200" y="240" width="80" height="80" as="geometry" />
        </mxCell>
        <mxCell id="VxEENUbsBkE_jdYZC9L_-7" value="&lt;span style=&quot;color: rgb(0 , 0 , 0) ; font-family: &amp;#34;helvetica&amp;#34; ; font-style: normal ; font-weight: 400 ; letter-spacing: normal ; text-align: center ; text-indent: 0px ; text-transform: none ; word-spacing: 0px ; background-color: rgb(248 , 249 , 250) ; display: inline ; float: none&quot;&gt;&lt;font style=&quot;font-size: 20px&quot;&gt;Gaussian Sampling&lt;/font&gt;&lt;/span&gt;" style="text;whiteSpace=wrap;html=1;" parent="1" vertex="1">
          <mxGeometry x="287" y="120" width="240" height="30" as="geometry" />
        </mxCell>
        <mxCell id="VxEENUbsBkE_jdYZC9L_-8" value="&lt;font style=&quot;font-size: 17px&quot;&gt;OUTPUT LAYER&lt;/font&gt;" style="text;html=1;strokeColor=none;fillColor=none;align=center;verticalAlign=middle;whiteSpace=wrap;rounded=0;" parent="1" vertex="1">
          <mxGeometry x="220" y="70" width="40" height="20" as="geometry" />
        </mxCell>
        <mxCell id="VxEENUbsBkE_jdYZC9L_-9" value="&lt;div style=&quot;text-align: center&quot;&gt;&lt;font style=&quot;font-size: 20px&quot;&gt;Epsilon Greedy&lt;/font&gt;&lt;/div&gt;" style="text;whiteSpace=wrap;html=1;" parent="1" vertex="1">
          <mxGeometry x="310" y="240" width="240" height="30" as="geometry" />
        </mxCell>
        <mxCell id="VxEENUbsBkE_jdYZC9L_-11" value="ACTION&lt;span style=&quot;color: rgba(0 , 0 , 0 , 0) ; font-family: monospace ; font-size: 0px&quot;&gt;%3CmxGraphModel%3E%3Croot%3E%3CmxCell%20id%3D%220%22%2F%3E%3CmxCell%20id%3D%221%22%20parent%3D%220%22%2F%3E%3CmxCell%20id%3D%222%22%20value%3D%22%22%20style%3D%22ellipse%3BwhiteSpace%3Dwrap%3Bhtml%3D1%3Baspect%3Dfixed%3BstrokeColor%3Dnone%3BfillColor%3D%2382B366%3B%22%20vertex%3D%221%22%20parent%3D%221%22%3E%3CmxGeometry%20x%3D%22200%22%20y%3D%22120%22%20width%3D%2280%22%20height%3D%2280%22%20as%3D%22geometry%22%2F%3E%3C%2FmxCell%3E%3C%2Froot%3E%3C%2FmxGraphModel%3E&lt;/span&gt;" style="ellipse;whiteSpace=wrap;html=1;aspect=fixed;strokeColor=#d79b00;fillColor=#ffe6cc;" parent="1" vertex="1">
          <mxGeometry x="480" y="120" width="80" height="80" as="geometry" />
        </mxCell>
        <mxCell id="VxEENUbsBkE_jdYZC9L_-12" value="ACTION&lt;span style=&quot;color: rgba(0 , 0 , 0 , 0) ; font-family: monospace ; font-size: 0px&quot;&gt;%3CmxGraphModel%3E%3Croot%3E%3CmxCell%20id%3D%220%22%2F%3E%3CmxCell%20id%3D%221%22%20parent%3D%220%22%2F%3E%3CmxCell%20id%3D%222%22%20value%3D%22%22%20style%3D%22ellipse%3BwhiteSpace%3Dwrap%3Bhtml%3D1%3Baspect%3Dfixed%3BstrokeColor%3Dnone%3BfillColor%3D%2382B366%3B%22%20vertex%3D%221%22%20parent%3D%221%22%3E%3CmxGeometry%20x%3D%22200%22%20y%3D%22120%22%20width%3D%2280%22%20height%3D%2280%22%20as%3D%22geometry%22%2F%3E%3C%2FmxCell%3E%3C%2Froot%3E%3C%2FmxGraphModel%3E&lt;/span&gt;" style="ellipse;whiteSpace=wrap;html=1;aspect=fixed;strokeColor=#d79b00;fillColor=#ffe6cc;" parent="1" vertex="1">
          <mxGeometry x="480" y="240" width="80" height="80" as="geometry" />
        </mxCell>
        <mxCell id="l2JFm-4QCezU0gFR-i_Y-20" style="rounded=0;orthogonalLoop=1;jettySize=auto;html=1;entryX=0;entryY=0.5;entryDx=0;entryDy=0;strokeColor=#9673a6;exitX=1;exitY=0.5;exitDx=0;exitDy=0;fillColor=#e1d5e7;" parent="1" source="l2JFm-4QCezU0gFR-i_Y-1" target="l2JFm-4QCezU0gFR-i_Y-11" edge="1">
          <mxGeometry relative="1" as="geometry" />
        </mxCell>
        <mxCell id="l2JFm-4QCezU0gFR-i_Y-21" style="edgeStyle=none;rounded=0;orthogonalLoop=1;jettySize=auto;html=1;entryX=0;entryY=0.5;entryDx=0;entryDy=0;strokeColor=#9673a6;fillColor=#e1d5e7;" parent="1" source="l2JFm-4QCezU0gFR-i_Y-1" target="l2JFm-4QCezU0gFR-i_Y-10" edge="1">
          <mxGeometry relative="1" as="geometry" />
        </mxCell>
        <mxCell id="l2JFm-4QCezU0gFR-i_Y-22" style="edgeStyle=none;rounded=0;orthogonalLoop=1;jettySize=auto;html=1;entryX=0;entryY=0.5;entryDx=0;entryDy=0;strokeColor=#9673a6;exitX=1;exitY=0.5;exitDx=0;exitDy=0;fillColor=#e1d5e7;" parent="1" source="l2JFm-4QCezU0gFR-i_Y-1" target="l2JFm-4QCezU0gFR-i_Y-13" edge="1">
          <mxGeometry relative="1" as="geometry" />
        </mxCell>
        <mxCell id="l2JFm-4QCezU0gFR-i_Y-23" style="edgeStyle=none;rounded=0;orthogonalLoop=1;jettySize=auto;html=1;entryX=0;entryY=0.5;entryDx=0;entryDy=0;strokeColor=#9673a6;exitX=1;exitY=0.5;exitDx=0;exitDy=0;fillColor=#e1d5e7;" parent="1" source="l2JFm-4QCezU0gFR-i_Y-1" target="l2JFm-4QCezU0gFR-i_Y-12" edge="1">
          <mxGeometry relative="1" as="geometry" />
        </mxCell>
        <mxCell id="l2JFm-4QCezU0gFR-i_Y-1" value="" style="ellipse;whiteSpace=wrap;html=1;aspect=fixed;strokeColor=#b85450;fillColor=none;strokeWidth=3;" parent="1" vertex="1">
          <mxGeometry x="240" y="-880" width="80" height="80" as="geometry" />
        </mxCell>
        <mxCell id="l2JFm-4QCezU0gFR-i_Y-26" style="edgeStyle=none;rounded=0;orthogonalLoop=1;jettySize=auto;html=1;entryX=0;entryY=0.5;entryDx=0;entryDy=0;strokeColor=#9673a6;exitX=1;exitY=0.5;exitDx=0;exitDy=0;fillColor=#e1d5e7;" parent="1" source="l2JFm-4QCezU0gFR-i_Y-2" target="l2JFm-4QCezU0gFR-i_Y-11" edge="1">
          <mxGeometry relative="1" as="geometry" />
        </mxCell>
        <mxCell id="l2JFm-4QCezU0gFR-i_Y-27" style="edgeStyle=none;rounded=0;orthogonalLoop=1;jettySize=auto;html=1;entryX=0;entryY=0.5;entryDx=0;entryDy=0;strokeColor=#9673a6;exitX=1;exitY=0.5;exitDx=0;exitDy=0;fillColor=#e1d5e7;" parent="1" source="l2JFm-4QCezU0gFR-i_Y-2" target="l2JFm-4QCezU0gFR-i_Y-10" edge="1">
          <mxGeometry relative="1" as="geometry">
            <mxPoint x="380" y="-600" as="sourcePoint" />
          </mxGeometry>
        </mxCell>
        <mxCell id="l2JFm-4QCezU0gFR-i_Y-28" style="edgeStyle=none;rounded=0;orthogonalLoop=1;jettySize=auto;html=1;entryX=0;entryY=0.5;entryDx=0;entryDy=0;strokeColor=#9673a6;exitX=1;exitY=0.5;exitDx=0;exitDy=0;fillColor=#e1d5e7;" parent="1" source="l2JFm-4QCezU0gFR-i_Y-2" target="l2JFm-4QCezU0gFR-i_Y-13" edge="1">
          <mxGeometry relative="1" as="geometry" />
        </mxCell>
        <mxCell id="l2JFm-4QCezU0gFR-i_Y-29" style="edgeStyle=none;rounded=0;orthogonalLoop=1;jettySize=auto;html=1;entryX=0;entryY=0.5;entryDx=0;entryDy=0;strokeColor=#9673a6;exitX=1;exitY=0.5;exitDx=0;exitDy=0;fillColor=#e1d5e7;" parent="1" source="l2JFm-4QCezU0gFR-i_Y-2" target="l2JFm-4QCezU0gFR-i_Y-12" edge="1">
          <mxGeometry relative="1" as="geometry" />
        </mxCell>
        <mxCell id="l2JFm-4QCezU0gFR-i_Y-2" value="" style="ellipse;whiteSpace=wrap;html=1;aspect=fixed;strokeColor=#b85450;fillColor=none;strokeWidth=3;" parent="1" vertex="1">
          <mxGeometry x="240" y="-650" width="80" height="80" as="geometry" />
        </mxCell>
        <mxCell id="l2JFm-4QCezU0gFR-i_Y-34" style="edgeStyle=none;rounded=0;orthogonalLoop=1;jettySize=auto;html=1;entryX=0;entryY=0.5;entryDx=0;entryDy=0;strokeColor=#9673a6;exitX=1;exitY=0.5;exitDx=0;exitDy=0;fillColor=#e1d5e7;" parent="1" source="l2JFm-4QCezU0gFR-i_Y-3" target="l2JFm-4QCezU0gFR-i_Y-12" edge="1">
          <mxGeometry relative="1" as="geometry" />
        </mxCell>
        <mxCell id="l2JFm-4QCezU0gFR-i_Y-35" style="edgeStyle=none;rounded=0;orthogonalLoop=1;jettySize=auto;html=1;entryX=0;entryY=0.5;entryDx=0;entryDy=0;strokeColor=#9673a6;exitX=1;exitY=0.5;exitDx=0;exitDy=0;fillColor=#e1d5e7;" parent="1" source="l2JFm-4QCezU0gFR-i_Y-3" target="l2JFm-4QCezU0gFR-i_Y-13" edge="1">
          <mxGeometry relative="1" as="geometry" />
        </mxCell>
        <mxCell id="l2JFm-4QCezU0gFR-i_Y-36" style="edgeStyle=none;rounded=0;orthogonalLoop=1;jettySize=auto;html=1;entryX=0;entryY=0.5;entryDx=0;entryDy=0;strokeColor=#9673a6;exitX=1;exitY=0.5;exitDx=0;exitDy=0;fillColor=#e1d5e7;" parent="1" source="l2JFm-4QCezU0gFR-i_Y-3" target="l2JFm-4QCezU0gFR-i_Y-10" edge="1">
          <mxGeometry relative="1" as="geometry">
            <mxPoint x="390" y="-480" as="sourcePoint" />
          </mxGeometry>
        </mxCell>
        <mxCell id="l2JFm-4QCezU0gFR-i_Y-37" style="edgeStyle=none;rounded=0;orthogonalLoop=1;jettySize=auto;html=1;entryX=0;entryY=0.5;entryDx=0;entryDy=0;strokeColor=#9673a6;exitX=1;exitY=0.5;exitDx=0;exitDy=0;fillColor=#e1d5e7;" parent="1" source="l2JFm-4QCezU0gFR-i_Y-3" target="l2JFm-4QCezU0gFR-i_Y-11" edge="1">
          <mxGeometry relative="1" as="geometry" />
        </mxCell>
        <mxCell id="l2JFm-4QCezU0gFR-i_Y-3" value="" style="ellipse;whiteSpace=wrap;html=1;aspect=fixed;strokeWidth=3;strokeColor=#FFB570;fillColor=#FFB570;" parent="1" vertex="1">
          <mxGeometry x="240" y="-520" width="80" height="80" as="geometry" />
        </mxCell>
        <mxCell id="l2JFm-4QCezU0gFR-i_Y-30" style="edgeStyle=none;rounded=0;orthogonalLoop=1;jettySize=auto;html=1;entryX=0;entryY=0.5;entryDx=0;entryDy=0;strokeColor=#9673a6;exitX=1;exitY=0.5;exitDx=0;exitDy=0;fillColor=#e1d5e7;" parent="1" source="l2JFm-4QCezU0gFR-i_Y-4" target="l2JFm-4QCezU0gFR-i_Y-12" edge="1">
          <mxGeometry relative="1" as="geometry" />
        </mxCell>
        <mxCell id="l2JFm-4QCezU0gFR-i_Y-31" style="edgeStyle=none;rounded=0;orthogonalLoop=1;jettySize=auto;html=1;entryX=0;entryY=0.5;entryDx=0;entryDy=0;strokeColor=#9673a6;fillColor=#e1d5e7;" parent="1" source="l2JFm-4QCezU0gFR-i_Y-4" target="l2JFm-4QCezU0gFR-i_Y-13" edge="1">
          <mxGeometry relative="1" as="geometry" />
        </mxCell>
        <mxCell id="l2JFm-4QCezU0gFR-i_Y-32" style="edgeStyle=none;rounded=0;orthogonalLoop=1;jettySize=auto;html=1;entryX=0;entryY=0.5;entryDx=0;entryDy=0;strokeColor=#9673a6;exitX=1;exitY=0.5;exitDx=0;exitDy=0;fillColor=#e1d5e7;" parent="1" source="l2JFm-4QCezU0gFR-i_Y-4" target="l2JFm-4QCezU0gFR-i_Y-10" edge="1">
          <mxGeometry relative="1" as="geometry" />
        </mxCell>
        <mxCell id="l2JFm-4QCezU0gFR-i_Y-33" style="edgeStyle=none;rounded=0;orthogonalLoop=1;jettySize=auto;html=1;entryX=0;entryY=0.5;entryDx=0;entryDy=0;strokeColor=#9673a6;exitX=1;exitY=0.5;exitDx=0;exitDy=0;fillColor=#e1d5e7;" parent="1" source="l2JFm-4QCezU0gFR-i_Y-4" target="l2JFm-4QCezU0gFR-i_Y-11" edge="1">
          <mxGeometry relative="1" as="geometry" />
        </mxCell>
        <mxCell id="l2JFm-4QCezU0gFR-i_Y-4" value="" style="ellipse;whiteSpace=wrap;html=1;aspect=fixed;strokeWidth=3;strokeColor=#FFB570;fillColor=#FFB570;" parent="1" vertex="1">
          <mxGeometry x="240" y="-400" width="80" height="80" as="geometry" />
        </mxCell>
        <mxCell id="l2JFm-4QCezU0gFR-i_Y-5" value="" style="endArrow=none;html=1;strokeColor=#FFB570;" parent="1" edge="1">
          <mxGeometry width="50" height="50" relative="1" as="geometry">
            <mxPoint x="340" y="-510" as="sourcePoint" />
            <mxPoint x="220" y="-510" as="targetPoint" />
            <Array as="points">
              <mxPoint x="340" y="-530" />
              <mxPoint x="280" y="-530" />
              <mxPoint x="220" y="-530" />
            </Array>
          </mxGeometry>
        </mxCell>
        <mxCell id="l2JFm-4QCezU0gFR-i_Y-6" value="" style="endArrow=none;html=1;strokeColor=#FFB570;" parent="1" edge="1">
          <mxGeometry width="50" height="50" relative="1" as="geometry">
            <mxPoint x="340" y="-330" as="sourcePoint" />
            <mxPoint x="220" y="-330" as="targetPoint" />
            <Array as="points">
              <mxPoint x="340" y="-310" />
              <mxPoint x="220" y="-310" />
            </Array>
          </mxGeometry>
        </mxCell>
        <mxCell id="l2JFm-4QCezU0gFR-i_Y-7" value="" style="endArrow=none;html=1;strokeColor=#B85450;" parent="1" edge="1">
          <mxGeometry width="50" height="50" relative="1" as="geometry">
            <mxPoint x="340" y="-870" as="sourcePoint" />
            <mxPoint x="220" y="-870" as="targetPoint" />
            <Array as="points">
              <mxPoint x="340" y="-890" />
              <mxPoint x="280" y="-890" />
              <mxPoint x="220" y="-890" />
            </Array>
          </mxGeometry>
        </mxCell>
        <mxCell id="l2JFm-4QCezU0gFR-i_Y-8" value="" style="endArrow=none;html=1;strokeColor=#B85450;" parent="1" edge="1">
          <mxGeometry width="50" height="50" relative="1" as="geometry">
            <mxPoint x="340" y="-580" as="sourcePoint" />
            <mxPoint x="220" y="-580" as="targetPoint" />
            <Array as="points">
              <mxPoint x="340" y="-560" />
              <mxPoint x="220" y="-560" />
            </Array>
          </mxGeometry>
        </mxCell>
        <mxCell id="l2JFm-4QCezU0gFR-i_Y-9" value="" style="endArrow=none;dashed=1;html=1;dashPattern=1 3;strokeWidth=2;strokeColor=#B85450;" parent="1" edge="1">
          <mxGeometry width="50" height="50" relative="1" as="geometry">
            <mxPoint x="280" y="-670" as="sourcePoint" />
            <mxPoint x="280" y="-790" as="targetPoint" />
          </mxGeometry>
        </mxCell>
        <mxCell id="l2JFm-4QCezU0gFR-i_Y-44" style="edgeStyle=none;rounded=0;orthogonalLoop=1;jettySize=auto;html=1;entryX=0;entryY=0.5;entryDx=0;entryDy=0;strokeColor=#9673a6;fillColor=#e1d5e7;" parent="1" source="l2JFm-4QCezU0gFR-i_Y-10" target="l2JFm-4QCezU0gFR-i_Y-14" edge="1">
          <mxGeometry relative="1" as="geometry" />
        </mxCell>
        <mxCell id="l2JFm-4QCezU0gFR-i_Y-45" style="edgeStyle=none;rounded=0;orthogonalLoop=1;jettySize=auto;html=1;entryX=0;entryY=0.5;entryDx=0;entryDy=0;strokeColor=#9673a6;exitX=1;exitY=0.5;exitDx=0;exitDy=0;fillColor=#e1d5e7;" parent="1" source="l2JFm-4QCezU0gFR-i_Y-10" target="l2JFm-4QCezU0gFR-i_Y-15" edge="1">
          <mxGeometry relative="1" as="geometry" />
        </mxCell>
        <mxCell id="l2JFm-4QCezU0gFR-i_Y-49" style="edgeStyle=none;rounded=0;orthogonalLoop=1;jettySize=auto;html=1;entryX=0;entryY=0.5;entryDx=0;entryDy=0;strokeColor=#9673a6;exitX=1;exitY=0.5;exitDx=0;exitDy=0;fillColor=#e1d5e7;" parent="1" source="l2JFm-4QCezU0gFR-i_Y-10" target="l2JFm-4QCezU0gFR-i_Y-17" edge="1">
          <mxGeometry relative="1" as="geometry" />
        </mxCell>
        <mxCell id="l2JFm-4QCezU0gFR-i_Y-50" style="edgeStyle=none;rounded=0;orthogonalLoop=1;jettySize=auto;html=1;entryX=0;entryY=0.5;entryDx=0;entryDy=0;strokeColor=#9673a6;exitX=1;exitY=0.5;exitDx=0;exitDy=0;fillColor=#e1d5e7;" parent="1" source="l2JFm-4QCezU0gFR-i_Y-10" target="l2JFm-4QCezU0gFR-i_Y-16" edge="1">
          <mxGeometry relative="1" as="geometry" />
        </mxCell>
        <mxCell id="l2JFm-4QCezU0gFR-i_Y-10" value="" style="ellipse;whiteSpace=wrap;html=1;aspect=fixed;fillColor=#e1d5e7;strokeWidth=3;strokeColor=none;" parent="1" vertex="1">
          <mxGeometry x="480" y="-880" width="80" height="80" as="geometry" />
        </mxCell>
        <mxCell id="l2JFm-4QCezU0gFR-i_Y-39" style="edgeStyle=none;rounded=0;orthogonalLoop=1;jettySize=auto;html=1;entryX=0;entryY=0.5;entryDx=0;entryDy=0;strokeColor=#9673a6;fillColor=#e1d5e7;" parent="1" source="l2JFm-4QCezU0gFR-i_Y-11" target="l2JFm-4QCezU0gFR-i_Y-15" edge="1">
          <mxGeometry relative="1" as="geometry" />
        </mxCell>
        <mxCell id="l2JFm-4QCezU0gFR-i_Y-40" style="edgeStyle=none;rounded=0;orthogonalLoop=1;jettySize=auto;html=1;entryX=0;entryY=0.5;entryDx=0;entryDy=0;strokeColor=#9673a6;exitX=1;exitY=0.5;exitDx=0;exitDy=0;fillColor=#e1d5e7;" parent="1" source="l2JFm-4QCezU0gFR-i_Y-11" target="l2JFm-4QCezU0gFR-i_Y-14" edge="1">
          <mxGeometry relative="1" as="geometry" />
        </mxCell>
        <mxCell id="l2JFm-4QCezU0gFR-i_Y-41" style="edgeStyle=none;rounded=0;orthogonalLoop=1;jettySize=auto;html=1;entryX=0;entryY=0.5;entryDx=0;entryDy=0;strokeColor=#9673a6;exitX=1;exitY=0.5;exitDx=0;exitDy=0;fillColor=#e1d5e7;" parent="1" source="l2JFm-4QCezU0gFR-i_Y-11" target="l2JFm-4QCezU0gFR-i_Y-17" edge="1">
          <mxGeometry relative="1" as="geometry" />
        </mxCell>
        <mxCell id="l2JFm-4QCezU0gFR-i_Y-43" style="edgeStyle=none;rounded=0;orthogonalLoop=1;jettySize=auto;html=1;entryX=0;entryY=0.5;entryDx=0;entryDy=0;strokeColor=#9673a6;exitX=1;exitY=0.5;exitDx=0;exitDy=0;fillColor=#e1d5e7;" parent="1" source="l2JFm-4QCezU0gFR-i_Y-11" target="l2JFm-4QCezU0gFR-i_Y-16" edge="1">
          <mxGeometry relative="1" as="geometry" />
        </mxCell>
        <mxCell id="l2JFm-4QCezU0gFR-i_Y-11" value="" style="ellipse;whiteSpace=wrap;html=1;aspect=fixed;fillColor=#e1d5e7;strokeWidth=3;strokeColor=none;" parent="1" vertex="1">
          <mxGeometry x="480" y="-1000" width="80" height="80" as="geometry" />
        </mxCell>
        <mxCell id="l2JFm-4QCezU0gFR-i_Y-47" style="edgeStyle=none;rounded=0;orthogonalLoop=1;jettySize=auto;html=1;entryX=0;entryY=0.5;entryDx=0;entryDy=0;strokeColor=#9673a6;fillColor=#e1d5e7;" parent="1" source="l2JFm-4QCezU0gFR-i_Y-12" target="l2JFm-4QCezU0gFR-i_Y-16" edge="1">
          <mxGeometry relative="1" as="geometry" />
        </mxCell>
        <mxCell id="l2JFm-4QCezU0gFR-i_Y-48" style="edgeStyle=none;rounded=0;orthogonalLoop=1;jettySize=auto;html=1;entryX=0;entryY=0.5;entryDx=0;entryDy=0;strokeColor=#9673a6;exitX=1;exitY=0.5;exitDx=0;exitDy=0;fillColor=#e1d5e7;" parent="1" source="l2JFm-4QCezU0gFR-i_Y-12" target="l2JFm-4QCezU0gFR-i_Y-17" edge="1">
          <mxGeometry relative="1" as="geometry" />
        </mxCell>
        <mxCell id="l2JFm-4QCezU0gFR-i_Y-54" style="edgeStyle=none;rounded=0;orthogonalLoop=1;jettySize=auto;html=1;entryX=0;entryY=0.5;entryDx=0;entryDy=0;strokeColor=#9673a6;exitX=1;exitY=0.5;exitDx=0;exitDy=0;fillColor=#e1d5e7;" parent="1" source="l2JFm-4QCezU0gFR-i_Y-12" target="l2JFm-4QCezU0gFR-i_Y-14" edge="1">
          <mxGeometry relative="1" as="geometry" />
        </mxCell>
        <mxCell id="l2JFm-4QCezU0gFR-i_Y-55" style="edgeStyle=none;rounded=0;orthogonalLoop=1;jettySize=auto;html=1;entryX=0;entryY=0.5;entryDx=0;entryDy=0;strokeColor=#9673a6;exitX=1;exitY=0.5;exitDx=0;exitDy=0;fillColor=#e1d5e7;" parent="1" source="l2JFm-4QCezU0gFR-i_Y-12" target="l2JFm-4QCezU0gFR-i_Y-15" edge="1">
          <mxGeometry relative="1" as="geometry" />
        </mxCell>
        <mxCell id="l2JFm-4QCezU0gFR-i_Y-12" value="" style="ellipse;whiteSpace=wrap;html=1;aspect=fixed;fillColor=#e1d5e7;strokeWidth=3;strokeColor=none;" parent="1" vertex="1">
          <mxGeometry x="480" y="-280" width="80" height="80" as="geometry" />
        </mxCell>
        <mxCell id="l2JFm-4QCezU0gFR-i_Y-46" style="edgeStyle=none;rounded=0;orthogonalLoop=1;jettySize=auto;html=1;entryX=0;entryY=0.5;entryDx=0;entryDy=0;strokeColor=#9673a6;fillColor=#e1d5e7;" parent="1" source="l2JFm-4QCezU0gFR-i_Y-13" target="l2JFm-4QCezU0gFR-i_Y-17" edge="1">
          <mxGeometry relative="1" as="geometry" />
        </mxCell>
        <mxCell id="l2JFm-4QCezU0gFR-i_Y-51" style="edgeStyle=none;rounded=0;orthogonalLoop=1;jettySize=auto;html=1;entryX=0;entryY=0.5;entryDx=0;entryDy=0;strokeColor=#9673a6;exitX=1;exitY=0.5;exitDx=0;exitDy=0;fillColor=#e1d5e7;" parent="1" source="l2JFm-4QCezU0gFR-i_Y-13" target="l2JFm-4QCezU0gFR-i_Y-16" edge="1">
          <mxGeometry relative="1" as="geometry" />
        </mxCell>
        <mxCell id="l2JFm-4QCezU0gFR-i_Y-52" style="edgeStyle=none;rounded=0;orthogonalLoop=1;jettySize=auto;html=1;entryX=0;entryY=0.5;entryDx=0;entryDy=0;strokeColor=#9673a6;exitX=1;exitY=0.5;exitDx=0;exitDy=0;fillColor=#e1d5e7;" parent="1" source="l2JFm-4QCezU0gFR-i_Y-13" target="l2JFm-4QCezU0gFR-i_Y-14" edge="1">
          <mxGeometry relative="1" as="geometry" />
        </mxCell>
        <mxCell id="l2JFm-4QCezU0gFR-i_Y-53" style="edgeStyle=none;rounded=0;orthogonalLoop=1;jettySize=auto;html=1;entryX=0;entryY=0.5;entryDx=0;entryDy=0;strokeColor=#9673a6;exitX=1;exitY=0.5;exitDx=0;exitDy=0;fillColor=#e1d5e7;" parent="1" source="l2JFm-4QCezU0gFR-i_Y-13" target="l2JFm-4QCezU0gFR-i_Y-15" edge="1">
          <mxGeometry relative="1" as="geometry" />
        </mxCell>
        <mxCell id="l2JFm-4QCezU0gFR-i_Y-13" value="" style="ellipse;whiteSpace=wrap;html=1;aspect=fixed;fillColor=#e1d5e7;strokeWidth=3;strokeColor=none;" parent="1" vertex="1">
          <mxGeometry x="480" y="-400" width="80" height="80" as="geometry" />
        </mxCell>
        <mxCell id="l2JFm-4QCezU0gFR-i_Y-60" style="edgeStyle=none;rounded=0;orthogonalLoop=1;jettySize=auto;html=1;entryX=0;entryY=0.5;entryDx=0;entryDy=0;strokeColor=#10739e;fillColor=#b1ddf0;exitX=1;exitY=0.5;exitDx=0;exitDy=0;" parent="1" source="l2JFm-4QCezU0gFR-i_Y-14" target="l2JFm-4QCezU0gFR-i_Y-19" edge="1">
          <mxGeometry relative="1" as="geometry" />
        </mxCell>
        <mxCell id="l2JFm-4QCezU0gFR-i_Y-61" style="edgeStyle=none;rounded=0;orthogonalLoop=1;jettySize=auto;html=1;entryX=0;entryY=0.5;entryDx=0;entryDy=0;strokeColor=#10739e;fillColor=#b1ddf0;exitX=1;exitY=0.5;exitDx=0;exitDy=0;" parent="1" source="l2JFm-4QCezU0gFR-i_Y-14" target="l2JFm-4QCezU0gFR-i_Y-18" edge="1">
          <mxGeometry relative="1" as="geometry" />
        </mxCell>
        <mxCell id="l2JFm-4QCezU0gFR-i_Y-14" value="" style="ellipse;whiteSpace=wrap;html=1;aspect=fixed;fillColor=#e1d5e7;strokeWidth=3;strokeColor=none;" parent="1" vertex="1">
          <mxGeometry x="720" y="-880" width="80" height="80" as="geometry" />
        </mxCell>
        <mxCell id="l2JFm-4QCezU0gFR-i_Y-62" style="edgeStyle=none;rounded=0;orthogonalLoop=1;jettySize=auto;html=1;entryX=0;entryY=0.5;entryDx=0;entryDy=0;strokeColor=#10739e;fillColor=#b1ddf0;exitX=1;exitY=0.5;exitDx=0;exitDy=0;" parent="1" source="l2JFm-4QCezU0gFR-i_Y-15" target="l2JFm-4QCezU0gFR-i_Y-19" edge="1">
          <mxGeometry relative="1" as="geometry" />
        </mxCell>
        <mxCell id="l2JFm-4QCezU0gFR-i_Y-63" style="edgeStyle=none;rounded=0;orthogonalLoop=1;jettySize=auto;html=1;entryX=0;entryY=0.5;entryDx=0;entryDy=0;strokeColor=#10739e;fillColor=#b1ddf0;exitX=1;exitY=0.5;exitDx=0;exitDy=0;" parent="1" source="l2JFm-4QCezU0gFR-i_Y-15" target="l2JFm-4QCezU0gFR-i_Y-18" edge="1">
          <mxGeometry relative="1" as="geometry" />
        </mxCell>
        <mxCell id="l2JFm-4QCezU0gFR-i_Y-15" value="" style="ellipse;whiteSpace=wrap;html=1;aspect=fixed;fillColor=#e1d5e7;strokeWidth=3;strokeColor=none;" parent="1" vertex="1">
          <mxGeometry x="720" y="-1000" width="80" height="80" as="geometry" />
        </mxCell>
        <mxCell id="l2JFm-4QCezU0gFR-i_Y-58" style="edgeStyle=none;rounded=0;orthogonalLoop=1;jettySize=auto;html=1;entryX=0;entryY=0.5;entryDx=0;entryDy=0;strokeColor=#10739e;fillColor=#b1ddf0;exitX=1;exitY=0.5;exitDx=0;exitDy=0;" parent="1" source="l2JFm-4QCezU0gFR-i_Y-16" target="l2JFm-4QCezU0gFR-i_Y-18" edge="1">
          <mxGeometry relative="1" as="geometry" />
        </mxCell>
        <mxCell id="l2JFm-4QCezU0gFR-i_Y-59" style="edgeStyle=none;rounded=0;orthogonalLoop=1;jettySize=auto;html=1;entryX=0;entryY=0.5;entryDx=0;entryDy=0;strokeColor=#10739e;fillColor=#b1ddf0;exitX=1;exitY=0.5;exitDx=0;exitDy=0;" parent="1" source="l2JFm-4QCezU0gFR-i_Y-16" target="l2JFm-4QCezU0gFR-i_Y-19" edge="1">
          <mxGeometry relative="1" as="geometry" />
        </mxCell>
        <mxCell id="l2JFm-4QCezU0gFR-i_Y-16" value="" style="ellipse;whiteSpace=wrap;html=1;aspect=fixed;fillColor=#e1d5e7;strokeWidth=3;strokeColor=none;" parent="1" vertex="1">
          <mxGeometry x="720" y="-280" width="80" height="80" as="geometry" />
        </mxCell>
        <mxCell id="l2JFm-4QCezU0gFR-i_Y-56" style="edgeStyle=none;rounded=0;orthogonalLoop=1;jettySize=auto;html=1;entryX=0;entryY=0.5;entryDx=0;entryDy=0;strokeColor=#10739e;fillColor=#b1ddf0;exitX=1;exitY=0.5;exitDx=0;exitDy=0;" parent="1" source="l2JFm-4QCezU0gFR-i_Y-17" target="l2JFm-4QCezU0gFR-i_Y-18" edge="1">
          <mxGeometry relative="1" as="geometry" />
        </mxCell>
        <mxCell id="l2JFm-4QCezU0gFR-i_Y-57" style="edgeStyle=none;rounded=0;orthogonalLoop=1;jettySize=auto;html=1;entryX=0;entryY=0.5;entryDx=0;entryDy=0;strokeColor=#10739e;fillColor=#b1ddf0;exitX=1;exitY=0.5;exitDx=0;exitDy=0;" parent="1" source="l2JFm-4QCezU0gFR-i_Y-17" target="l2JFm-4QCezU0gFR-i_Y-19" edge="1">
          <mxGeometry relative="1" as="geometry" />
        </mxCell>
        <mxCell id="l2JFm-4QCezU0gFR-i_Y-17" value="" style="ellipse;whiteSpace=wrap;html=1;aspect=fixed;fillColor=#e1d5e7;strokeWidth=3;strokeColor=none;" parent="1" vertex="1">
          <mxGeometry x="720" y="-400" width="80" height="80" as="geometry" />
        </mxCell>
        <mxCell id="l2JFm-4QCezU0gFR-i_Y-64" style="edgeStyle=none;rounded=0;orthogonalLoop=1;jettySize=auto;html=1;strokeColor=#10739e;fillColor=#b1ddf0;" parent="1" source="l2JFm-4QCezU0gFR-i_Y-18" edge="1">
          <mxGeometry relative="1" as="geometry">
            <mxPoint x="1120" y="-520" as="targetPoint" />
          </mxGeometry>
        </mxCell>
        <mxCell id="l2JFm-4QCezU0gFR-i_Y-18" value="" style="ellipse;whiteSpace=wrap;html=1;aspect=fixed;fillColor=#b1ddf0;strokeWidth=3;strokeColor=none;" parent="1" vertex="1">
          <mxGeometry x="960" y="-560" width="80" height="80" as="geometry" />
        </mxCell>
        <mxCell id="l2JFm-4QCezU0gFR-i_Y-65" style="edgeStyle=none;rounded=0;orthogonalLoop=1;jettySize=auto;html=1;strokeColor=#10739e;fillColor=#b1ddf0;" parent="1" source="l2JFm-4QCezU0gFR-i_Y-19" edge="1">
          <mxGeometry relative="1" as="geometry">
            <mxPoint x="1120" y="-640" as="targetPoint" />
          </mxGeometry>
        </mxCell>
        <mxCell id="l2JFm-4QCezU0gFR-i_Y-19" value="" style="ellipse;whiteSpace=wrap;html=1;aspect=fixed;fillColor=#b1ddf0;strokeWidth=3;strokeColor=none;" parent="1" vertex="1">
          <mxGeometry x="960" y="-680" width="80" height="80" as="geometry" />
        </mxCell>
        <mxCell id="l2JFm-4QCezU0gFR-i_Y-24" value="" style="endArrow=none;dashed=1;html=1;dashPattern=1 3;strokeWidth=2;strokeColor=#9673a6;fillColor=#e1d5e7;" parent="1" edge="1">
          <mxGeometry width="50" height="50" relative="1" as="geometry">
            <mxPoint x="519.3400000000001" y="-455" as="sourcePoint" />
            <mxPoint x="519.17" y="-745" as="targetPoint" />
          </mxGeometry>
        </mxCell>
        <mxCell id="l2JFm-4QCezU0gFR-i_Y-25" value="" style="endArrow=none;dashed=1;html=1;dashPattern=1 3;strokeWidth=2;strokeColor=#9673a6;fillColor=#e1d5e7;" parent="1" edge="1">
          <mxGeometry width="50" height="50" relative="1" as="geometry">
            <mxPoint x="760.1700000000002" y="-455" as="sourcePoint" />
            <mxPoint x="760.0000000000001" y="-745" as="targetPoint" />
          </mxGeometry>
        </mxCell>
        <mxCell id="l2JFm-4QCezU0gFR-i_Y-66" value="&lt;font style=&quot;font-size: 31px&quot;&gt;Deterministic&lt;br&gt;Action&lt;br&gt;Sampling&lt;/font&gt;" style="rounded=1;whiteSpace=wrap;html=1;fillColor=#f5f5f5;fontColor=#333333;strokeColor=none;" parent="1" vertex="1">
          <mxGeometry x="1120" y="-680" width="210" height="200" as="geometry" />
        </mxCell>
        <mxCell id="l2JFm-4QCezU0gFR-i_Y-67" style="edgeStyle=none;rounded=0;orthogonalLoop=1;jettySize=auto;html=1;strokeColor=#666666;fillColor=#f5f5f5;" parent="1" edge="1">
          <mxGeometry relative="1" as="geometry">
            <mxPoint x="1410" y="-520.59" as="targetPoint" />
            <mxPoint x="1330.0000000000064" y="-520.59" as="sourcePoint" />
          </mxGeometry>
        </mxCell>
        <mxCell id="l2JFm-4QCezU0gFR-i_Y-68" style="edgeStyle=none;rounded=0;orthogonalLoop=1;jettySize=auto;html=1;strokeColor=#666666;fillColor=#f5f5f5;" parent="1" edge="1">
          <mxGeometry relative="1" as="geometry">
            <mxPoint x="1410" y="-640.59" as="targetPoint" />
            <mxPoint x="1330.0000000000064" y="-640.59" as="sourcePoint" />
          </mxGeometry>
        </mxCell>
        <mxCell id="l2JFm-4QCezU0gFR-i_Y-72" style="edgeStyle=none;rounded=0;orthogonalLoop=1;jettySize=auto;html=1;strokeColor=#666666;fillColor=#f5f5f5;" parent="1" source="l2JFm-4QCezU0gFR-i_Y-69" edge="1">
          <mxGeometry relative="1" as="geometry">
            <mxPoint x="1571.7058823529414" y="-520" as="targetPoint" />
          </mxGeometry>
        </mxCell>
        <mxCell id="l2JFm-4QCezU0gFR-i_Y-69" value="" style="ellipse;whiteSpace=wrap;html=1;aspect=fixed;fillColor=#f5f5f5;strokeWidth=3;fontColor=#333333;strokeColor=none;" parent="1" vertex="1">
          <mxGeometry x="1410" y="-560" width="80" height="80" as="geometry" />
        </mxCell>
        <mxCell id="l2JFm-4QCezU0gFR-i_Y-71" style="edgeStyle=none;rounded=0;orthogonalLoop=1;jettySize=auto;html=1;strokeColor=#666666;fillColor=#f5f5f5;" parent="1" source="l2JFm-4QCezU0gFR-i_Y-70" edge="1">
          <mxGeometry relative="1" as="geometry">
            <mxPoint x="1574.0588235294117" y="-640" as="targetPoint" />
          </mxGeometry>
        </mxCell>
        <mxCell id="l2JFm-4QCezU0gFR-i_Y-70" value="" style="ellipse;whiteSpace=wrap;html=1;aspect=fixed;fillColor=#f5f5f5;strokeWidth=3;fontColor=#333333;strokeColor=none;" parent="1" vertex="1">
          <mxGeometry x="1410" y="-680" width="80" height="80" as="geometry" />
        </mxCell>
        <mxCell id="l2JFm-4QCezU0gFR-i_Y-73" value="" style="endArrow=classic;html=1;" parent="1" edge="1">
          <mxGeometry width="50" height="50" relative="1" as="geometry">
            <mxPoint x="1610" y="-620" as="sourcePoint" />
            <mxPoint x="1742" y="-620" as="targetPoint" />
          </mxGeometry>
        </mxCell>
        <mxCell id="l2JFm-4QCezU0gFR-i_Y-74" value="" style="endArrow=classic;html=1;" parent="1" edge="1">
          <mxGeometry width="50" height="50" relative="1" as="geometry">
            <mxPoint x="1620" y="-610" as="sourcePoint" />
            <mxPoint x="1620" y="-730" as="targetPoint" />
          </mxGeometry>
        </mxCell>
        <mxCell id="l2JFm-4QCezU0gFR-i_Y-75" value="" style="endArrow=none;html=1;strokeColor=#B85450;" parent="1" edge="1">
          <mxGeometry width="50" height="50" relative="1" as="geometry">
            <mxPoint x="1610" y="-610" as="sourcePoint" />
            <mxPoint x="1730" y="-730" as="targetPoint" />
          </mxGeometry>
        </mxCell>
        <mxCell id="l2JFm-4QCezU0gFR-i_Y-76" value="" style="endArrow=classic;html=1;startArrow=classic;startFill=1;" parent="1" edge="1">
          <mxGeometry width="50" height="50" relative="1" as="geometry">
            <mxPoint x="1560" y="-500" as="sourcePoint" />
            <mxPoint x="1802" y="-500" as="targetPoint" />
          </mxGeometry>
        </mxCell>
        <mxCell id="l2JFm-4QCezU0gFR-i_Y-77" value="" style="endArrow=classic;html=1;" parent="1" edge="1">
          <mxGeometry width="50" height="50" relative="1" as="geometry">
            <mxPoint x="1680" y="-440" as="sourcePoint" />
            <mxPoint x="1680" y="-580" as="targetPoint" />
          </mxGeometry>
        </mxCell>
        <mxCell id="l2JFm-4QCezU0gFR-i_Y-79" value="" style="endArrow=none;html=1;" parent="1" edge="1">
          <mxGeometry width="50" height="50" relative="1" as="geometry">
            <mxPoint x="1640" y="-490" as="sourcePoint" />
            <mxPoint x="1640" y="-510" as="targetPoint" />
          </mxGeometry>
        </mxCell>
        <mxCell id="l2JFm-4QCezU0gFR-i_Y-80" value="" style="endArrow=none;html=1;" parent="1" edge="1">
          <mxGeometry width="50" height="50" relative="1" as="geometry">
            <mxPoint x="1720" y="-490" as="sourcePoint" />
            <mxPoint x="1720" y="-510" as="targetPoint" />
          </mxGeometry>
        </mxCell>
        <mxCell id="l2JFm-4QCezU0gFR-i_Y-81" value="" style="endArrow=none;html=1;strokeColor=#B85450;" parent="1" edge="1">
          <mxGeometry width="50" height="50" relative="1" as="geometry">
            <mxPoint x="1560" y="-460" as="sourcePoint" />
            <mxPoint x="1640" y="-460" as="targetPoint" />
          </mxGeometry>
        </mxCell>
        <mxCell id="l2JFm-4QCezU0gFR-i_Y-82" value="" style="endArrow=none;html=1;strokeColor=#B85450;" parent="1" edge="1">
          <mxGeometry width="50" height="50" relative="1" as="geometry">
            <mxPoint x="1720" y="-540" as="sourcePoint" />
            <mxPoint x="1800" y="-540" as="targetPoint" />
          </mxGeometry>
        </mxCell>
        <mxCell id="l2JFm-4QCezU0gFR-i_Y-83" value="" style="endArrow=none;html=1;strokeColor=#B85450;" parent="1" edge="1">
          <mxGeometry width="50" height="50" relative="1" as="geometry">
            <mxPoint x="1640" y="-500" as="sourcePoint" />
            <mxPoint x="1720" y="-500" as="targetPoint" />
          </mxGeometry>
        </mxCell>
        <mxCell id="l2JFm-4QCezU0gFR-i_Y-84" value="" style="endArrow=none;dashed=1;html=1;dashPattern=1 3;strokeWidth=2;strokeColor=#B85450;" parent="1" edge="1">
          <mxGeometry width="50" height="50" relative="1" as="geometry">
            <mxPoint x="1640" y="-460" as="sourcePoint" />
            <mxPoint x="1640" y="-490" as="targetPoint" />
          </mxGeometry>
        </mxCell>
        <mxCell id="l2JFm-4QCezU0gFR-i_Y-85" value="" style="endArrow=none;dashed=1;html=1;dashPattern=1 3;strokeWidth=2;strokeColor=#B85450;" parent="1" edge="1">
          <mxGeometry width="50" height="50" relative="1" as="geometry">
            <mxPoint x="1720" y="-510" as="sourcePoint" />
            <mxPoint x="1720" y="-540" as="targetPoint" />
          </mxGeometry>
        </mxCell>
        <mxCell id="rXuvEgTP__NlJpX-Ptdd-21" value="" style="rounded=0;whiteSpace=wrap;html=1;" parent="1" vertex="1">
          <mxGeometry x="2465" y="781" width="622" height="240" as="geometry" />
        </mxCell>
        <mxCell id="rXuvEgTP__NlJpX-Ptdd-25" value="" style="shape=mxgraph.cisco.misc.car;html=1;pointerEvents=1;dashed=0;strokeColor=#ffffff;strokeWidth=2;verticalLabelPosition=bottom;verticalAlign=top;align=center;outlineConnect=0;fillColor=#000000;" parent="1" vertex="1">
          <mxGeometry x="2500" y="792.5" width="69" height="37" as="geometry" />
        </mxCell>
        <mxCell id="rXuvEgTP__NlJpX-Ptdd-26" value="" style="shape=mxgraph.cisco.misc.car;html=1;pointerEvents=1;dashed=0;fillColor=#036897;strokeColor=#ffffff;strokeWidth=2;verticalLabelPosition=bottom;verticalAlign=top;align=center;outlineConnect=0;" parent="1" vertex="1">
          <mxGeometry x="2560" y="916" width="69" height="37" as="geometry" />
        </mxCell>
        <mxCell id="rXuvEgTP__NlJpX-Ptdd-27" value="" style="shape=mxgraph.cisco.misc.car;html=1;pointerEvents=1;dashed=0;strokeColor=#ffffff;strokeWidth=2;verticalLabelPosition=bottom;verticalAlign=top;align=center;outlineConnect=0;fillColor=#000000;" parent="1" vertex="1">
          <mxGeometry x="2721" y="852.5" width="69" height="37" as="geometry" />
        </mxCell>
        <mxCell id="rXuvEgTP__NlJpX-Ptdd-28" value="" style="shape=mxgraph.cisco.misc.car;html=1;pointerEvents=1;dashed=0;fillColor=#036897;strokeColor=#ffffff;strokeWidth=2;verticalLabelPosition=bottom;verticalAlign=top;align=center;outlineConnect=0;" parent="1" vertex="1">
          <mxGeometry x="2790" y="972.5" width="69" height="37" as="geometry" />
        </mxCell>
        <mxCell id="rXuvEgTP__NlJpX-Ptdd-29" value="" style="shape=mxgraph.cisco.misc.car;html=1;pointerEvents=1;dashed=0;fillColor=#036897;strokeColor=#ffffff;strokeWidth=2;verticalLabelPosition=bottom;verticalAlign=top;align=center;outlineConnect=0;" parent="1" vertex="1">
          <mxGeometry x="3010" y="912.5" width="69" height="37" as="geometry" />
        </mxCell>
        <mxCell id="rXuvEgTP__NlJpX-Ptdd-30" value="" style="shape=mxgraph.cisco.misc.car;html=1;pointerEvents=1;dashed=0;strokeColor=#ffffff;strokeWidth=2;verticalLabelPosition=bottom;verticalAlign=top;align=center;outlineConnect=0;fillColor=#FF3333;" parent="1" vertex="1">
          <mxGeometry x="2664" y="972.5" width="69" height="37" as="geometry" />
        </mxCell>
        <mxCell id="rXuvEgTP__NlJpX-Ptdd-31" value="" style="shape=mxgraph.cisco.misc.car;html=1;pointerEvents=1;dashed=0;strokeColor=#ffffff;strokeWidth=2;verticalLabelPosition=bottom;verticalAlign=top;align=center;outlineConnect=0;fillColor=#000000;" parent="1" vertex="1">
          <mxGeometry x="2910" y="792.5" width="69" height="37" as="geometry" />
        </mxCell>
        <mxCell id="rXuvEgTP__NlJpX-Ptdd-32" value="" style="shape=mxgraph.cisco.misc.car;html=1;pointerEvents=1;dashed=0;strokeColor=#ffffff;strokeWidth=2;verticalLabelPosition=bottom;verticalAlign=top;align=center;outlineConnect=0;fillColor=#000000;" parent="1" vertex="1">
          <mxGeometry x="2950" y="849" width="69" height="37" as="geometry" />
        </mxCell>
        <mxCell id="rXuvEgTP__NlJpX-Ptdd-33" value="" style="shape=mxgraph.cisco.misc.car;html=1;pointerEvents=1;dashed=0;fillColor=#036897;strokeColor=#ffffff;strokeWidth=2;verticalLabelPosition=bottom;verticalAlign=top;align=center;outlineConnect=0;" parent="1" vertex="1">
          <mxGeometry x="2500" y="972.5" width="69" height="37" as="geometry" />
        </mxCell>
        <mxCell id="rXuvEgTP__NlJpX-Ptdd-34" value="Lane 1" style="text;html=1;strokeColor=none;fillColor=none;align=center;verticalAlign=middle;whiteSpace=wrap;rounded=0;rotation=90;" parent="1" vertex="1">
          <mxGeometry x="2465" y="981" width="40" height="20" as="geometry" />
        </mxCell>
        <mxCell id="rXuvEgTP__NlJpX-Ptdd-35" value="Lane 2" style="text;html=1;strokeColor=none;fillColor=none;align=center;verticalAlign=middle;whiteSpace=wrap;rounded=0;rotation=90;" parent="1" vertex="1">
          <mxGeometry x="2465" y="921" width="40" height="20" as="geometry" />
        </mxCell>
        <mxCell id="rXuvEgTP__NlJpX-Ptdd-36" value="Lane 3" style="text;html=1;strokeColor=none;fillColor=none;align=center;verticalAlign=middle;whiteSpace=wrap;rounded=0;rotation=90;" parent="1" vertex="1">
          <mxGeometry x="2465" y="861" width="40" height="20" as="geometry" />
        </mxCell>
        <mxCell id="rXuvEgTP__NlJpX-Ptdd-37" value="Lane 4" style="text;html=1;strokeColor=none;fillColor=none;align=center;verticalAlign=middle;whiteSpace=wrap;rounded=0;rotation=90;" parent="1" vertex="1">
          <mxGeometry x="2465" y="801" width="40" height="20" as="geometry" />
        </mxCell>
        <mxCell id="rXuvEgTP__NlJpX-Ptdd-38" value="&lt;font style=&quot;font-size: 25px&quot;&gt;A&lt;/font&gt;" style="text;html=1;strokeColor=none;fillColor=none;align=center;verticalAlign=middle;whiteSpace=wrap;rounded=0;" parent="1" vertex="1">
          <mxGeometry x="2465" y="464" width="40" height="20" as="geometry" />
        </mxCell>
        <mxCell id="rXuvEgTP__NlJpX-Ptdd-40" value="&lt;font style=&quot;font-size: 25px&quot;&gt;B&lt;/font&gt;" style="text;html=1;strokeColor=none;fillColor=none;align=center;verticalAlign=middle;whiteSpace=wrap;rounded=0;" parent="1" vertex="1">
          <mxGeometry x="2465" y="753" width="40" height="20" as="geometry" />
        </mxCell>
        <mxCell id="rXuvEgTP__NlJpX-Ptdd-44" value="" style="endArrow=none;dashed=1;html=1;dashPattern=1 3;strokeWidth=2;exitX=0;exitY=0.75;exitDx=0;exitDy=0;" parent="1" source="rXuvEgTP__NlJpX-Ptdd-21" edge="1">
          <mxGeometry width="50" height="50" relative="1" as="geometry">
            <mxPoint x="2638" y="798" as="sourcePoint" />
            <mxPoint x="3087" y="961" as="targetPoint" />
          </mxGeometry>
        </mxCell>
        <mxCell id="rXuvEgTP__NlJpX-Ptdd-45" value="" style="endArrow=none;dashed=1;html=1;dashPattern=1 3;strokeWidth=2;exitX=0;exitY=0.75;exitDx=0;exitDy=0;" parent="1" edge="1">
          <mxGeometry width="50" height="50" relative="1" as="geometry">
            <mxPoint x="2464.9999999999995" y="900.41" as="sourcePoint" />
            <mxPoint x="3087" y="900.41" as="targetPoint" />
          </mxGeometry>
        </mxCell>
        <mxCell id="rXuvEgTP__NlJpX-Ptdd-46" value="" style="endArrow=none;dashed=1;html=1;dashPattern=1 3;strokeWidth=2;exitX=0;exitY=0.75;exitDx=0;exitDy=0;" parent="1" edge="1">
          <mxGeometry width="50" height="50" relative="1" as="geometry">
            <mxPoint x="2464.9999999999995" y="841.9999999999999" as="sourcePoint" />
            <mxPoint x="3087" y="841.9999999999999" as="targetPoint" />
          </mxGeometry>
        </mxCell>
        <mxCell id="rXuvEgTP__NlJpX-Ptdd-47" value="" style="rounded=0;whiteSpace=wrap;html=1;" parent="1" vertex="1">
          <mxGeometry x="2465" y="498" width="622" height="240" as="geometry" />
        </mxCell>
        <mxCell id="rXuvEgTP__NlJpX-Ptdd-48" value="" style="shape=mxgraph.cisco.misc.car;html=1;pointerEvents=1;dashed=0;strokeColor=#ffffff;strokeWidth=2;verticalLabelPosition=bottom;verticalAlign=top;align=center;outlineConnect=0;fillColor=#000000;" parent="1" vertex="1">
          <mxGeometry x="2500" y="509.5" width="69" height="37" as="geometry" />
        </mxCell>
        <mxCell id="rXuvEgTP__NlJpX-Ptdd-49" value="" style="shape=mxgraph.cisco.misc.car;html=1;pointerEvents=1;dashed=0;fillColor=#036897;strokeColor=#ffffff;strokeWidth=2;verticalLabelPosition=bottom;verticalAlign=top;align=center;outlineConnect=0;" parent="1" vertex="1">
          <mxGeometry x="2560" y="633" width="69" height="37" as="geometry" />
        </mxCell>
        <mxCell id="rXuvEgTP__NlJpX-Ptdd-50" value="" style="shape=mxgraph.cisco.misc.car;html=1;pointerEvents=1;dashed=0;strokeColor=#ffffff;strokeWidth=2;verticalLabelPosition=bottom;verticalAlign=top;align=center;outlineConnect=0;fillColor=#036897;" parent="1" vertex="1">
          <mxGeometry x="2721" y="569.5" width="69" height="37" as="geometry" />
        </mxCell>
        <mxCell id="rXuvEgTP__NlJpX-Ptdd-51" value="" style="shape=mxgraph.cisco.misc.car;html=1;pointerEvents=1;dashed=0;fillColor=#036897;strokeColor=#ffffff;strokeWidth=2;verticalLabelPosition=bottom;verticalAlign=top;align=center;outlineConnect=0;" parent="1" vertex="1">
          <mxGeometry x="2790" y="689.5" width="69" height="37" as="geometry" />
        </mxCell>
        <mxCell id="rXuvEgTP__NlJpX-Ptdd-52" value="" style="shape=mxgraph.cisco.misc.car;html=1;pointerEvents=1;dashed=0;fillColor=#036897;strokeColor=#ffffff;strokeWidth=2;verticalLabelPosition=bottom;verticalAlign=top;align=center;outlineConnect=0;" parent="1" vertex="1">
          <mxGeometry x="3010" y="629.5" width="69" height="37" as="geometry" />
        </mxCell>
        <mxCell id="rXuvEgTP__NlJpX-Ptdd-53" value="" style="shape=mxgraph.cisco.misc.car;html=1;pointerEvents=1;dashed=0;strokeColor=#ffffff;strokeWidth=2;verticalLabelPosition=bottom;verticalAlign=top;align=center;outlineConnect=0;fillColor=#FF3333;" parent="1" vertex="1">
          <mxGeometry x="2819" y="629.5" width="69" height="37" as="geometry" />
        </mxCell>
        <mxCell id="rXuvEgTP__NlJpX-Ptdd-54" value="" style="shape=mxgraph.cisco.misc.car;html=1;pointerEvents=1;dashed=0;strokeColor=#ffffff;strokeWidth=2;verticalLabelPosition=bottom;verticalAlign=top;align=center;outlineConnect=0;fillColor=#000000;" parent="1" vertex="1">
          <mxGeometry x="2910" y="509.5" width="69" height="37" as="geometry" />
        </mxCell>
        <mxCell id="rXuvEgTP__NlJpX-Ptdd-55" value="" style="shape=mxgraph.cisco.misc.car;html=1;pointerEvents=1;dashed=0;strokeColor=#ffffff;strokeWidth=2;verticalLabelPosition=bottom;verticalAlign=top;align=center;outlineConnect=0;fillColor=#036897;" parent="1" vertex="1">
          <mxGeometry x="2950" y="566" width="69" height="37" as="geometry" />
        </mxCell>
        <mxCell id="rXuvEgTP__NlJpX-Ptdd-56" value="" style="shape=mxgraph.cisco.misc.car;html=1;pointerEvents=1;dashed=0;fillColor=#036897;strokeColor=#ffffff;strokeWidth=2;verticalLabelPosition=bottom;verticalAlign=top;align=center;outlineConnect=0;" parent="1" vertex="1">
          <mxGeometry x="2500" y="689.5" width="69" height="37" as="geometry" />
        </mxCell>
        <mxCell id="rXuvEgTP__NlJpX-Ptdd-57" value="Lane 1" style="text;html=1;strokeColor=none;fillColor=none;align=center;verticalAlign=middle;whiteSpace=wrap;rounded=0;rotation=90;" parent="1" vertex="1">
          <mxGeometry x="2465" y="698" width="40" height="20" as="geometry" />
        </mxCell>
        <mxCell id="rXuvEgTP__NlJpX-Ptdd-58" value="Lane 2" style="text;html=1;strokeColor=none;fillColor=none;align=center;verticalAlign=middle;whiteSpace=wrap;rounded=0;rotation=90;" parent="1" vertex="1">
          <mxGeometry x="2465" y="638" width="40" height="20" as="geometry" />
        </mxCell>
        <mxCell id="rXuvEgTP__NlJpX-Ptdd-59" value="Lane 3" style="text;html=1;strokeColor=none;fillColor=none;align=center;verticalAlign=middle;whiteSpace=wrap;rounded=0;rotation=90;" parent="1" vertex="1">
          <mxGeometry x="2465" y="578" width="40" height="20" as="geometry" />
        </mxCell>
        <mxCell id="rXuvEgTP__NlJpX-Ptdd-60" value="Lane 4" style="text;html=1;strokeColor=none;fillColor=none;align=center;verticalAlign=middle;whiteSpace=wrap;rounded=0;rotation=90;" parent="1" vertex="1">
          <mxGeometry x="2465" y="518" width="40" height="20" as="geometry" />
        </mxCell>
        <mxCell id="rXuvEgTP__NlJpX-Ptdd-61" value="" style="endArrow=none;dashed=1;html=1;dashPattern=1 3;strokeWidth=2;exitX=0;exitY=0.75;exitDx=0;exitDy=0;" parent="1" source="rXuvEgTP__NlJpX-Ptdd-47" edge="1">
          <mxGeometry width="50" height="50" relative="1" as="geometry">
            <mxPoint x="2638" y="515" as="sourcePoint" />
            <mxPoint x="3087" y="678" as="targetPoint" />
          </mxGeometry>
        </mxCell>
        <mxCell id="rXuvEgTP__NlJpX-Ptdd-62" value="" style="endArrow=none;dashed=1;html=1;dashPattern=1 3;strokeWidth=2;exitX=0;exitY=0.75;exitDx=0;exitDy=0;" parent="1" edge="1">
          <mxGeometry width="50" height="50" relative="1" as="geometry">
            <mxPoint x="2464.9999999999995" y="617.4099999999999" as="sourcePoint" />
            <mxPoint x="3087" y="617.4099999999999" as="targetPoint" />
          </mxGeometry>
        </mxCell>
        <mxCell id="rXuvEgTP__NlJpX-Ptdd-63" value="" style="endArrow=none;dashed=1;html=1;dashPattern=1 3;strokeWidth=2;exitX=0;exitY=0.75;exitDx=0;exitDy=0;" parent="1" edge="1">
          <mxGeometry width="50" height="50" relative="1" as="geometry">
            <mxPoint x="2464.9999999999995" y="559" as="sourcePoint" />
            <mxPoint x="3087" y="559" as="targetPoint" />
          </mxGeometry>
        </mxCell>
        <mxCell id="h99cJpukV6AwYFH1lPPV-1" value="" style="rounded=1;whiteSpace=wrap;html=1;fillColor=#DDEAFF;strokeColor=none;" parent="1" vertex="1">
          <mxGeometry x="77" y="-2299" width="198" height="400" as="geometry" />
        </mxCell>
        <mxCell id="h99cJpukV6AwYFH1lPPV-4" value="" style="rounded=1;whiteSpace=wrap;html=1;fillColor=#f5f5f5;fontColor=#333333;strokeColor=#E6E6E6;" parent="1" vertex="1">
          <mxGeometry x="78" y="-2094" width="196" height="195" as="geometry" />
        </mxCell>
        <mxCell id="h99cJpukV6AwYFH1lPPV-5" value="&lt;font face=&quot;Lucida Console&quot; style=&quot;font-size: 15px&quot;&gt;&lt;b&gt;Choose transport&lt;/b&gt;&lt;/font&gt;" style="text;html=1;strokeColor=none;fillColor=none;align=left;verticalAlign=middle;whiteSpace=wrap;rounded=0;" parent="1" vertex="1">
          <mxGeometry x="85" y="-2071" width="118" height="20" as="geometry" />
        </mxCell>
        <mxCell id="h99cJpukV6AwYFH1lPPV-6" value="" style="shape=image;html=1;verticalAlign=top;verticalLabelPosition=bottom;labelBackgroundColor=#ffffff;imageAspect=0;aspect=fixed;image=https://cdn0.iconfinder.com/data/icons/kameleon-free-pack-rounded/110/Old-Car-2-128.png" parent="1" vertex="1">
          <mxGeometry x="87" y="-2043" width="33" height="33" as="geometry" />
        </mxCell>
        <mxCell id="h99cJpukV6AwYFH1lPPV-7" value="" style="shape=image;html=1;verticalAlign=top;verticalLabelPosition=bottom;labelBackgroundColor=#ffffff;imageAspect=0;aspect=fixed;image=https://cdn1.iconfinder.com/data/icons/anchor/128/bike.png" parent="1" vertex="1">
          <mxGeometry x="126.5" y="-2044" width="35" height="35" as="geometry" />
        </mxCell>
        <mxCell id="h99cJpukV6AwYFH1lPPV-9" value="" style="shape=image;html=1;verticalAlign=top;verticalLabelPosition=bottom;labelBackgroundColor=#ffffff;imageAspect=0;aspect=fixed;image=https://cdn2.iconfinder.com/data/icons/circle-icons-1/64/running-128.png" parent="1" vertex="1">
          <mxGeometry x="168.5" y="-2044.5" width="34.5" height="34.5" as="geometry" />
        </mxCell>
        <mxCell id="h99cJpukV6AwYFH1lPPV-10" value="" style="shape=image;html=1;verticalAlign=top;verticalLabelPosition=bottom;labelBackgroundColor=#ffffff;imageAspect=0;aspect=fixed;image=https://cdn2.iconfinder.com/data/icons/circle-icons-1/64/truck-128.png" parent="1" vertex="1">
          <mxGeometry x="212" y="-2045" width="36" height="36" as="geometry" />
        </mxCell>
        <mxCell id="h99cJpukV6AwYFH1lPPV-11" value="&lt;font face=&quot;Lucida Console&quot;&gt;&lt;span style=&quot;font-size: 15px&quot;&gt;&lt;b&gt;Your route&lt;/b&gt;&lt;/span&gt;&lt;/font&gt;" style="text;html=1;strokeColor=none;fillColor=none;align=left;verticalAlign=middle;whiteSpace=wrap;rounded=0;" parent="1" vertex="1">
          <mxGeometry x="85" y="-2002" width="118" height="20" as="geometry" />
        </mxCell>
        <mxCell id="h99cJpukV6AwYFH1lPPV-12" value="" style="rounded=1;whiteSpace=wrap;html=1;strokeColor=#E6E6E6;align=left;fillColor=#D4E1F5;" parent="1" vertex="1">
          <mxGeometry x="92" y="-1980" width="162" height="54" as="geometry" />
        </mxCell>
        <mxCell id="h99cJpukV6AwYFH1lPPV-13" value="&lt;font color=&quot;#ffffff&quot;&gt;From&lt;br&gt;&lt;br&gt;&lt;/font&gt;" style="rounded=1;whiteSpace=wrap;html=1;strokeColor=#E6E6E6;align=left;fillColor=#F8CECC;" parent="1" vertex="1">
          <mxGeometry x="98.5" y="-1970" width="70" height="34" as="geometry" />
        </mxCell>
        <mxCell id="h99cJpukV6AwYFH1lPPV-14" value="To&lt;br&gt;&amp;nbsp;" style="rounded=1;whiteSpace=wrap;html=1;strokeColor=#E6E6E6;align=left;fillColor=#FFFFFF;" parent="1" vertex="1">
          <mxGeometry x="174" y="-1970" width="70" height="34" as="geometry" />
        </mxCell>
        <mxCell id="h99cJpukV6AwYFH1lPPV-15" value="" style="endArrow=none;html=1;entryX=0.692;entryY=0.138;entryDx=0;entryDy=0;entryPerimeter=0;strokeWidth=4;edgeStyle=orthogonalEdgeStyle;" parent="1" target="h99cJpukV6AwYFH1lPPV-1" edge="1">
          <mxGeometry width="50" height="50" relative="1" as="geometry">
            <mxPoint x="111.5" y="-2099" as="sourcePoint" />
            <mxPoint x="161.5" y="-2149" as="targetPoint" />
            <Array as="points">
              <mxPoint x="112" y="-2109" />
              <mxPoint x="146" y="-2109" />
              <mxPoint x="146" y="-2157" />
              <mxPoint x="215" y="-2157" />
            </Array>
          </mxGeometry>
        </mxCell>
        <mxCell id="h99cJpukV6AwYFH1lPPV-16" value="" style="shape=callout;whiteSpace=wrap;html=1;perimeter=calloutPerimeter;align=left;flipH=1;position2=0.3;strokeColor=none;fillColor=#FFFFFF;rounded=1;" parent="1" vertex="1">
          <mxGeometry x="84" y="-2289.99" width="172" height="77" as="geometry" />
        </mxCell>
        <mxCell id="h99cJpukV6AwYFH1lPPV-17" value="" style="shape=image;html=1;verticalAlign=top;verticalLabelPosition=bottom;labelBackgroundColor=#ffffff;imageAspect=0;aspect=fixed;image=https://cdn0.iconfinder.com/data/icons/kameleon-free-pack-rounded/110/Old-Car-2-128.png" parent="1" vertex="1">
          <mxGeometry x="90" y="-2282.99" width="33" height="33" as="geometry" />
        </mxCell>
        <mxCell id="h99cJpukV6AwYFH1lPPV-18" value="10min&amp;nbsp; 500m" style="text;html=1;strokeColor=none;fillColor=none;align=center;verticalAlign=middle;whiteSpace=wrap;rounded=0;" parent="1" vertex="1">
          <mxGeometry x="152.5" y="-2286.99" width="75" height="20" as="geometry" />
        </mxCell>
        <mxCell id="h99cJpukV6AwYFH1lPPV-20" value="fuel consumption: ???" style="text;html=1;strokeColor=none;fillColor=none;align=center;verticalAlign=middle;whiteSpace=wrap;rounded=0;" parent="1" vertex="1">
          <mxGeometry x="120" y="-2269.99" width="140" height="20" as="geometry" />
        </mxCell>
        <mxCell id="h99cJpukV6AwYFH1lPPV-22" value="" style="ellipse;whiteSpace=wrap;html=1;aspect=fixed;strokeColor=#E6E6E6;align=left;fillColor=#F8CECC;" parent="1" vertex="1">
          <mxGeometry x="117" y="-2121" width="23" height="23" as="geometry" />
        </mxCell>
        <mxCell id="h99cJpukV6AwYFH1lPPV-25" value="" style="endArrow=none;html=1;strokeWidth=4;edgeStyle=orthogonalEdgeStyle;strokeColor=#F19C99;" parent="1" edge="1">
          <mxGeometry width="50" height="50" relative="1" as="geometry">
            <mxPoint x="146" y="-2135.99" as="sourcePoint" />
            <mxPoint x="214" y="-2210.99" as="targetPoint" />
            <Array as="points">
              <mxPoint x="112" y="-2108.99" />
              <mxPoint x="146" y="-2108.99" />
              <mxPoint x="146" y="-2156.99" />
              <mxPoint x="215" y="-2156.99" />
            </Array>
          </mxGeometry>
        </mxCell>
        <mxCell id="h99cJpukV6AwYFH1lPPV-27" value="" style="rounded=1;whiteSpace=wrap;html=1;fillColor=#DDEAFF;strokeColor=none;" parent="1" vertex="1">
          <mxGeometry x="302" y="-2299" width="198" height="400" as="geometry" />
        </mxCell>
        <mxCell id="h99cJpukV6AwYFH1lPPV-29" value="&lt;font face=&quot;Lucida Console&quot; style=&quot;font-size: 15px&quot;&gt;&lt;b&gt;Driving Report&lt;/b&gt;&lt;/font&gt;" style="text;html=1;strokeColor=none;fillColor=none;align=center;verticalAlign=middle;whiteSpace=wrap;rounded=0;" parent="1" vertex="1">
          <mxGeometry x="342" y="-2266.99" width="118" height="20" as="geometry" />
        </mxCell>
        <mxCell id="h99cJpukV6AwYFH1lPPV-30" value="&amp;nbsp; Stable&amp;nbsp; &amp;nbsp; &amp;nbsp; &amp;nbsp; &amp;nbsp; &amp;nbsp; &amp;nbsp; &amp;nbsp; &amp;nbsp; &amp;nbsp; &amp;nbsp; Reward" style="rounded=1;whiteSpace=wrap;html=1;strokeColor=#E6E6E6;fillColor=#FFFFFF;align=left;" parent="1" vertex="1">
          <mxGeometry x="317" y="-2126" width="167" height="28" as="geometry" />
        </mxCell>
        <mxCell id="h99cJpukV6AwYFH1lPPV-31" value="Problem" style="rounded=1;whiteSpace=wrap;html=1;strokeColor=#E6E6E6;align=center;fillColor=#F8CECC;" parent="1" vertex="1">
          <mxGeometry x="368.5" y="-2126" width="59.5" height="28" as="geometry" />
        </mxCell>
        <mxCell id="h99cJpukV6AwYFH1lPPV-32" value="Driving Fuel Consumption" style="text;html=1;align=left;verticalAlign=middle;whiteSpace=wrap;rounded=0;" parent="1" vertex="1">
          <mxGeometry x="310" y="-2232.99" width="161" height="20" as="geometry" />
        </mxCell>
        <mxCell id="h99cJpukV6AwYFH1lPPV-33" value="Reward for Driving" style="text;html=1;strokeColor=none;fillColor=none;align=left;verticalAlign=middle;whiteSpace=wrap;rounded=0;" parent="1" vertex="1">
          <mxGeometry x="310" y="-2185" width="161" height="20" as="geometry" />
        </mxCell>
        <mxCell id="h99cJpukV6AwYFH1lPPV-34" value="" style="rounded=1;whiteSpace=wrap;html=1;fontColor=#000000;align=left;strokeColor=none;fillColor=#F5F5F5;" parent="1" vertex="1">
          <mxGeometry x="302" y="-2090" width="197" height="190" as="geometry" />
        </mxCell>
        <mxCell id="h99cJpukV6AwYFH1lPPV-35" value="&lt;font style=&quot;font-size: 14px&quot;&gt;- Quick Acceleration&lt;br&gt;- Many Idle&lt;br&gt;&lt;br&gt;&lt;br&gt;&lt;br&gt;&lt;/font&gt;" style="text;html=1;strokeColor=none;fillColor=none;align=left;verticalAlign=middle;whiteSpace=wrap;rounded=0;fontColor=#000000;" parent="1" vertex="1">
          <mxGeometry x="310" y="-2071" width="146" height="73" as="geometry" />
        </mxCell>
        <mxCell id="h99cJpukV6AwYFH1lPPV-36" style="edgeStyle=orthogonalEdgeStyle;rounded=0;orthogonalLoop=1;jettySize=auto;html=1;exitX=0.5;exitY=1;exitDx=0;exitDy=0;fontColor=#000000;strokeColor=#F19C99;strokeWidth=4;" parent="1" source="h99cJpukV6AwYFH1lPPV-35" target="h99cJpukV6AwYFH1lPPV-35" edge="1">
          <mxGeometry relative="1" as="geometry" />
        </mxCell>
        <mxCell id="h99cJpukV6AwYFH1lPPV-37" value="" style="shape=image;html=1;verticalAlign=top;verticalLabelPosition=bottom;labelBackgroundColor=#ffffff;imageAspect=0;aspect=fixed;image=https://cdn3.iconfinder.com/data/icons/social-media-2125/78/report-128.png;rounded=1;fontColor=#000000;strokeColor=#000000;fillColor=#F5F5F5;" parent="1" vertex="1">
          <mxGeometry x="313" y="-2004" width="73" height="73" as="geometry" />
        </mxCell>
        <mxCell id="h99cJpukV6AwYFH1lPPV-38" value="" style="shape=image;html=1;verticalAlign=top;verticalLabelPosition=bottom;labelBackgroundColor=#ffffff;imageAspect=0;aspect=fixed;image=https://cdn0.iconfinder.com/data/icons/business-management-3-4/256/m-52-128.png;rounded=1;fontColor=#000000;strokeColor=#000000;fillColor=#F5F5F5;" parent="1" vertex="1">
          <mxGeometry x="404.5" y="-2005.5" width="79.5" height="79.5" as="geometry" />
        </mxCell>
        <mxCell id="h99cJpukV6AwYFH1lPPV-39" value="" style="endArrow=none;dashed=1;html=1;dashPattern=1 3;strokeWidth=2;fontColor=#000000;entryX=0.288;entryY=0.808;entryDx=0;entryDy=0;entryPerimeter=0;exitX=0.288;exitY=0.548;exitDx=0;exitDy=0;exitPerimeter=0;" parent="1" source="h99cJpukV6AwYFH1lPPV-35" target="h99cJpukV6AwYFH1lPPV-35" edge="1">
          <mxGeometry width="50" height="50" relative="1" as="geometry">
            <mxPoint x="353" y="-2030" as="sourcePoint" />
            <mxPoint x="333" y="-2163" as="targetPoint" />
            <Array as="points">
              <mxPoint x="352" y="-2028" />
            </Array>
          </mxGeometry>
        </mxCell>
        <mxCell id="h99cJpukV6AwYFH1lPPV-40" value="" style="rounded=1;whiteSpace=wrap;html=1;fillColor=#DDEAFF;strokeColor=none;" parent="1" vertex="1">
          <mxGeometry x="527" y="-2299" width="198" height="400" as="geometry" />
        </mxCell>
        <mxCell id="h99cJpukV6AwYFH1lPPV-43" value="???" style="rounded=1;whiteSpace=wrap;html=1;fontColor=#000000;strokeColor=#000000;fillColor=#F5F5F5;align=center;" parent="1" vertex="1">
          <mxGeometry x="338.25" y="-2208" width="120" height="23" as="geometry" />
        </mxCell>
        <mxCell id="h99cJpukV6AwYFH1lPPV-44" value="???" style="rounded=1;whiteSpace=wrap;html=1;fontColor=#000000;strokeColor=#000000;fillColor=#F5F5F5;align=center;" parent="1" vertex="1">
          <mxGeometry x="338.25" y="-2160" width="120" height="23" as="geometry" />
        </mxCell>
        <mxCell id="h99cJpukV6AwYFH1lPPV-45" value="&lt;font face=&quot;Lucida Console&quot; size=&quot;1&quot;&gt;&lt;b style=&quot;font-size: 13px&quot;&gt;Hi, Hauwei&lt;/b&gt;&lt;/font&gt;" style="text;html=1;strokeColor=none;fillColor=none;align=left;verticalAlign=middle;whiteSpace=wrap;rounded=0;" parent="1" vertex="1">
          <mxGeometry x="557.75" y="-2286.99" width="118" height="20" as="geometry" />
        </mxCell>
        <mxCell id="h99cJpukV6AwYFH1lPPV-48" value="&lt;font face=&quot;Lucida Console&quot; style=&quot;font-size: 15px&quot;&gt;&lt;b&gt;Community&lt;/b&gt;&lt;/font&gt;" style="text;html=1;strokeColor=none;fillColor=none;align=left;verticalAlign=middle;whiteSpace=wrap;rounded=0;" parent="1" vertex="1">
          <mxGeometry x="593" y="-2049.25" width="118" height="20" as="geometry" />
        </mxCell>
        <mxCell id="h99cJpukV6AwYFH1lPPV-49" value="" style="shape=image;html=1;verticalAlign=top;verticalLabelPosition=bottom;labelBackgroundColor=#ffffff;imageAspect=0;aspect=fixed;image=https://cdn0.iconfinder.com/data/icons/user-collection-4/512/users-128.png;rounded=1;fontColor=#000000;strokeColor=#000000;fillColor=#F5F5F5;" parent="1" vertex="1">
          <mxGeometry x="557.75" y="-2056" width="29.5" height="29.5" as="geometry" />
        </mxCell>
        <mxCell id="h99cJpukV6AwYFH1lPPV-51" value="10 Tips for Eco Driving" style="rounded=1;whiteSpace=wrap;html=1;fontColor=#000000;fillColor=#F5F5F5;align=left;strokeColor=none;" parent="1" vertex="1">
          <mxGeometry x="550.5" y="-2016.24" width="146" height="23" as="geometry" />
        </mxCell>
        <mxCell id="h99cJpukV6AwYFH1lPPV-52" value="How to maintain your car" style="rounded=1;whiteSpace=wrap;html=1;fontColor=#000000;fillColor=#F5F5F5;align=left;strokeColor=none;" parent="1" vertex="1">
          <mxGeometry x="550.5" y="-1989.24" width="146" height="23" as="geometry" />
        </mxCell>
        <mxCell id="h99cJpukV6AwYFH1lPPV-53" value="Best way to use this app" style="rounded=1;whiteSpace=wrap;html=1;fontColor=#000000;fillColor=#F5F5F5;align=left;strokeColor=none;" parent="1" vertex="1">
          <mxGeometry x="550.5" y="-1962.24" width="146" height="23" as="geometry" />
        </mxCell>
        <mxCell id="h99cJpukV6AwYFH1lPPV-54" value="Own driving methods fo ..." style="rounded=1;whiteSpace=wrap;html=1;fontColor=#000000;fillColor=#F5F5F5;align=left;strokeColor=none;" parent="1" vertex="1">
          <mxGeometry x="550.5" y="-1933.49" width="146" height="23" as="geometry" />
        </mxCell>
        <mxCell id="JNpCFze1Io0gp-PxIUvC-2" value="" style="shape=image;html=1;verticalAlign=top;verticalLabelPosition=bottom;labelBackgroundColor=#ffffff;imageAspect=0;aspect=fixed;image=https://cdn2.iconfinder.com/data/icons/social-aquicons/128/forrst.png" parent="1" vertex="1">
          <mxGeometry x="557.75" y="-2163.26" width="29.51" height="29.51" as="geometry" />
        </mxCell>
        <mxCell id="JNpCFze1Io0gp-PxIUvC-3" value="&amp;nbsp; &amp;nbsp;Gift&amp;nbsp; &amp;nbsp; &amp;nbsp; &amp;nbsp;Donation&amp;nbsp;" style="rounded=1;whiteSpace=wrap;html=1;strokeColor=#E6E6E6;fillColor=#FFFFFF;align=left;" parent="1" vertex="1">
          <mxGeometry x="540" y="-2204" width="167" height="28" as="geometry" />
        </mxCell>
        <mxCell id="JNpCFze1Io0gp-PxIUvC-4" value="Campaign" style="rounded=1;whiteSpace=wrap;html=1;strokeColor=#E6E6E6;align=center;fillColor=#F8CECC;" parent="1" vertex="1">
          <mxGeometry x="647.5" y="-2203.01" width="59.5" height="28" as="geometry" />
        </mxCell>
        <mxCell id="JNpCFze1Io0gp-PxIUvC-5" value="&lt;font style=&quot;font-size: 14px&quot;&gt;&lt;b&gt;Campaign&lt;/b&gt;&lt;/font&gt;" style="text;html=1;strokeColor=none;fillColor=none;align=left;verticalAlign=middle;whiteSpace=wrap;rounded=0;" parent="1" vertex="1">
          <mxGeometry x="598" y="-2160" width="118" height="20" as="geometry" />
        </mxCell>
        <mxCell id="JNpCFze1Io0gp-PxIUvC-8" value="" style="verticalLabelPosition=bottom;html=1;verticalAlign=top;align=center;strokeColor=none;fillColor=#00BEF2;shape=mxgraph.azure.user;" parent="1" vertex="1">
          <mxGeometry x="540" y="-2289.99" width="17" height="17" as="geometry" />
        </mxCell>
        <mxCell id="JNpCFze1Io0gp-PxIUvC-9" value="" style="html=1;verticalLabelPosition=bottom;align=center;labelBackgroundColor=#ffffff;verticalAlign=top;strokeWidth=2;strokeColor=#0080F0;shadow=0;dashed=0;shape=mxgraph.ios7.icons.bell;" parent="1" vertex="1">
          <mxGeometry x="694" y="-2286.99" width="13" height="13.04" as="geometry" />
        </mxCell>
        <mxCell id="JNpCFze1Io0gp-PxIUvC-10" value="&lt;font color=&quot;#f5f5f5&quot;&gt;&amp;nbsp; Your Point&lt;br&gt;&lt;/font&gt;&lt;div&gt;&lt;font color=&quot;#f5f5f5&quot;&gt;&lt;b&gt;&amp;nbsp; 1,000,231&lt;/b&gt; Points&lt;/font&gt;&lt;/div&gt;" style="rounded=1;whiteSpace=wrap;html=1;strokeColor=none;align=left;fillColor=#F19C99;" parent="1" vertex="1">
          <mxGeometry x="553" y="-2264.99" width="141" height="52" as="geometry" />
        </mxCell>
        <mxCell id="JNpCFze1Io0gp-PxIUvC-12" value="Seedling in the City" style="rounded=1;whiteSpace=wrap;html=1;fontColor=#000000;fillColor=#F5F5F5;align=left;strokeColor=none;" parent="1" vertex="1">
          <mxGeometry x="550.5" y="-2129" width="146" height="23" as="geometry" />
        </mxCell>
        <mxCell id="JNpCFze1Io0gp-PxIUvC-13" value="Breath Life" style="rounded=1;whiteSpace=wrap;html=1;fontColor=#000000;fillColor=#F5F5F5;align=left;strokeColor=none;" parent="1" vertex="1">
          <mxGeometry x="550.5" y="-2101" width="146" height="23" as="geometry" />
        </mxCell>
        <mxCell id="pdDi6k7Y1tWrQhEmMbj3-2" value="" style="rounded=0;whiteSpace=wrap;html=1;" parent="1" vertex="1">
          <mxGeometry x="3434" y="290" width="120" height="445" as="geometry" />
        </mxCell>
        <mxCell id="pdDi6k7Y1tWrQhEmMbj3-3" value="" style="rounded=0;whiteSpace=wrap;html=1;" parent="1" vertex="1">
          <mxGeometry x="3605" y="290" width="120" height="445" as="geometry" />
        </mxCell>
        <mxCell id="pdDi6k7Y1tWrQhEmMbj3-4" value="" style="endArrow=none;dashed=1;html=1;dashPattern=1 3;strokeWidth=2;exitX=0.5;exitY=1;exitDx=0;exitDy=0;entryX=0.5;entryY=0;entryDx=0;entryDy=0;" parent="1" source="pdDi6k7Y1tWrQhEmMbj3-1" target="pdDi6k7Y1tWrQhEmMbj3-1" edge="1">
          <mxGeometry width="50" height="50" relative="1" as="geometry">
            <mxPoint x="3374" y="567" as="sourcePoint" />
            <mxPoint x="3424" y="517" as="targetPoint" />
          </mxGeometry>
        </mxCell>
        <mxCell id="pdDi6k7Y1tWrQhEmMbj3-5" value="" style="endArrow=none;dashed=1;html=1;dashPattern=1 3;strokeWidth=2;exitX=0.5;exitY=1;exitDx=0;exitDy=0;entryX=0.5;entryY=0;entryDx=0;entryDy=0;" parent="1" edge="1">
          <mxGeometry width="50" height="50" relative="1" as="geometry">
            <mxPoint x="3493.29" y="735.0000000000005" as="sourcePoint" />
            <mxPoint x="3493.29" y="290" as="targetPoint" />
          </mxGeometry>
        </mxCell>
        <mxCell id="pdDi6k7Y1tWrQhEmMbj3-6" value="" style="endArrow=none;dashed=1;html=1;dashPattern=1 3;strokeWidth=2;exitX=0.5;exitY=1;exitDx=0;exitDy=0;entryX=0.5;entryY=0;entryDx=0;entryDy=0;" parent="1" edge="1">
          <mxGeometry width="50" height="50" relative="1" as="geometry">
            <mxPoint x="3664.29" y="735.0000000000005" as="sourcePoint" />
            <mxPoint x="3664.29" y="290" as="targetPoint" />
          </mxGeometry>
        </mxCell>
        <mxCell id="pdDi6k7Y1tWrQhEmMbj3-7" value="" style="shape=mxgraph.cisco.misc.car;html=1;pointerEvents=1;dashed=0;strokeColor=#ffffff;strokeWidth=2;verticalLabelPosition=bottom;verticalAlign=top;align=center;outlineConnect=0;fillColor=#036897;rotation=-90;" parent="1" vertex="1">
          <mxGeometry x="3329" y="320" width="52" height="28" as="geometry" />
        </mxCell>
        <mxCell id="pdDi6k7Y1tWrQhEmMbj3-8" value="" style="shape=mxgraph.cisco.misc.car;html=1;pointerEvents=1;dashed=0;strokeColor=#ffffff;strokeWidth=2;verticalLabelPosition=bottom;verticalAlign=top;align=center;outlineConnect=0;fillColor=#036897;rotation=-90;" parent="1" vertex="1">
          <mxGeometry x="3267" y="470" width="52" height="28" as="geometry" />
        </mxCell>
        <mxCell id="pdDi6k7Y1tWrQhEmMbj3-23" style="edgeStyle=orthogonalEdgeStyle;rounded=0;orthogonalLoop=1;jettySize=auto;html=1;entryX=0.5;entryY=0;entryDx=0;entryDy=0;entryPerimeter=0;strokeColor=#FF3333;" parent="1" source="pdDi6k7Y1tWrQhEmMbj3-9" target="pdDi6k7Y1tWrQhEmMbj3-14" edge="1">
          <mxGeometry relative="1" as="geometry" />
        </mxCell>
        <mxCell id="pdDi6k7Y1tWrQhEmMbj3-9" value="" style="shape=mxgraph.cisco.misc.car;html=1;pointerEvents=1;dashed=0;strokeColor=#ffffff;strokeWidth=2;verticalLabelPosition=bottom;verticalAlign=top;align=center;outlineConnect=0;rotation=-90;fillColor=#FF3333;" parent="1" vertex="1">
          <mxGeometry x="3267" y="630" width="52" height="28" as="geometry" />
        </mxCell>
        <mxCell id="pdDi6k7Y1tWrQhEmMbj3-10" value="" style="endArrow=classic;startArrow=classic;html=1;exitX=0.075;exitY=0.816;exitDx=0;exitDy=0;exitPerimeter=0;entryX=0.067;entryY=0.443;entryDx=0;entryDy=0;entryPerimeter=0;strokeColor=#FF3333;" parent="1" source="pdDi6k7Y1tWrQhEmMbj3-1" target="pdDi6k7Y1tWrQhEmMbj3-1" edge="1">
          <mxGeometry width="50" height="50" relative="1" as="geometry">
            <mxPoint x="3271" y="560.5" as="sourcePoint" />
            <mxPoint x="3271" y="495.5" as="targetPoint" />
          </mxGeometry>
        </mxCell>
        <mxCell id="pdDi6k7Y1tWrQhEmMbj3-14" value="" style="shape=mxgraph.cisco.misc.car;html=1;pointerEvents=1;dashed=0;strokeColor=#ffffff;strokeWidth=2;verticalLabelPosition=bottom;verticalAlign=top;align=center;outlineConnect=0;rotation=-90;fillColor=#FFCCCC;" parent="1" vertex="1">
          <mxGeometry x="3329" y="629.5" width="52" height="28" as="geometry" />
        </mxCell>
        <mxCell id="pdDi6k7Y1tWrQhEmMbj3-15" value="" style="shape=mxgraph.cisco.misc.car;html=1;pointerEvents=1;dashed=0;strokeColor=#ffffff;strokeWidth=2;verticalLabelPosition=bottom;verticalAlign=top;align=center;outlineConnect=0;fillColor=#036897;rotation=-90;" parent="1" vertex="1">
          <mxGeometry x="3500" y="320" width="52" height="28" as="geometry" />
        </mxCell>
        <mxCell id="pdDi6k7Y1tWrQhEmMbj3-16" value="" style="shape=mxgraph.cisco.misc.car;html=1;pointerEvents=1;dashed=0;strokeColor=#ffffff;strokeWidth=2;verticalLabelPosition=bottom;verticalAlign=top;align=center;outlineConnect=0;fillColor=#036897;rotation=-90;" parent="1" vertex="1">
          <mxGeometry x="3436" y="470" width="52" height="28" as="geometry" />
        </mxCell>
        <mxCell id="pdDi6k7Y1tWrQhEmMbj3-20" style="edgeStyle=orthogonalEdgeStyle;rounded=0;orthogonalLoop=1;jettySize=auto;html=1;strokeColor=#FF3333;exitX=0.5;exitY=0;exitDx=0;exitDy=0;exitPerimeter=0;" parent="1" source="pdDi6k7Y1tWrQhEmMbj3-18" target="pdDi6k7Y1tWrQhEmMbj3-17" edge="1">
          <mxGeometry relative="1" as="geometry" />
        </mxCell>
        <mxCell id="pdDi6k7Y1tWrQhEmMbj3-17" value="" style="shape=mxgraph.cisco.misc.car;html=1;pointerEvents=1;dashed=0;strokeWidth=2;verticalLabelPosition=bottom;verticalAlign=top;align=center;outlineConnect=0;rotation=-90;fillColor=#FFCCCC;strokeColor=#FFFFFF;" parent="1" vertex="1">
          <mxGeometry x="3436" y="629.5" width="52" height="28" as="geometry" />
        </mxCell>
        <mxCell id="pdDi6k7Y1tWrQhEmMbj3-18" value="" style="shape=mxgraph.cisco.misc.car;html=1;pointerEvents=1;dashed=0;strokeColor=#ffffff;strokeWidth=2;verticalLabelPosition=bottom;verticalAlign=top;align=center;outlineConnect=0;rotation=-90;fillColor=#FF3333;" parent="1" vertex="1">
          <mxGeometry x="3500" y="630" width="52" height="28" as="geometry" />
        </mxCell>
        <mxCell id="pdDi6k7Y1tWrQhEmMbj3-24" value="" style="endArrow=classic;startArrow=classic;html=1;exitX=0.075;exitY=0.816;exitDx=0;exitDy=0;exitPerimeter=0;entryX=0.067;entryY=0.443;entryDx=0;entryDy=0;entryPerimeter=0;strokeColor=#036897;" parent="1" edge="1">
          <mxGeometry width="50" height="50" relative="1" as="geometry">
            <mxPoint x="3440.96" y="649.9999999999999" as="sourcePoint" />
            <mxPoint x="3440" y="484.0150000000002" as="targetPoint" />
          </mxGeometry>
        </mxCell>
        <mxCell id="pdDi6k7Y1tWrQhEmMbj3-27" value="" style="endArrow=classic;startArrow=classic;html=1;exitX=0.075;exitY=0.816;exitDx=0;exitDy=0;exitPerimeter=0;entryX=0.967;entryY=0.108;entryDx=0;entryDy=0;entryPerimeter=0;strokeColor=#FF3333;" parent="1" edge="1">
          <mxGeometry width="50" height="50" relative="1" as="geometry">
            <mxPoint x="3545" y="649.9199999999996" as="sourcePoint" />
            <mxPoint x="3547.08" y="335.99999999999994" as="targetPoint" />
          </mxGeometry>
        </mxCell>
        <mxCell id="pdDi6k7Y1tWrQhEmMbj3-28" value="" style="endArrow=classic;startArrow=classic;html=1;exitX=0.075;exitY=0.816;exitDx=0;exitDy=0;exitPerimeter=0;entryX=0.967;entryY=0.108;entryDx=0;entryDy=0;entryPerimeter=0;strokeColor=#036897;" parent="1" edge="1">
          <mxGeometry width="50" height="50" relative="1" as="geometry">
            <mxPoint x="3374" y="650.9199999999996" as="sourcePoint" />
            <mxPoint x="3376.08" y="336.99999999999994" as="targetPoint" />
          </mxGeometry>
        </mxCell>
        <mxCell id="pdDi6k7Y1tWrQhEmMbj3-29" value="" style="shape=mxgraph.cisco.misc.car;html=1;pointerEvents=1;dashed=0;strokeColor=#ffffff;strokeWidth=2;verticalLabelPosition=bottom;verticalAlign=top;align=center;outlineConnect=0;fillColor=#036897;rotation=-90;" parent="1" vertex="1">
          <mxGeometry x="3669" y="320" width="52" height="28" as="geometry" />
        </mxCell>
        <mxCell id="pdDi6k7Y1tWrQhEmMbj3-30" value="" style="shape=mxgraph.cisco.misc.car;html=1;pointerEvents=1;dashed=0;strokeColor=#ffffff;strokeWidth=2;verticalLabelPosition=bottom;verticalAlign=top;align=center;outlineConnect=0;fillColor=#036897;rotation=-90;" parent="1" vertex="1">
          <mxGeometry x="3605" y="470" width="52" height="28" as="geometry" />
        </mxCell>
        <mxCell id="pdDi6k7Y1tWrQhEmMbj3-31" value="" style="shape=mxgraph.cisco.misc.car;html=1;pointerEvents=1;dashed=0;strokeColor=#ffffff;strokeWidth=2;verticalLabelPosition=bottom;verticalAlign=top;align=center;outlineConnect=0;rotation=-90;fillColor=#FF3333;" parent="1" vertex="1">
          <mxGeometry x="3669" y="626" width="52" height="28" as="geometry" />
        </mxCell>
        <mxCell id="pdDi6k7Y1tWrQhEmMbj3-32" value="" style="endArrow=classic;startArrow=classic;html=1;exitX=0.075;exitY=0.816;exitDx=0;exitDy=0;exitPerimeter=0;entryX=0.967;entryY=0.108;entryDx=0;entryDy=0;entryPerimeter=0;strokeColor=#FF3333;strokeWidth=2;" parent="1" edge="1">
          <mxGeometry width="50" height="50" relative="1" as="geometry">
            <mxPoint x="3715" y="646.9199999999996" as="sourcePoint" />
            <mxPoint x="3717.08" y="333" as="targetPoint" />
          </mxGeometry>
        </mxCell>
        <mxCell id="pdDi6k7Y1tWrQhEmMbj3-33" value="" style="shape=mxgraph.cisco.misc.car;html=1;pointerEvents=1;dashed=0;strokeWidth=2;verticalLabelPosition=bottom;verticalAlign=top;align=center;outlineConnect=0;rotation=-90;fillColor=#FFCCCC;strokeColor=#FFFFFF;" parent="1" vertex="1">
          <mxGeometry x="3669" y="560" width="52" height="28" as="geometry" />
        </mxCell>
        <mxCell id="pdDi6k7Y1tWrQhEmMbj3-34" value="" style="endArrow=classic;startArrow=classic;html=1;strokeColor=#036897;" parent="1" edge="1">
          <mxGeometry width="50" height="50" relative="1" as="geometry">
            <mxPoint x="3716" y="580" as="sourcePoint" />
            <mxPoint x="3717" y="333" as="targetPoint" />
          </mxGeometry>
        </mxCell>
        <mxCell id="9vK3srHALebkL6iaKBqt-6" value="" style="shape=mxgraph.signs.transportation.car_3;html=1;pointerEvents=1;strokeColor=none;verticalLabelPosition=bottom;verticalAlign=top;align=center;direction=east;flipV=0;flipH=1;fillColor=#FF3333;" parent="1" vertex="1">
          <mxGeometry x="2831.75" y="-670.75" width="99" height="38" as="geometry" />
        </mxCell>
        <mxCell id="9vK3srHALebkL6iaKBqt-7" value="" style="shape=mxgraph.signs.transportation.car_3;html=1;pointerEvents=1;verticalLabelPosition=bottom;verticalAlign=top;align=center;direction=east;flipV=0;flipH=1;" parent="1" vertex="1">
          <mxGeometry x="2831.75" y="-594.75" width="99" height="38" as="geometry" />
        </mxCell>
        <mxCell id="9vK3srHALebkL6iaKBqt-12" value="&lt;font color=&quot;#ff3333&quot; style=&quot;font-size: 26px&quot;&gt;Autonomous Vehicle&lt;/font&gt;" style="text;html=1;strokeColor=none;fillColor=none;align=center;verticalAlign=middle;whiteSpace=wrap;rounded=0;" parent="1" vertex="1">
          <mxGeometry x="2959.75" y="-661.75" width="256" height="20" as="geometry" />
        </mxCell>
        <mxCell id="9vK3srHALebkL6iaKBqt-13" value="&lt;font style=&quot;font-size: 26px&quot; color=&quot;#ffffff&quot;&gt;Non-&lt;br&gt;Autonomous Vehicle&lt;/font&gt;" style="text;html=1;align=center;verticalAlign=middle;whiteSpace=wrap;rounded=0;" parent="1" vertex="1">
          <mxGeometry x="2959.75" y="-594.75" width="256" height="20" as="geometry" />
        </mxCell>
        <mxCell id="L8zPbytYUb-S9XU9Fr7O-2" value="" style="shape=image;verticalLabelPosition=bottom;labelBackgroundColor=#ffffff;verticalAlign=top;aspect=fixed;imageAspect=0;image=data:image/png,iVBORw0KGgoAAAANSUhEUgAAAYIAAAEGCAYAAABo25JHAAAgAElEQVR4Ae2dCdQuRX3mf5dF2ZTNyyb5Lsuwyn4lIMIoo3A8hnAIJBmGGCcYgxAycQ4yXMPcgCCBYQCjxHFBhSASF5Q7URYxIYQwIMuFIHJxgnKByCLLDJrgqID0nOe91R/99tfv1v12v708dU5/3VVd3V31q/r+z1tV3VVgZwImYAImYAImYAImYAImYAImYAImYAImYAImYAImYAImYAImYAImYAImYAImYAImYAImYAK1JrD55ptHS5cu9WYGrgOuA64DE9QB4JlaG/dJEicRsDMBEzABE5iMALByEltb67gWgskK37FNwARMQAQsBK4HJmACJtBxAhaCjlcAZ98ETMAELASuAyZgAibQcQIWgo5XAGffBEzABCwErgMmYALNJrD6C1G0YkkUXblozV5+u4kIWAgmwuXIJmACtSIgo/+lDaLoSl7Z5LcYTFRMFoKJcDmyCZhArQj0WgIJEYgFQeF2YxOwEIyNyhFNwARqR0DdQbHx79svql1S65wgC0GdS8dpMwETGE7ALYLhfMY8ayEYE5SjmYAJ1JCAxwimUigWgqlg9E1MwARmRkBi4LeGCuGflRCsB9wJfAdYBZyVMYnRHHAT8I/AfcA7M+L0BXmuoUJ1wRebgAl0lMCshGARsFGw4usCdwAH9ll1uAQ4KYTtDjySOr/AayHoaC12tk3ABAoRmJUQJI34BsA9wAHJQODTwLIQ9ibgttT5BV4LQaG64ItNwAQ6SmCWQrA2cC/wPHD+AqsOWwPfBR4DngOWZsRR0AkhEyvn5uY6WozOtgmYgAnkJzBLIYjt+iZhLGCPOCDsTwE+EI7VIngAWCsVp8/rFkH+iuArTcAEukugDkIgY34GcGqfVV8ziPwribDVwBYJ/4JDC0F3K7JzbgImkJ/ArIRgMaCWgNz6wC3AEcEf764Hfi94dgOeADTIPNBZCPJXBF9pAibQXQKzEoK9Eq+F3h9aBDLwZwNHBkuvN4VuDa+Yaizh8IEKEE5YCLpbkZ1zEzCB/ARmJQSjbHqu8xaC/BXBV5qACXSXgIWgu2XvnJuACZhAj4CFwBXBBEzABDpOwELQ8Qrg7JuACZiAhcB1wARMwAQ6TsBC0PEK4OybgAmYgIXAdcAETMAEOk7AQtDxCuDsm4AJmICFwHWgFQRW3PNYdNB5N0bbLbumt5ffzgRMYDwCFoLxODlWjQnI6O+6/PpoybJr5jf5LQY1LjQnrVYELAS1Kg4nJg8BtQSSIhAfK9zOBExgNAELwWhGjlFzAuoOio1/cq9wOxMwgdEELASjGTlGzQm4RVDzAnLyak/AQlD7InICRxHwGMEoQj5vAsMJWAiG8/HZhhCQGPitoYYUlpNZOwIWgtoViRNkAiZgAtUSsBBUy9tPMwETMIHaEbAQ1K5InCATMAETGJ/ANLpFLQTj83ZMEzABE6gVgWm9KGEhqFWxOjEmYAImMD6Bab06bSEYn7ljmoAJmECtCEzrY0oLQa2K1YkxARMwgfEJuEXAQrd06dLxCTqmCZiACTScgMcIFuoAFoKG12on3wRMYGICfmsoJQYWgonrkC8wARMwgchjBK4EExGYxq+PcR5Y1XPGSYvjmEDbCRQVgjcDG4Yf5u8CPgIsSf1Qr8zrFkG51XVa/ZGjUlnVc0alw+dNoCsEigrBfcAiYG/gH4GTgZsrs/ypB1kIyq2203pDYVQqq3rOqHT4vAl0hUBRIbgn2OIzgN8Px3FYykyX77UQlFttp/XO8qhUVvWcUenweRPoCoGiQqBf/38CfB/YClgL+G75Jj/7CRaCcqttVb/Uq3pOubR8dxNoDoGiQiDjfwpwSDDNc8C7s810+aEWgnIrXlV991U9p1xavrsJNIdAUSGQddfg8NuDmd8AeM0YJn894E7gO8Aq4KwB1/w28ECI81cD4swHWwjKr3gy0vrFru4b7eUvw1X1nDLS7nuaQNMIFBWCPwDuAh4K1ngn4MZ5yzz4QAPMG4XT6wJ3AAemouteGoDeNIRvkTq/wGshaFr1c3pNwATqQKCoENwLvCoY7NgwTzpGoFaEBpgPiG8Q9v8deG8qbKjXQlCHKuU0mIAJNI1AUSHQL3k5/XKXWwfQK6XjuLUBCcnzwPkZF/xPQGJwK3A78I6MOAo6IWRi5dzcXNP4O70mYAImMHMCRYVAhvp04H8DhwErgD8bYLAHBW8C3ATskYpwTbifuo62B34IKO5A5xbBzOuTE2ACJtBAAkWFQK+LapzgKuCr4Vj9/5M6fYdwauqiTwHHJ8I09rB/wr/g0ELQwBroJJuACcycQFEhWGCMxwxYnPh1vz5wC3BE6lp1BV0ewl4XWgSbp+L0eS0EM69PToAJmEADCeQVgq8EC6yBYY0JpLc+A53h2SuMK+i6+wG1COTOBo4Mx2pZaO4ivT6q5xwbwgfuLAQNrIFOsgkUJOBXjQsCjKLcs49uHayxviHI2gYa6zJPWAiKVwjfwQSaREAisOvy66Mly66Z3+Qv6/uWJrGZJK15WwSxPc962ycrLI5f6t5CMEnRO64JNJ+ApyOZThkWFYKsCebGfX106qJgIZhOpfBdTKApBDxB4XRKKq8QnBT67X+aGh94GPjC1C38mDe0EEynUvguJtAUAm4RTKek8grBxsB2wBdTYwSbjWmzS4lmIZhOpfBdTKApBDxGMJ2SyisErw2WXIY/ayvF0I+6qYVgOpXCdzGBJhHwW0PFSyuvEOirXzl1Ba0Oex3H/nC62p2FoHiF8B1MwAS6RyCvEFRr4cd8moWgexXYOTYBEyhOoKgQ/Aag8YLYaS6go2JP1fs6C4Gbr8Urq+9gAiZQDoGiQqDZQ9Munok0HV66v65C4AGtciqv72oCJjAdAkWFIOubgUnXI5iaQNRVCPyK23Qqq+9iAiZQDoGiQnBpmA9oR0Cb5gb6y6lZ9glvVFchqPNHL+6yKucfy3c1gSYRKCoEGwL/LdxkJXAeoLCZuLoKQV1bBO6yatK/6vC0WtCH8/HZ4QSKCkFs8LVgfbwGcRxW+b6uQlBXg1tXgRpeZX02TaCu9SudTvvrS6CoEOwZppN+FNB2d8ZKY5UJQl2FQMVfx19sde6yqu+/TP1SZkGvX5k0LUVFheA24NCEpX8roLCZuDoLQR0rhg1IHUtl8jRZ0Cdn5iv6CRQVgu9kWPyssIxo0w+yEPQX7iifuxRGEWrGeQt6M8qpzqksKgRarP5PwwR0moRueVhwfvpWfow7Wggmr2p17LKaPBfdvsKC3u3yn0buiwrBpsDFgNYl0PYxQGEzcRaCaVQJ36OJBCzoTSy1+qS5qBDMxOAPeqiFoD4VyykxARNoDoG8QvAN4OtDtkG2utRwC0FzKp5TagImUB8CeYXgLcCwrVSDP+jmFoL6VKzKU7L6C1G0YkkUXblozV5+OxMwgbEI5BWCpC1eH9glGTCrYwvBWGXevkgy+l/aIIqu5JVNfotB+8raOSqFQFEh+HXgn8KCNLL/+4TuoplogYWglDpS/5v2WgIJEYgFQeF2JmACIwkUFQJ9Saz1CJJTT3v20ZHYHWGqBNQdFBv/vv2iqT7GNzOBthIoKgS3h5/+SSHImpq6khaCWwRtraYj8uUWwQhAPm0CwwkUFYLPAccBMv47AX8BfKoSq5/xEAvB8MJu7VmPEbS2aJ2xaggUFYINgD8D7grbOcB6GTa6kiALQTWVppZPkRj4raFaFo0TVX8CRYVgv0os/JgPsRDUv8I5hSZgAvUjUFQIbgK+B3x4ltNPxzphIahfBVOKPP1BBeXiFlEFkNv7iKJCIBu8FfDHwK2A3hjSxHMzcRaC+lVUT4hWQZl4jKQCyO1+xDSEIDb6WqTmCuCFOGDIXuMIdwKasnoVcNaQuMcAEfDGIXF6pywE9ausniK5gjLxW1MVQG73I4oKwW7Ah0JL4O+Bk4AtRhlsYFFiact1gTuAAzOu0xKY/wDoNVULQQProhdNqaDQ/B1FBZDb/YiiQvBt4P3ANhlGfNwgvXmkKawPyLjgo8CvARIZC0ED66JbBBUUmlsEFUBu9yOKCkGG7R47aG3gXuB54PyMq/RG0tdC+DAhOCFkYuXc3Fy7S6uBufMYQQWF5jGCCiC3+xGzFILY9m8C6O2jPeIAYK3QCtCqZ3LDhCBEAY8R1LOy+q2hCsrFbw1VALm9j6iDEMiQnwGcOm/R18xf9CzwSNh+DjwxqnvIQtDeiuqcmYAJlEdgmkKgX/GvTRjzYYeLAbUE5DSN9S3AEcGftXOLoLw64DubgAl0nEBRIfirYPw3BB4AHgP+S5YlT4XtFWYs1RxF94cWgaKcDRyZiiuvhaDJFdXdFk0uPae9AwSKCoEGe+V+B7gI0KugrZ991H3eE/xneCBzAliOagKzIVBUCPQxmIz/VWHpSomCPhKbiatijMBvwUxYUf1q44TAHN0EqidQVAg0tcTjwHXhI7Elob+/tULg9+InrKT+2GlCYI5uAtUTKCoEaYOvL4bXSQdW5c/TIpi0m8dfyk5YSd0imBCYo5tA9QTyCsG7AW2/VZWRH+c5kwpBnm4etwgmrKQeI5gQmKObQPUE8grBmYC2D4xjoKuKM6kQ5DHqecSj+mKt2RP91lDNCsTJMYF+AnmFYP+qjPskz5lUCPJ280zandSP3D4TMAETqBeBvEKgxeq/Hxak2X0SY11m3EmFIE+LoF7F59SYgAmYQHECeYVA9nyX0D2kD8n0yugHgXhuoDLt/cB7TyoE7uYpXoF8BxMwgeYTKCIESYO8N3Ae8FBYqSx5rrLjSYVAxedunuZXYufABEygGIFpCIHmGDoMuBT4EbCiMsufelAeISiGz1ebgAmYQPMJFBGCQ4BPhFlBbwCOZ82soSnzXJ3XQtD8CukcmIAJVE8grxD8EPhfwB9lLE2pKSdm4iwE1VcgP9EETKD5BPIKgaaSSDp9Ufw24HPAU8kTVR5bCJpfIZ0DEzCB6gnkFYLYvmvB+YuBfw5LTv5HYNP4ZNV7C0H1FchPNAETaD6BvEJwbviO4EbgvcDmwMNVG/708ywEza+QzoEJmED1BPIKwdNhjOA3gVcHg7w6bZir9lsIqq9AfqIJmEDzCeQVgrWBdwCXh1XJrgCenOXMoxIdC0HzK6RzYAImUD2BvEKQ/LGvFsExwFfDQLGWr5yJsxBUX4H8RBMwgeYTmIYQJI2+Fq/X9NQzcRaC5ldI58AETKB6AtMWgpkIQPxQC0H1FchPNAETaD4BC0Hzy9A5MAETMIFCBPIKQbwy2fbxr/E67N0iKFQXfLEJmEBHCeQVgnuC4Y/3ddABvzXU0UrsbJuACRQjkFcI/gb4FvAc8PWMbSbC4BZBscrgq03ABLpJIK8QvArQ9BJapewtGZuFoJv1ybk2ARNoIIG8QhAb+sXhYCNA20ydWwQNrIFOsgmYwMwJFBWCPQCtX/xomHjubkBhM3EWgpnXJyfABEyggQSKCsFtwKEJq/9WQGEzcRaCBtZAJ9kETGDmBIoKgRatT7ussHScUvwWgpnXJyfABEyggQSKCoHWJ/5TYLuwLfeaxQ2sBU6yCZhApwkUFQItQqOFafQ9gcYHPjrmwjTrAXcCaj2sAs7KaCKcAjwA3Ado3YP0qmgLLnGLoNN12Zk3ARPISaCoECwwxmMGaGnL+C0jrXF8R3gdNXm5xh42CAEnAV9Onsw6thDkrAW+zARMoNMEZiUESTsuY68WxQHJwNTxvsCtqbAFXgtBp+uyM28CJpCTwCyFQIvb3BvWOj5/gVXvD/g4oPGHoc5CkLMW+DITMIFOEygqBFqruKjbBLhpyPcH7wJuTyyJmX7eCSETK+fm5jpdmM68CZiACeQhUFQINMXEVcA7AfX753VnAKdmXPx24HvAFhnnFgS5RZCnCvgaEzCBrhMoKgQy/ocBXwR+AJwL7LzAQi8M0NQUagnIrQ/cAhwR/PFO4wIPATvFAaP2FoKuV2fn3wRMIA+BokKQtM16y+dx4MfAzcCbkidTx3uFqSn0auj9gFoEcmcDR4bjvw1rIGscQZtmOR3qLAR5qoCvMQET6DqBokKgMYL3h5tcCxwNrAO8EXh4qNUu4aSFoOvV2fk3ARPIQ6CoEDwYvizeNsOuL8sIKzXIQpCnCvgaEzCBrhMoKgTxAPFrgdeUauXHuLmFoOvV2fk3ARPIQ6CoEKgL6LvAI2Eqak0ZsXQMm11KFAtBnirga0zABLpOoKgQaLD3kIRVPzjMDZQIqu7QQtD16uz8m4AJ5CFQVAi0KE3azWxB+84LweovRNGKJVF05aI1e/ntTMAE2k1gCv/3RYVAs41+GtCCNFq7+BPAR4D9wpYWiVL9nRYCVYYvbRBFV/LKJr/FoN1GwLnrNoEp/d8XFQJNDTFo+7tSrX7GzTstBL2WQEIEYkFQuJ0JmEA7CUzp/76oEGSY49kFdVoI1B0UG/++/aJm/gNMobnbzIw71SYwAYEp/d8XFYKNQ1fQynCjiwCFzcR1Wgim9MtggipYXtQpNXfLS6DvbAI1ITCl//uiQvC1sLrYDoC2M4GrZ6ICem916dKalM4MktEm4zmlyj2DUvAjTaBaAlP6vy8qBJoDKO2ywtJxSvF3WghU/drSnTKl5m61/5F+mgnMiMAU/u+LCsG3AX07ELs3Awqbieu8EFRRD6dQ6UYm0y2CkYgcwQSmSaCoEOwdFqDXl8Xa9F2BZhadibMQTLNqZNxrSs3QjDv3B1X1nP6n2mcCnSVQRAi01OSFweJrriFtM3UWgpLrcZW/1KtoeZSMy7c3gaYQKCIEMvpaQrI2zkJQcrVz333JgH17E5gNgaJC8MmwYMzvhrUItB6Btpk4C0HJlajKFkHJWfHtTcAEXiFQVAguA9LbpTNRga6/PvpKmZZ35L778tj6ziYwQwJFhUBvCaVdVlg6Til+twgqqEnuu68Ash9hAtUSKCoEWTONZoWVYvjTN7UQVFt5/DQTMIF2EMgrBFqY/gPAD4FTEtuHwuukaRtdid9C0I5K6VyYgAlUSyCvEGjKaU0n8WTY61ibRGGnSqx+xkMqEwJ3j1RbS/00EzCBUgnkFYLYDC+JD+qwr0QIPGBaaoX0zU3ABKonUFQIdgYuAb4FaP2BeJuJLlQiBH6Fsvpa6ieagAmUSqCoEGix+pOAXw2L1mvh+nYvXu+PqkqtkL65CZhA9QSKCsHdM/npP+ChbhFUX4H8RBMwgeYTKCoEekvoD4Gtgc0S2wBTXW5wJULgMYLm13rnwARMoI9AUSF4GEhvq8s194PvXokQCJ/fGuqrRPaYgAk0m0BRIRhslWdwpjIhaHaZO/UmYAIm0EcgrxCclrDzv5U41uG5KX9lXgtBX9naYwImYAJjEcgrBMlpJJLHMvppv4VgrKJIRXL3UwqIvSZgAmURyCsEWoksdsljhaX9cbzkfj3gzjAdxSrgrOTJcPxq4MvAD4A7gO0y4vQFtaZF4AHpsuq772sCJpBBIK8QJH/1J49lmNP+PmMdPIuAjcLxusHQH5iKqLeRPhXCjg2ikIrS722NEPijtYyq6iATMIGyCOQVgl8C/wL8K/BSOI79L/ab55G+DYJ4HJCKeQOgye3k1gGeBSQgA11rhODKRdGKj78lOmj5pdF2y77e28sf6WO2IW7FPY9FB513Y7Tdsmt6e/ntTMAETGAUgbxCMNAYT3BCax7fCzwPnJ9x3f3Atonwh4DXJfwLDtsiBCsuOSba9YNfjZYsu2Z+k1/hg5yM/q7Lr5+Pr2vltxgMIuZwEzCBmMAshSA25JsANwF7xAFhP64QnBAysXJubi7OV6P3B334r/sMeiwICh/k1BKI4yX3CrczARMwgWEE6iAEsvtnAKemhKCzXUPq2kka8/hY4YNcnmsG3cvhJmAC3SIwKyFYDKglILc+cAtwRPDHu5NTg8VfiU8M2relayjPr/s813Srqju3JmACgwjMSgj2Cq+Z3geoC0gtArmzgSPDsV4xvSq8PqpXTXcI4QN3bRGCPP39ea4ZVCkcbgIm0C0CsxKCgca8yIm2CIGqoAy7fuVP8gZQnmu6Vd2dWxMwgSwCFoIsKg4zARMwgQ4RsBB0qLCdVRNoM4EXXnghWr16dfTAAw94G8BAfMQp7SwEaSL2m4AJNJKAjNwzzzwTvfzyy41Mf9mJFhfxEae0sxCkidhvAibQSAJqCVgEhhed+IhT2lkI0kTsNwETaCSBLAPXyIyUnOgsThaCkqHX/vae7rr2ReQEjkcgy8CNd2W3YmVxshB0qw7059bTXffzsK/RBLIMXNUZ2nDDDTMfefnll0dveMMboj322CPaZ599ogsuuKAX79RTT4122WWXaM8994yOOuqo6Lnnnpu//txzz4123HHHaOedd46++c1vzocff/zx0eLFi3v3mw+Momj58uW9++y9997RYYcdFj3++OPJ0/PHWZwsBPN4Onjg6a47WOjtzXKWgRua2xJaw1lCcN1110X77rvvvGH++c9/Hl1yySW9pN1www3Riy++2Ds+7bTTIm1yq1ativbaa69IcTW4u8MOO0QvvfRS79zNN98c3X333QuE4Cc/+UnvvP587GMfi973vvfN+5MHWZwsBElCXTvWtNZXkrENn+66a5ic32YQyDJwA1NeUms4SwgOOeSQ6MYbR0/+ePXVV0fHHXdcL8lqDWiL3eGHHx7ddtttsTd6+OGHFwjB/Mko6l174oknJoPmj7M4WQjm8XTwwC2CDhZ6e7OcZeAG5rakup8lBJtuumn04x//eGBS4hNHHHFEdMUVV/S8J5988vyxAt7znvdEV111VRx1oBCcfvrp0bbbbtsTiaeffno+fvIgi5OFIEmoa8cl/SrqGkbntx4EsgzcwJSV1BrOKwTnnHNOb4wgfv01rxDE+VVr4owzzoi9ffssThaCPkQlekroj5xKauuarqlkzjfpEoEsAzcw/xW2CA4++OChXUOXXXZZdOCBB0Y//elP55NbtGvo0UcfHdh1lMXJQjCPvsQD//IuEa5vbQJrCGQZuIFsSvqfzGoRXHvttdF+++0XPfnkk73k/OIXv4g+85nP9I6vv/76aLfddovS3Tj3339/32Dx9ttvPz9YrAuzxggefPDB+exefPHF0THHZK9omMXJQjCPrsSDkn59lJhi39oEGkcgy8ANzUQJreFFixZFr3/96+e3iy66qJeESy+9tPcLfffdd+/t43C9Hqo+fb3yqS35po+6i/S2kF4f1ZtHsTv22GOjrbbaKlpnnXV6z/nsZz/bO3X00Uf37q1XUTXe8Nhj2WuWZ3GyEMR0y9yX1B9ZZpJ9bxNoGoEsA9e0PFSR3ixOFoIqyLtFUAVlP6PjBLIMXMeRZGY/i5OFIBPVlANL6o+ccip9OxNoNIEsA9foDJWU+CxOFoKSYC+4bQn9kQue4QAT6DCBLAPXYRwDs57FyUIwEJdPmIAJNIlAloFrUvqrSmsWJwtBVfT9HBMwgVIJZBm4Uh/Y0JtncbIQNLQwnWwTMIF+AlkGrj+GfSKQxclC4LphAibQCgJZBq7KjD377LPz3wNsueWW0TbbbDPvB3rH+o5As4peeOGF0S9/+cte8u644475eDqnyefKdFmcLARlEve9TcAEKiOQZeCGPXzFPY9FB513Y7Tdsmt6e/mn5c4888z5NQd0z+QXx0899VT0tre9bX4uIE0tEU9F/cQTT/TWGoj900pP8j5ZnCwESUI+NgETaCyBLAM3KDMy+rsuvz5asuya+U3+aYnBMCFQmh566KFos802W7DGstYe2GKLLeaFYVD6i4RncbIQFCHqa03ABGpDIMvADUqcWgJJEYiPFT4NN0oI9IyNN944+tGPftR73O233x6p20gtB3cNUcwtXbp0GmXoe5iACTSQwCRCoO6g2Pgn9wqfhptUCOJnKg/7779/9LOf/SwOmvo+i5NbBP7Qa+oVzTc0gVkQyDJwg9Ix6xbBoK4hpffQQw+N7rrrrkFJLxyexanbQuCpHwpXKt/ABOpCIMvADUrbLMcINOW0FpePF47RuEA8OPzII49EW2+9dfTMM88MSnrh8CxO3RYCTwZXuFL5BiZQFwJZBm5Y2iQGVb01tNZaa/W9PnrBBRfMvz76+c9/vjc+oGmotcj9ihUrhiW78LksTt0WAk8PXbhS+QYmUBcCWQauLmmrUzqyOHVbCNwiqFP9dFpMoBCBLANX6IYtvTiL06yE4FeAm4AHgFXA+zPeF9oY+AbwnRDn+Iw4fUETvzXkMYKWVnVnq4sEsgxcFzmMynMWp1kJwdbAfsGKvwZ4ENi9z6rD6cD5IWwx8H+BV6Xi9HknFgIR81tDo+qNz5tAIwjIwL388suNSOusEik+dRKCPgMO/DVwWCrwT4BPAIuA7YEfAGul4vR5cwnBrErEzzUBE5gqAb19o7dtLAbZWMVFfMQp7WbVIkga8O2AfwZemwwE1FJQ99GTwPPAr6XOx94TQiZWzs3NpfNnvwmYQEcIvPDCCz0jp1+83rIZSATEKe1mLQQbAXcDR8dWPbH/TeDPQ4vg3wAPZ4hFIjq4RZAuXvtNwARMYDSBWQrBusANwCl91vwVz7XAIa94+TvgVxP+BYcWgtEF7hgmYAImkCYwKyFQv//ngY8usOavBHwS+FDwbgk8DrzuldMLjywE6eK13wRMwARGE5iVEByshRqA+4B7w/ZO4MSwycpvA3wL+C5wP/Cuhaa/P8RCMLrAHcMETMAE0gRmJQT9Fnx6vmdChlYCjySO5e/S5rx3q7yTddtl77JP1odxj2U7W+kEoKvOee9qya8xgl3NfZfrvcq86/nPrPddhuK8Z1aJTgS67DtRzJmZ7HLZZwJRYJehOO8Dq0XrT7jsW1/EAzPY5bIfCEUfmnXVOe9dLXlw2bvsu0vAOTcBEzABEzABEzABEzABEzABEzABEzABE+gagXcA/xRmJv1gRuZfDXw5nL8D0AR3bXovohgAAAasSURBVHKj8v97gN4Pjj/ae2+LMn8p8HT42DArW/p6/eJQ9vpwMZ72PCtu08JG5f2twE8S5X5G0zI4JL3jrGXS1rIfJ+9tLvvMarE28BCwQ1inQAvYpNc0+EPgU+HqY4MoZN6sgYHj5F9C8PEG5m2cJP/bYNz11XmW05fq14dJCw8E9EOgLW5U3mUMrmlLZlP5GGctk7aW/Th5b3PZp6rCGu+bwqR18UmtX6At6TSpneLJrQM8GwxDCGr0bpz8t1kIVHhq4Q0Sgk8D/yFRwmo56h+pLW5Y3rtkDLLWMml72cd1OCvvXSr7HgdNU/3ZmAjwuxm/fmUktk3EUQti6MR1ibh1Pxwn/xICreegrpGvAmpatskNM4b6Raw5rWJ3I/DG2NOC/bC8yxj8n7DMq1pFb2hBfrOyIAZZa5m0vezFYlDeu1L28/VhHEPYdSHYHNA4idz7oDeVd/C2YjfMGLbdGAzLuxZ50lofcuom+X44btNu2FombS/7YXnvQtn31eNxuka63jWUBKYxBQ0gtskNM4Zt7x4Ylvd0GWsiura0hJW3UWuZtLnsR+W97WWfzl+vz391WM9Yi9prsDjdBD45NVj8lQV3aW6AxjxG5T/ZJ/4bwO3NzW5myocZQy1tmhwsvjPzDs0NHJb3rRJjYVrMSd0nepOmDW6ctUzaWvbj5L3NZT+w/qrZ+2B4e+i/hlhnA0eG4/WAq8IrhDIEesOoTW5U/s8DVgWR1PrPu7Yo818M4x8vAo8Bv59az0L/NP8j1A2tadGm8YFRef+jRLlL/A9qUbmPs5ZJW8t+nLy3uexbVI2dFRMwARMwARMwARMwARMwARMwARMwARMwARMwARMwARMwARMwARMwARMwARMwARMwARMwARMwgcEEjgKiMV97/c/ABolbXQdskvBXdbhNmM6jqucNeo5eo377oJMONwETMIGmENAU4rcAZ42R4LZ9PTtGlgdG0VfkdiZgAibQeAKaT+VxYOew5kScIRm5C8Oso5pM7z8Bfwy8AOjDMX04J5cUhlNCfM09pZaDnL7M/R7wmfDx1beA9cO55O4vw7oGt4UvuTXHlZw+Wrog3FfP/fchPPnFr75014eMWg9Cad0pxHlXIlzTIaQNt9aZ0IeQsUvOKPlJQIuU60PBpEAqv+cD9wCacl3pjtOq9QjuCmm9JPGV8d+Ha5RGfZh5SHhgFmOdWgrcDNwdZv5Nfrkep9V7EzABE5gagd8BPhfuJiMsIyR3Uuh60RQbcpuFfdLwKyj26zoZ6g3DRGwyoPsGIXgJ2Cdcr+lHZKDTTgZVRnmtsN7FD0KEY4C/CUZ8yzCNgwxjUgj+AlA+5DQNioRmN+AbYb4chX8CePeaKPN/lTdNC6E0y8n4x2mL8ytjLUO+V4ij/J4WjrVLCkF8jcKvAH49xNP1F4VjfaX+t+E4i7HmuFE5LA5xJHxaIMfOBEzABEojoBkkDwt31y9+tQLkvpYID0G9XWz447DY/35A/eWx+3BoQchgJ2flXAYsjyMl9jKosTFX8L+Gc38OvCcRTwZWU5skheC48Mtd945bA5oC4InE6mFaJ+FDifvEh/rlrl/2sSi8Jpw4MfzqVwtDq88pjpzyuyQca5cUAomWFuaRIKqVFa/mJyF4c7hGYhaLXBbjPYB/SaRb91Irys4ETMAESiGgX7D/D3g0GLgfJiZOyzJSSkRs+OMExf5hQpBc1ObUAQY5aVB17+fDA8YRAkXdMQiPROffha4szQE1yinu1cDhYa/42wdjvWm4WGnTmhNycX6Dd14INN/WU4m1KCQ6sfBICOI5mDQ7qe4hl8V4T+Db4bx3JmACJlA6gRMA9Z0nnfqmtUSjfhFrkZ1015B+ocpQxi42jFqrWL+e9UaRulpk/OOuoSJCcHToJ1cXjbpLJFqa+THZItAkhxpLkFOLRuMTWk5VorBFCJfoJX/Jh+DeuIHyoG6p3w6Be4cJBNVNpV/wMvCjhEBvTimeuqU07qI8jxKCLMbq2lKLIV7xT11F6dl+47R7bwImYAKFCWjAVwOmSafuIfWVSwA+AjwQjKK6WuQ0aKxulkkGi4sIwTiDxeqC0ZiEBou/mRjPUP96PICsgVetqZzltN60WiDJ12LVCtDArlZcU4thlBDovueEWVhvBS4bQwgGMdZ4yj8E7srXH2Ql2mEmYAImYAImYAImYAImYAImYAImYAImYAImYAImYAImYAImYAImYAImYAImYAImYAImYAImYAImYAImYAImYAImYAImYAImYALNJPD/AeXxp6oYxcdPAAAAAElFTkSuQmCC;" vertex="1" parent="1">
          <mxGeometry x="2061.58" y="-1857.5" width="692.44" height="470" as="geometry" />
        </mxCell>
        <mxCell id="L8zPbytYUb-S9XU9Fr7O-3" value="" style="shape=image;verticalLabelPosition=bottom;labelBackgroundColor=#ffffff;verticalAlign=top;aspect=fixed;imageAspect=0;image=data:image/png,iVBORw0KGgoAAAANSUhEUgAAAYIAAAEGCAYAAABo25JHAAAgAElEQVR4Ae2dC7QlRX3uf8MjwoC8h5d4eF2RxwjCiBIu5EoMJEu5LAKJEmI0EANEYnAZAuolIEg0OBAFNRpQuKCTK6JMNLzGmwkgkQwwIOgMiSgDyEsY7vWFV0Wl7/r2VG/69Nn7nL37ubv7q7X26a7q6uquX9X5f13V1VVgZwImYAImYAImYAImYAImYAImYAImYAImYAImYAImYAImYAImYAImYAImYAImYAImYAImYAITTWDrrbeOFi1a5J8ZuA64DrgOjFEHgLUTbdzHuTmJgJ0JmIAJmMB4BICV49jaiY5rIRiv8B3bBEzABETAQuB6YAImYAIdJ2Ah6HgFcPZNwARMwELgOmACJmACHSdgIeh4BXD2TcAETMBC4DpgAiZgAg0msPSex6KDP7g82uXM63pb+cd1dQnBRsCdwH3AauDcIcOR3gjcH+L845A4/WCPGhq3+B3fBEygyQRk9Pc868Zo5zOv6//kH1cM6hKCecCmwYJvCNwBHNS36Ot2XgZ8HdgyhG+bOj7DayFocpX2vZuACYxLQC2BpAjE+wofx9UlBEkjPh+4B3hNMhD4EPC2VNisXgvBOEXvuCZgAk0noO6g2Pgntwofx9UpBOsD9wLPAhcMsPD/FMTga8AK4HcGxFHQSSETK6empsbJu+OagAmYQKMJtKlFsAVwM7AwZeivA5YC6jraFXgUUNyhzi2CRtdp37wJmMCYBJr+jiBtzM8GTk8FfhI4IRG2HDgw4Z+xayEYsxZFUe+lUt4RB+Nf1WeYgAkURUBikPd/uK6uoQWJp/uNgduAI1OWXV1BV4awbUKLYOtUnGneqoSgCPBFVYI86RT1NJHnHnyuCZhA/QTqEoJ9w4igbwCrALUI5M4Djgr7Gln0d2H46DeB40L40E0VQtAm41lU/2L91dh3YAImkIdAXUIw1JjnOVCFELTJeBY14iBPBfS5JmAC9ROwEIxZBm0ynm0StTGL0dFNwAQSBCwECRij7LbJeLapm2uUsnMcEzCBwQQsBIO5DA1tm/FUfiRuauloK7+dCZhAtwhYCDKUt41nBmg+xQRMYGIJWAgmtmh8YyZgAiZQDQELQTWcfRUTMAETmFgCFoKJLRrfmAmYgAlUQ8BCUA1nX8UETMAEJpaAhWBii8Y3ZgImYALVELAQVMPZVzEBEzCBiSVgIZjYovGNmYAJmEA1BCwE1XD2VSog4O87KoDsS7SSgIWgomK1kSoXtPgWsYh3uXfp1E1gMglYCCooFxup8iG3aQ6o8mn5CiYwnYCFYDqPUnw2UqVgnZZom2aFnZYxe0ygAgIWggogt81ITWI3l8W2gorsS7SWgIWggqJtk5Ga1G6uSb2vCqqXL2ECuQlYCHIjnDuBqoxUFU/qkyxqVeR/7tJ2DBNoHgELQUVlVraRqkps2tbNVVHx+zImMNEELAQTXTyj31xVT+pVXWf0nDumCZhAXgIWgrwEJ+T8qp7Uq2p5TAhW34YJdIKAhaAlxVzlk3rZ3VwtKRJnwwQaQ8BC0Jiimv1G/aQ+Ox8fNQETGE7AQjCcTeOO+Em9cUXmGzaBiSBgIZiIYvBNpAlY1NJE7DeB8ghYCNZ8NoqW7hxFS+at28pvVysBd3PVir9xF/dDQ/4i67YQyOh/bn4ULeGFn/wWg/w1K0cKVb74znGbPnUCCPihoZhCqEsINgLuBO4DVgPnMtwdC0TAq4ZHWXdk0aJF41HptQQSIhALgsLtaiNQ1VDY2jLoCxdGwA8NxaCsSwjmAZsGw74hcAdw0ABD/2Lgq8CKUoRA3UGx8Z+2nVcMXaeSiYD/uTNh6+RJfmgoptjrEoKkzZ8P3AO8JhkY9j8CvAG4pRQhcIugmFpUcCpu7hcMtMXJ+aGhmMKtUwjWB+4FngUuGCACBwBfDOGzCcFJIRMrp6amxqPidwTr3odM4MtyvwAcryp3NbYfGoop+TqFILb9WwA3AwvjAGC90ArYZQQh6J829jsCMZQYTKAhLKZ450jFQjgHIB9uAgE/NOQvpUkQAhnys4HT+xYdNgeeAR4Ov58BT8zVPZRJCPIzbG4K7hprbtn5zk2gQAJ1CcECQC0BuY2B24Ajg3/QZrauoX78yoQgSysiyzkFFvTApPyyfCAWB5pA1wjUJQT7Al8HvgGsCi0CGfTzgKP6lv2FnckRgizdKRnOWbrs6ujgv74y2uXML/e28hfuJrlFMInCWXgBOEETmAwCdQnBCya+wL1KWgRZjOeY58jo7/nuL0Q7n3ld/yd/4WKQQaAqqbaTel+VZN4XMYHqCVgIxmWepTtlzHPUEkiKQLyv8MLdJD55jymchTNxgibQMQIWgnELPIuRGvMcdQfFxj+5VXgn3JjC2QkmzqQJlEggrxBsC/wucCpwIvDqMPSzwA6f0ZOqpGsoS7fFmOdU2iIosXJlTnpM4cx8HZ9oAibQI5BVCA4DlgF3AZcC5wMXAl9OzB202egmvJiYlQiBsGXpThnjnMreEUzqP8GYwjmp2fB9mUBTCGQVgsXA1BDzvQFwNKDJ4ip1lQlBBaUrMSh91FAF+ch8iTGEM/M1WnSiP6pqUWHWkJWsQlCpgR/1Ym0SghrqQmmXtJEqDW0vYU+zUC7fLqSeVwhOA9QFpNlEPx0mjztiVMNddDwLweRVWRup8svEE6+Vz7jtV8grBFpPQO63gWuBfYIYhOBqNxaCyauuNlLll4mnYi6fcduvkFcI9GWw3MVh9JD29cVwLc5CMHnV1Uaq/DKx2JbPuO1XyCsEVwBfAb4NaF0BLSRzdy0qAGQRAvdfZ6jiY7zItZHKwHfMU9z9NiYwR59BIKsQaFUxOU0XrXUD4gnktgY0j1Atblwh8D/QjPowd8CYQzvNeG6kRcTwA00RFLubRlYhWAn8E3AKEK8ZUIvxT150XCHw02qGip/hYy8bqQycfYoJVEggqxDI/koAJAQSBH1Y9mFAI4ZelDTOVe6PKwTuv85Q0zz9QwZoPsUEJptAHiFI2nh1Ff0m8CHgTuD65MGq9scVArcIMlTODC2CDFfxKSZgAhUSKEoI0rb+JemAKvzjCoH7rzPUtDHfEWS4gk8xAROomEBeIdCqYhou+n3gR8CPw7YKuz/jGuMKgVi7/zpDjRtj1FCG1H2KCZhAxQTyCsF3wighfVlcu8siBBXz9uVMwARMYOII5BWCm+ucdjqtPBaCiatfviETMIEGEMgrBAcCNwHvAd6V+KVtdCV+C0EDapxv0QRMYOII5BUCfVWsOYbOBc5J/Cox/OmLWAgmrn75hkzABBpAIK8QrEob4zr9FoIG1DjfogmYwMQRyCsE+m6gtmmn06JjIZi4+uUbqoqAR3JVRbqV18krBBou+jzw06YOH21lqU5apmykyi0Rf9tRLt8OpJ5XCNIP5bX63SKYwBprI1V+ofhr7/IZt/wKWYVgronm9F3BTlWrgoVgAmurjVT5heL5n8pn3PIrZBWCa4AvAm8Jq5JtGxaz13xD7wduBw63EFRceyaxC8ZGqvxKYLEtn3HLr5BVCGTj9wb+BrgF+FaYauIfgTcDG1UtArpep1sEk9oFYyNVvgmZ1LIvP+e+QkEE8ghBHbZ+1mt2Wggm1eDaSBX0rzpHMpPYGpzjln14cgjUJQRqMWi66vuA1eGDtLSR15fK9wNaF3k5sHM6QtrfaSGY5C4YG6nJ+Y/3nZjAAAJ1CYFeJm8aDLnWMrgDOChl2A8L6yAr+M+Aq1PHZ3g7LQST2iIYUOkcZAImMFkE6hKCpBHXovf3AK9JBqb29we+lgqb4e20ELgLZrL+s3w3JtAgAnmFQPMMvSHjDKTrA/cCzwIXzLDq0wM+Bpw1PajvOylkYuXU1FSD0Jdwq+6CKQGqkzSB9hPIKwS/BSwBHgT+Fnh53zyPvrMFoOmsFw45RaOQVoyyFnKnWwTtr6vOoQmYQEkE8gpBbLs3DwvZPxq+ITgBUN//qO5s4PQBkSU0/wHoO4U5nYWgpFriZE3ABFpNoAgh2Bo4LST0ZeBNwEfD9wXDjPcCQC0BuY2B2wAte5l0ei+glsbLkoGz7VsIWl1XnTkTMIGSCOQVgqVhiKcWptkhZaRXpvxJ777hAzQNDdVU1moRyJ0HHBX2/wV4KrxH0LsEicyszkJQUi1xsiZgAq0mkFcIXj/AMr9oQFglQRaCVtdVZ84ETKAkAnmFQMM+025QWDpOKX4LQUm1xMmagAm0mkBWIdheU/uEF7nqyz8g/F4L/GcpVn6ERC0Era6rzpwJmEBJBLIKwVvDkE8tTKOhn/FP/fjHjGCzS4liISipljhZEzCBVhPIKgSxIT823pmErYWg1XXVmTMBEyiJQFYh0Edecn8JaHK49C8crnZjISipljhZEzCBVhPIKgQnBxN/DjDoV60ChKtZCFpdV505EzCBkghkFYJaDP1cF7UQlFRLnKwJmECrCeQVgisTXwjLTm8JXD6XwS7ruIWg1XXVmTMBEyiJQF4h+PoAoz4obEC04oMsBCXVEidrAibQagJ5hUArjKkVELutgG/Gnqq3FoJW11VnzgRMoCQCeYXgLeEDsvcD54f9P6paAOLrWQhKqiVO1gRMoNUE8gqBbPDewJ8Dp4b92C5XvrUQtLquOnMmYAIlEShCCPYD3hHEQPu1OQtBSbXEyZqACbSaQF4h0DoEmkb63DCFtN4PSBRqcRaCVtdVZ84ETKAkAnmFQOsJbJKw+tpXWC3OQlBSLXGyJmACrSaQVwjUAtgoYfW171FDra4yzpwJmEDbCOQVAs0xpCGk7ws/rST2zoQwVLrrFkHbqqfzYwImUAWBvEIgQ6+1CP4i/LQ2QW3OQlBFlZnga6z5bBQt3TmKlsxbt5XfzgRMYE4CWYVAH47N9qtFDCwEc5Z3eyPI6H9ufhQt4YWf/BaD9pa5c1YYgaxC8BCwBtA2/sV+bWtxFoLC6kXzEuq1BBIiEAuCwu1MwARmJZBVCGox9HNd1EIwa1m3+6C6g2LjP207r935du5MoAACeYVgHqBFav46GOkp4NVzGeyyjlsICqgRTU3CLYKmlpzvewII5BWCTwAfD4vYy75rArq7yjL0c6VrIZiAGlXXLfgdQV3kfd0WEMgrBPcE45ycelrDSWtxFoIW1Mg8WZAYeNRQHoI+t6ME8grBHcD6QCwIC4CkKFQqCBaCjtZiZ9sETCAXgbxC8IfAl4HHgL8BvgX8fqXWP3ExC0GuuuCTTcAEOkogrxDIDO8ZpqDWVNR7Jexy5bsWgo7WYmfbBEwgF4G8QnAJcHAGi685ie4M01OsDrOXppN5EXA18B1AXVC7pCOk/RaCXHXBJ5uACXSUQF4heCtwA/AgcCHwqrRxHuLXsNNNw7ENg6E/KBX37cAnQ9hxQRRSUaZ7LQQdrcXOtgmYQC4CeYUgtsSabuJPgeXAt+PAEbfzw8vm16TiLwN+PYRtADwDSECGOgtBrrrgk03ABDpKoCgh0EdkF4VunH8eaqmnH9BoI81W+ixwwfRDPZ8WvNkpEa5WxzYJf7x7UsjEyqmpqY4Wo7NtAiZgAtkJ5BWCD4UWwE3AHwNbxNZ5jK3OuRlYmDpnVCHon+YWQfaK4DNNwAS6SyCvEJw85Cm9b5xH3DkbOD0V111D3a2XzrkJmECFBPIKQcp2j+zVh2dx62Fj4DbgyNTZp6ZeFn8+dXyG1y2CCmuOL2UCJtAaAnUJwb7hC2Stb6wuILUI5M4Djgr7GmJ6TXjvoKGmu4XwoRsLQWvqpTNiAiZQIYG6hGCoMc9zwEJQYc3xpUzABFpDoAghOAQ4IRhwdfnsmseY5znXQtCaeumMmIAJVEggrxCcA2i46APBgO8IfC2PMc9zroWgwprjS5mACbSGQF4h0HcA+sgrOeOo+v1rcRaC1tRLZ8QETKBCAnmFQC9x5eJpqDcBLAQVFqAvZQImYAJ5CeQVAo39/4ewkL2mmPh34B1BHCrfuEWQtzr4fBMwgS4SyCsEMvaHA4vDpHPar81ZCLpYhZ3nzhPwynS5q0ARQlCb4U9f2EKQuz44ARNoFgGvVV1IeeUVgh8DP0r9HgWWjvIBWNqQ5/VbCAqpE07EBJpDoLdGNVG0JPVTuN3IBPIKwfsBzTf0YmAzQDOBaibRNwG35DXs455vIRi53B3RBNpBYMm8mSLQE4V57chfRbnIKwT3DTDWGlIqN+hYOFTOxkJQUa3xZUxgUgi4RVBISeQVAo0SeiOwXvhpf0Uw87EglGP1B6RqISikTjgRE2gOAb8jKKSs8gqBJoLTl8VaPWxt2P8vgGYU1dQTlToLQSF1womYQLMIeNRQ7vLKKwSVGvq5LmYhyF0fnIAJmEAHCeQVAk0VrXUD/h64PPGby2aXctxC0MEa7CybgAnkJpBXCLRegEYOaT3htwJfAS4uxcqPkKiFIHd9cAImYAIdJJBXCOLJ5uL5hTZMvCwewXQXG8VC0MEa7CybgAnkJpBXCOJJ574aFp/fJsw7VKyFHzE1C0Hu+uAETMAEOkggrxC8DdgS+I0gAE+HD8xGNN3FRrMQdLAGO8smYAK5CeQRAn07oO8GJsZZCHLXBydgAibQQQJ5hEACsHJiVACwEHSwBjvLJmACuQnkteV/C2hNgpcCWyV+teiDhSB3fXACJmACHSSQVwgeAtK/NbWogFsEHay+zrIJmEARBPIKQV02f+B13SIooko4DRMwga4RyCsE84GzgEuDZX4ZcORAK11BoIWga9XX+TUBEyiCQF4huBo4A1gV7LyEofJZR2ONsRAUUSWchgmYQNcI5BWCeNRQ/IWxbHLl6xBYCLpWbZ1fEzCBIgnkFYLbw5TT9wRjvDsQf20c2+fKtm4RFFk1nJYJmEBXCOQVgiOAW8NaBEuAh4HXjmD5Ndz0ZuB+YDVw2oBzNg/rG6iFoTgnDIgzLchC0JVq63yagAkUSSCvEMgQbw28Ibwk1lxDo7gdgANCRK13/ACwd+rE94b1jxW8APi/wK+l4kzzWgiKrBpOywRMoCsE8gqBVif7A2CTaRZ5fM+XgMNTp70nrHMwD9gV+E5YDjMV7QWvhaAr1db5NAETKJJAXiH4b8FYPwJ8Afg9QIvVjON2Ab4LbJY6SS0FdR89CTwbWh2pKD3vSSETK6empopk47RMwARMoBME8gpBbJjXD0/0nwd+FAeOsN0UuBs4ZkBcicqHAbUItA6yvmBOi8W009wi6ESddSZNwAQKJlCEEGihes1C+sVgrD86zToP92gRm2XAu4ZEuR44NHHsX4FXJ/wzdi0EBdcOJ2cCJtAJAnmFQC0AjRT6JHDYXH34Ccutp/yrgI8kwtK7nwDeFwK3Ax4HZn0ZbSHoRJ11Jk3ABAomkFcIfhtQt1DsDgE+Hntm2SpeBGiJS32JrN/rgVPCT6fuGNZA/mb4cvnNs6TXO2QhKLh2ODkTMIFOEMgrBDLA+wMfCi0Dvdx9x1wGu6zjFoJO1Fln0gRMoGACWYVgD+Ac4D+BfwvGXyOHanUWgoJrh5MzARPoBIGsQvB8+KJYo3liV9s6BPENWAg6UWedSRMwgYIJZBWCo4HPAY8ClwGvCyOGYptcy9ZCUHDtcHImYAKdIJBVCGJDry+Kjw9zAv0E0EgfzT9Ui7MQdKLOOpMmYAIFE8grBEmDvyWgr3yXJwOr3LcQFFw7nJwJmEAnCBQpBFXa/IHXshB0os46kyZgAgUTsBAUDNTJmYAJmEDTCFgImlZivl8TMAETKJiAhaBgoE7OBEzABJpGwELQtBLz/ZqACZhAwQQsBAUDdXImYAIm0DQCFoKmlZjv1wRMwAQKJmAhKBiokzMBEzCBphGwEDStxHy/JmACJlAwAQtBwUCdnAmYgAk0jYCFoGkl5vs1ARMwgYIJWAgKBurkTMAETKBpBCwETSsx368JmIAJFEyg9ULw3HPPRWvWrInuv/9+/4YwEB9xsjMBE+gmgdYLgYzc2rVro+eff76bJTxHrsVFfMTJzgRMoJsEWi8EaglYBGav3OIjTnYmYALdJNAJIehm0Y6XawvBeLwc2wTaRMBC0KbSzJEXC0EOeD7VBBpOwEJQQQFusskmA69y5ZVXRvvss0+0cOHC6JWvfGW0ePHiXrzTTz89evnLXx694hWviI4++ujo+9//fv/8D3zgA9Huu+8e7bHHHtFNN93UDz/hhBOiBQsW9NLrB0ZRdNZZZ/XS2W+//aLDDz88evzxx5OH+/sWgj4K75hA5whYCNJFvuazUbR05yhaMm/dVv6cbpAQ3HDDDdH+++/fN8w/+9nPoksvvbR3pWXLlkW/+MUvevtnnHFGpJ/c6tWro3333TdSXL3c3W233aJf/vKXvWO33nprdPfdd88Qgh/+8Ie94/pz8cUXRyeffHLfn9yxECRpeN8EukXAQpAsbxn9z82PoiW88JM/pxgMEoJDDz00Wr58efLqA/evvfba6Pjjj+8dU2tAv9gdccQR0e233x57o4ceemiGEPQPRlHv3FNOOSUZ1N+3EPRReMcEOkfAQpAs8l5LICECsSAoPIcbJARbbrll9IMf/GDOVI888sjoM5/5TC/eqaee2t9XwIknnhhdc801/TSGCcF73/veaKedduqJxNNPP92Pn9yxECRpeN8EukWgLiF4KXAzcD+wGjiNwe61wL0hzq2Do7wQumjRohmlN5aBU3dQbPynbefNSHecgKxCcP755/feEcTDX7MKQXyvak2cffbZsXfadixO0860xwRMoOkE6hKCHYADggl/MfAAsPcLJr23t0UQiqkQvm3q+AxvbiGosEVwyCGHzNo1dMUVV0QHHXRQ9JOf/KRfx/J2DT3yyCNDu44sBH3M3jGBzhGoSwjSRvxLwOGpwLcD56fCZvXmFoIK3xFcf/310QEHHBA9+eSTvUr385//PLrssst6+zfeeGO01157RelunFWrVk17Wbzrrrv2XxbrxEFdQw888EC/Ul9yySXRscce2/cndywESRreN4FuEZgEIdgF+C6wWcrKfwT4OHALcDfwltTx2HtSyMTKqampGaU3toGTGBQ8amjevHnRS17ykv7voosu6t3n5Zdf3ntC33vvvXvbOFzDQ9WnryGf+iVH+qi7SKOFNHxUI49id9xxx0Xbb799tMEGG/Su86lPfap36JhjjumlraGoet/w2GOPxadM247NadrZ9piACTSZQN1CsGkw8sfEVj2x/RiwAtgE2Ab4NrBH4viM3dwtgiaXZM57txDkBOjTTaDBBOoUgg2BZcC7Zlj0dQHvBs5NHPs08PsJ/4xdC0H2mmghyM7OZ5pA0wnUJQTzgKsAdf8Mc3sBy4ENgPnAKmDhsMgKtxBkr44WguzsfKYJNJ1AXUJwCBAB3wjDQzVE9PXAKeEX2/u/CiOHJALvjAOHbS0E2aujhSA7O59pAk0nUJcQDLPlucItBNmro4UgOzufaQJNJ2AhaHoJFnT/FoKCQDoZE2ggAQtBAwutjFu2EJRB1WmaQDMIWAhKLqdnnnmm/z3AdtttF+244459v96T6DsBfUegWUUvvPDC6Fe/+lXvju64445+PB3T5HNlOgtBmXSdtglMNgELQap8lt7zWHTwB5dHu5x5XW8rf1HunHPO6a85oDSTcxA99dRT0ete97r+XECaWiKeivqJJ57orTUQ+4u6n2Q6FoIkDe+bQLcIWAgS5S2jv+dZN0Y7n3ld/yd/UWIwmxDoNh588MFoq622mrHGstYe2HbbbfvCkLjlwnYtBIWhdEIm0DgCFoJEkaklkBSBeF/hRbi5hEDX2HzzzaPvfe97vcutWLGi122kloO7hoooAadhAiYwiICFIEFF3UGx8U9uFV6EG1cI4mvqaf3AAw+MfvrTn8ZBhW/dIigcqRM0gcYQsBAkiqruFsGwriHd4mGHHRbdddddibstdtdCUCxPp2YClREoYKJMC0GitOp8R6App7W4fLxwjN4LxC+HH3744WiHHXaI1q5dm7jbYnctBMXydGomUAmBgqbOtxCkSktiUNWoofXWW2/a8NHFixf3h49eddVVvfcDGl6qRe6XLl2autNivRaCYnk6NROohEBBi2lZCCoprcm/iIVg8svId2gCMwgUtLyuhWAG2W4GWAi6We7OdcMJuEUwc346TzqXvVJbCLKz85kmUBsBvyMYXQief/752sqpCRcWHwtBE0rK92gCAwh41NB0MRjUItDoG422sRgMqEBR1OMiPuJkZwIm0E0CrX9H8Nxzz/WMnJ54/RvMQCIgTnYmYALdJNB6IehmsTrXJmACJjA6AQvB6Kwc0wRMwARaScBC0MpidaZMwARMYHQCFoLRWTmmCZiACbSSQKuEAFgbMrQSeDixL3+Xfl3Ou8u+W3U9+X/tep+97GU7W+lUQbrqupx3lXmX8++8d/W/vtv1fmip+x9iKJrWH3DZt76IB2awy+UuIF3PvytFikDXK0SX8++8p/4ZOuTtctkPLeaThh5p/4Eu512l2+X8O+/t//8elsMul/0wJg43ARMwARMwARMwARMwARMwARMwARMwARNoN4HfAb4FfAd494Csvgi4Ohy/A9hlQJwmB82V/z8O31bcC+j3tiZnNnXvlwNPA6tS4bF3HnBJKPtvAAfEB1qwnSvvrwV+GMpc5X52C/IcZ+GlwM3A/cBq4LT4QGLb5rIfJf9tLv9EMa/bXR94ENgN+DXgPmDvVKy3A58MYccFUUhFaax3lPxLCD7W2BzOfuO/EYz7MCF4PXAjIKNwEKAHgba4ufIuQ3BdWzKbyscOCVF/MfDAgP/7Npf9KPlvc/mnqgP8OrAsEfoeQL+k03HFk9sAeCYYhhDU6M0o+W+zEKjw1MIbJgT/APxBooTVctQ/UVvcbHnvkiH4EnB4qlDbXvbJ7A7Kf5fKn98DPpUg8kcDnn5lJHZKxFELYpuEv8m7o+RfQvAkoK6RLwBqVrbJzWYM9UR8SCKzy4FXJfxN350t7zIE/ye0ks+CzFQAAAWmSURBVNUq2qfpmR1y/2LwXWCz1PG2l32c3WH570r59ziMYgi7LgRbA3pPIncy8K9hvy2b2Yxh243BbHmXYdw0FLK6Sb7dlgJP5EP5uxs4JhEW77a97JXP2fLfhfKPy9pdQyN0jfVhAXqnoBeIbXKzGcO2dw/Mlvd0GWsytra0hJW3DUPdf1c6o8Hf9rKfK/9pLG0r/2n5U5//GmDXxMvidBP41NTL4s9PS6HZnlHyn+wT/11gRbOzPOPuZzOGb0i9LL5zxtnNDpgt79sn3oW9OnSf6KV5G5zycRXwkVky0+ayHyX/bS7/gcWuZq9GDajv/3+EGOcBR4X9jYBrwhBCGQKNMGqTmyv/HwxD7DSiSkPu9mxR5v9XeP/xC+Ax4E+AU8JP2dQ/zMdD3fhmy94PzJX3P0+Uu8T/4BaVu977ROG9VzwsWv8HXSn7UfLf5vJvUVV2VkzABEzABEzABEzABEzABEzABEzABEzABEzABEzABEzABEzABEzABEzABEzABEzABEzABEzABAYTODoMFRxl2Os7gfmJZG4Atkj4q9rdMUznUdX1hl1Hw6h/a9hBh5uACZhAUwhoCvHbgHNHuOFWfz05Qv6TUfQVuZ0JmIAJNJ6A5lJ5HNgjrDkRZ0hG7sIw66gm03sH8BfAc4A+HNOHc3JJYdBUBJp3Sj+1HOT0Ze5/AJeFj6++AmwcjiU3/zOsa3B7+JJdc1zJ6YO1xSFNXfdNITz5xa++dNeHjPrwSff6shDnzYlwTYeQNtxaZ0IfQsYuOZvkJwAtUq65+JMCqfxeANwDaMp13Xd8r1qP4K5wr5cmvjq+JZyje9SHmYeGCw5irEOLgFvDHD+a2Tf55Xp8r96agAmYQGEE/hD4dEhNRlhGSO7PQteLptiQ2ypsk4ZfQbFf58lQbxIm6pIB3T8IwS+BV4bzNf2IDHTayaDKKK8X5r3XIkhyxwL/Oxjx7cI0DjKMSSH4KKB8yGnNDAnNXsA/h/lyFP73wFvWRen/Vd40q6buWU7GP763OL8y1jLk+4Y4yu8ZYV+bpBDE5yj8M8B/D/F0/kVhX1/n/kvYH8RY89uoHBaEOBI+LZBjZwImYAKlEdAMkvE883riVytA7ouJ8BDU28SGPw6L/VrBSv3lsXt/aEHIYCdn5TwTOCuOlNjKoMbGXME/Dsc+DJyYiCcDq6lNkkJwfHhyV9pxa0Cf/z+RWD1M6yS8L5FOvKsndz3Zx6KgRVjkNJWCnvrVwlgb4ihc+d15XZTe36QQSLS0MI8EUa2seDU/CcF/DedIzGKRG8R4IfCjxH0rLbWi7EzABEygFAJ6gv1/wCPBwD2amDhtkJHSTcSGP76h2D+bEKirKHanDzHISYOquM+GE0YRAkXdPQiPROc3Q1eW5oCayynutcARYav4mmBRxnrLcLLuTWtOyMX5Dd5+i0DzbT2VWItCohMLj4QgXqNBs5MqDblBjF8B/Hs47o0JmIAJlE7gJEB950mnvmkt0agnYi2yk+4a0hOqDGXsYsOotYr19KwRRepqkfGPu4byCIHmwVc/ubpo1F0i0dKsj8kWgSY51LsEObVo9H5Cy6lKFLYN4RK95JN8CO6lqzyoW+qNIXC/sNiMuqn0BC8DP5cQaOSU4qlbSu9dlOe5hGAQY3VtSYTiFf/UVZSe7Te+d29NwARMIDcBvfDVC9OkU/eQ+solAH8XFi/XrKrqapHTS2N1s4zzsjiPEIzyslhdMHonoZfFNyXeZ6h/PX6BrMVVtKbyIKf1ptUCSQ6LVStAL3a14ppaDHMJgdI9P8zC+jXgihGEYBhjvU/5ahAj5etPB920w0zABEzABEzABEzABEzABEzABEzABEzABEzABEzABEzABEzABEzABEzABEzABEzABEzABEzABEzABEzABEzABEzABEzABEzABJpJ4P8D5yWkCbfid7QAAAAASUVORK5CYII=;" vertex="1" parent="1">
          <mxGeometry x="2770" y="-2322" width="684.34" height="464.5" as="geometry" />
        </mxCell>
        <mxCell id="L8zPbytYUb-S9XU9Fr7O-4" value="" style="shape=image;verticalLabelPosition=bottom;labelBackgroundColor=#ffffff;verticalAlign=top;aspect=fixed;imageAspect=0;image=data:image/png,iVBORw0KGgoAAAANSUhEUgAAAYIAAAEGCAYAAABo25JHAAAgAElEQVR4Ae2dC/QdRX3Hv0EoyFPeD+GfAC2GNySK+BcKaOH0ILUI1iJqq6iAQLXlcAjCn1AeNccTqEIjKmAwPKpA5F8gEmIbET3FBAICJnhEEh4Nz8BRVBR5bc/vZvZm7mbvY+/eu8/PnLP/3Zmd3Z35zNzf9z8zuzMSDgIQgAAEIAABCEAAAhCAAAQgAAEIQAACEIAABCAAAQhAAAIQgAAEIAABCEAAAhCAQKEJbLnllsHUqVPZYEAdoA5QBxLUAUmrCm3ckyTORAAHAQhAAALJCEhaksTWFjouQpCs8IkNAQhAwAggBNQDCEAAAjUngBDUvAKQfQhAAAKVF4JXX301WLFiRfDwww+ztWFgfIwTDgIQqCeByguBGblVq1YFb775Zj1LuEuujYvxMU44CECgngQqLwTWEkAEOldu42OccBCAQAkJrLguCMYnBsH1E1bvzZ/Q1UIIEjKpZXSEoJbFTqbLTsCM/nc3DILrtWYzf0IxQAjKXhEGlH6EYEAguQ0EsiTQaAl4IhAKgoUncAhBAlj9Rt1oo41iL50zZ06w5557BnvttVew3377BTNnzmzEO+OMM4J3vOMdwd577x0cffTRwa9//evm9V/60peCXXfdNdhtt92CO+64oxn+qU99Kth6660b92sGBkEwNjbWuM++++4bHH744cFTTz3ln24eIwRNFBxAoDwErDsoNP4t+wmJ8oAQJMLVX+Q4Ibj99tuD/fffv2mYX3nlleCKK65oPGDBggXBa6+91jg+88wzA9vMLVu2LNhnn30Ci2uDu7vsskvw+uuvN87dddddwX333beWELz00kuN8/bn0ksvDU466aSm3z9ACHwaHEOgJATGJwbjsw4JRsdmB5Om3drYm78xZpAgCwhBFNYABl6it4wTgoMPPjhYuHBhNOpa/ptvvjk4/vjjG+HWGrAtdEcccURw9913h97gscceW0sImieDoHHtySef7Ac1jxGCJgoOIFAaAuMLbggmnzU3mDhtXnMzv4UncQiBT2tAAy/+Le04Tgg233zz4De/+U006lr+o446Krj22msb4aeeemrz2AJOOOGE4Kabbmpe004Izj777GDHHXdsiMTzzz/fjO8fIAQ+DY4hUA4CozMWNgXAFwMLT+IQAp/WgAZe/Fvacb9CcNFFFzXGCMLXX/sVgjA91pqYPn166G3ZIwQtOPBAoBQEJnktAV8ILDyJQwh8WgMaePFvacdxQnDQQQd17Bq6+uqrgwMPPDB4+eWXm7dL2zX0xBNPtO06QgiamDmAQGkI0CKImQc1bvbRRAYuwxbB97///WDKlCnBM88806h0f/rTn4Irr7yycTx//vxg9913D6LdOEuXLm0ZLN55552bg8V2YVzX0COPPNKs1Jdddllw7LHHNv3+QSJO/oUcQwACuREYv39lMHlsfkv3kPktPImjReDTGtIYwYQJE4K3v/3tze2SSy5pPHX27NmN/9D32GOPxj4Mt9dDrU/fXvm0zX/Tx7qL7G0he33U3jwK3XHHHRdst912wbrrrtt4zlVXXdU4dcwxxzTuba+i2njDypXxFQQhCEmyh0C5CJjRt5aBdQfZPqkIWG4RgmiZD+GtoegjiuhHCIpYKqQJAtkQQAiy4Vz4pyAEhS8iEgiBoRHIWwjeIulnkubFdPmvL+kGSY9KWixpUkyclqDUYwRDw1z8GyMExS8jUgiBYRHIWwhOl/SfbYTgFEnfcJb+OCcKLYY/6kEI+q8mCEH/7LgSAmUnkKcQ7ChpoaT3tRGCBZLe44z9upJekDQhavx9P0LQf3VECPpnx5UQKDuBPIVgrqSpkg5tIwRLJZlYhG65pK1CT9weIei/OiIE/bPjSgiUnUBeQnCUpMudMU8rBCe6TCwZGRlZqzwwcGshiQ2AUywWAktAYBCvT5Ygm0NNYl5CMEPSSkmPS3pW0h8kXRf5L78SXUMvvPBC83uAbbfdNthhhx2afkmNY/uOwGYVvfjii4M33nijUeCLFy9uxrNzNvncMB1CMEy63HtYBEwEBvFB1bDSV5b75iUEvs1v1yI4NTJYfKN/Udxx0buGzjvvvOaaA1ZB/KknnnvuueD9739/cy4gm1oinIr66aefbqw1EPqHUbkQgmFQ5Z7DJjCoKRaGnc6i379oQnCBpA86I7+BpJvc66P3SNolzvj7YYMQgmE2MzsJgVWU5cuXB1tsscVaayzb2gPbbLNNUxiGUakQgmFQ5Z7DJjCoSdeGnc6i378IQuDb8lTHaYVg2M3MbkJglWWzzTYLnn322Ua9WbRoUWDdRtZyoGuo6D8l0pcHAVoEg6GOEHgch12pkgpBmDT7b/1d73pX8Mc//jEMGvieFsHAkXLDDAgM+5+3DLJQiEcgBF4xDLuZ2U0I2nUNWRIPO+yw4N577/VSO9hDhGCwPLlbdgRsNa7Rc+esXqrx3DmJV+fKLqXFfRJC4JVNni0Cm3LaFpcPF46xcYFwcPjxxx8Ptt9++2DVqlVeagd7iBAMlid3y4jAkGYMzij1hXkMQuAVxbCbmdEWwTrrrNPy+ujMmTObr49ec801jfEBm4baFrkfHx/3Ujr4Q4Rg8Ey5YwYEhrSGSAYpL9QjEIJIcQzzraHIowrlRQgKVRwkplcCQ1pVsNfHVyUeQlCVkkyZD4QgJUAuz4cALYKBcEcIBoKx/DdBCMpfhrXMAWMEAyn2WgjBm2++ORBYVb2J8UEIqlq6NchXTVcVHGTJVl4I7O0be9sGMYivNsbF+BgnHAQgUE8ClReCV199tWHk7D9etngGJgLGCQcBCNSTQOWFoJ7FSq4hAAEI9E4AIeidFTEhUFwC9JMXt2xKkDKEoASFRBIh0JEAb850xMPJ7gQQgu6MiAGBYhPgXfpil08JUocQlKCQSCIEOhLg69qOeDjZnQBC0J0RMSBQbALjE4PxWYcEo2OzV8/AOTa74Q+spYCDQA8EEIIeIBEFAkUmYNMwTz5rbjBx2rzmZn4Lx0GgFwIIQS+UiAOBAhMY9vTpBc46SRsQAYRgQCC5DQTyIjDsBZXyyhfPzY4AQpAda54EgaEQoEUwFKy1uilCUKviJrNVJDDsBZWqyIw8tRJACFp54INAKQnUdUGlUhZWARONEBSwUEgSBCAAgSwJIARZ0uZZEIAABApIACEoYKGQJAhAAAJZEkAIsqTNsyAAAQgUkABCUMBCIUkQgAAEsiSQlxBsIOkeSQ9KWibpfK3tPilplaQH3PaZtaO0hkydOjVLdjwLAhCAQCUI5CUEEyRt7Mz4epIWSzqw1azLhGBWJKyjFyGoRJ0kExCAQMYE8hIC36BvKOl+Se/2AyWEIOO6wOMgAIGaEshTCN7iunx+L+nLEREwr7UInpH0kKS5knaKiWNBJ7pMLBkZGalpMZJtCEAAAv0TyFMIQrv+Nkl3StorDHD7LSWt745PkvTDyPm1vHQN9V8RuBICEKgvgSIIgRn06ZLOWMuyrwmw1sNLa7zxRwhBfSsyOYcABPonkJcQbC3JWgLm3irpJ5KOcv5wt314IOlDkhZ5/thDhKD/isCVEIBAfQnkJQT7SPqZ6/9f6loEZtwvkPRBZ+VnuFdL7RVT6zqaHGv9vUCEoL4VmZxDAAL9E8hLCDzzPbhDhKD/ilCJK1dcFzTW6bXF3G29XvPjIACBrgQQgq6IiFAKAmb0v7thEFyvNZv5EYNSFB+JzJcAQpAvf54+KALWAvBFIDy2cBwEINCRAELQEQ8nS0PAuoNC49+yn1CaLJBQCORFACHIizzPHSwBWgSD5cndakUAIahVcVc4syuuC8YvPzwYHZsdTJp2a2NvfsYIKlzmZG1gBBCCgaHkRnkSaCzgfs5twcRp85rb5HNuCywcBwEIdCaAEHTmw9mcCIwvuCEYPXfO6v/uz50TmL+TG52xsCkAvhhYOA4CEOhMACHozIezORAwoz/5rLktht38ncRgktcS8IXAwnEQgEBnAghBZz6czYGAtQR8Yx4eW3g7R4ugHRnCIdCdAELQnRExMiZgg72h8ff3Ft7ONcYIxua3XDd5bD5jBO2AEQ4BjwBC4MHgsBgE+mkRWMpNDKxlYN1BtmeguBjlSSqKTwAhKH4Z1S6F/YwR1A4SGYbAAAmkFQJbJ6AwjknnBlgzcr6ViUGSt4ZyTi6Ph0CpCaQVghWSZkraowhqgBCUui6SeAhAICcCaYVgE0mflXS3WzjG1g/eNC9RQAhyqkXdHsv00N0IcR4CuRJIKwS+zT9E0lOSXpY0R9Kf+yezOEYIcq1L8Q9neuh4LoRCoEAE0gqBjRHYimLjbsWx0yVtK+nDkh7Jwvj7z0AIClSzwqQwGVxIgj0ECksgrRDYGMG3JI36BtkdXxYTNtQghKCA9YzpoQtYKCQJAq0E0grBxkO17AlvjhC0Fm4hfOMTg/FZh7TOCjrrkNVLSRYigSQCAhBIKwS7SLpN0guSnpd0iyQLy8UhBMWr0HwTULwyIUUQiBJIKwSLJH1C0rpu+7ikxbmogCSEIFq8+fuZAyj/MiAFEOhGIK0QPBRj9B+MCcskCCHoVtzZn2dW0OyZ80QIJCWQVgi+LOksSZMkTZR0pqQZkrZwWyYCED4EIUha/H3GT/BdAC2CPhlzGQQyJJBWCB6T1G6zN4oydQhBBjUn4ZKQzAqaQZnwCAikJJBWCDI19N0ehhCkrA09XD5+xbHxi8ZccWzbq5kVtC0aTkCgEATSCsF6kj4vaa7bTpNkYbk4hGD4dcoWh/fXCAiPLRwHAQiUk0BaIbjKTSfxPkm2XS3JwnJxCMHwK+Gkaa0LxIdCYOE4CECgnATSCkHcG0JxYVFh2EDSPZIs7jJJ50cjSFpf0g2SHnWvpNqAdEeHEAy/Eo5eeEt8i+DCW4b/cJ4AAQgMhUBaIbhf0q6edbaPySysm5sgKfwq2bqS7NuDAyMXnSLpGy7sOCcKkSitXoRgKHWk5aaNwd9zWlsFk8+5jdXAWijhgUC5CKQVAusOelLSjyTdJelxSYe1mueuvg2deLw7EnOBpPe4MPtgzb5eNgFp6xCCbCofg7/ZcOYpEMiKQBohsJlH/8V14ewjyTbrzunV2fUPSPq9JPseIeqWStrRC1wuaSvPHx7aGghLbBsZGcmKW3Wek+CbgOpkmpxAAAI+gTRCYIbY+vnTurdJulPSXpEb9SoEzctoEfhF28MxawX0AIkoEKg+gbRC8BVJsyQdLGmKtzWNc48H0yWdEYlL19Cw6x9rBQybMPeHQCkIpBUC+08+uv0wYtDjvFtLspaAubdK+omko5w/3J0aGSy+MTzRbk+LIGGdY62AhMCIDoFqEkgrBHFTTseFRW23jSf8TJJNWmddQNYiMHeBW/HMju0V05vc66PWBdX1vghBwkrKWgEJgREdAtUkkFYI4l4VvW+1Tc/+L0KQrJKyVkAyXsSGQFUJ9CsEkyUdK8ne5DnG2z7pPhDLXgVYjyBxHWVm0MTIuAAClSTQrxD8rZtO4kW3t6klbLN1iuPWL85EGGgRJKujrBWQjBexIVBVAv0KQWjYww++Qn+ue4QgWTWlRZCMF7EhUFUCaYXA3v45W9IVkmZ7Wy6CgBAkq6asFZCMF7EhUFUCaYXgbvdV8EfcmIGNG9iWi0MIkldTpotIzowrIFA1AmmFwKaIKIxDCKpWPckPBCCQBYG0QnCRpCOLogS1FwLmDcriN8MzIFA5AmmF4HeS3pT0iqTfSjK/7XNxtRYC5g2q3I+TDEEgKwJphSAXg9/uobUWAuYNyuo3w3MgUDkCaYXA1gf4uKRznXHeSdIB7Qz1sMNrLQTMG1S5HycZgkBWBNIKwdclfU3SL5yR31zSvcM2+O3uX2shoEWQ1W+G50CgcgTSCkE415BNIBe6XtYsDuMOdF9rIWCMoHI/TjIEgawIpBUCW2vYVhoLBcE+MPNFYaCGvtvNai0EQRDYJHKj584JJk27tbE3Pw4CEIBANwJpheBjkm6VtFLSv0n6paS/62awh3W+zkLAV8LdqjrnIQCBdgTSCoHZdJuJ1BaROU3S7sMy8r3ct85CwLxB7ao44RCAQDcCgxCCXmx0JnHqLATMJNqtqnMeAhBoRwAhaEemZOG0CEpWYCQXAgUigBAUqDDSJIUxgjT0uBYC9SaAEBS1/PuYN4iZRItamKQLAsUm0K8QhHMK2bxCcVsmYwLRh1RmjIBvAor9qyF1EKgYgX6FILTBF0o6RdImkjaV9DlJF4Qns95XRgj4SrhiPzOyA4FiE0grBHFfEceFZaIJlREC5g0q9q+G1EGgYgTSCoGtUGYfldnXxeu4YwvLxVVGCMYnBuOzDglGx2av/kp4bHbDH1hLAQcBCEBgwATSCsEkSbdIekHSKkn/JcnCcnFVEQKbGmLyWXODidPmNTfzM2XEgGs/t4MABBoE0gpBLga/3UOrIgR8E8CvEwIQyJJAWiHYwE0vcbmk2d7WzlYPNbwqQsBXwln+BHgWBCCQVghukmRvDi2X9I+SfiDp0h6svS1gc6ekhyUtk/SFmGsOlfSSpAfcNj0mTktQVYSAFgE/TAhAIEsCaYUgnHL6IWeR15O0qMU6x3u2lzTFnbJXTx+RtEckqgnBvEhYR29VhICvhLP8CfAsCEAgrRDc4yzzjyXtJWkrSSs6Wuv4kzbgfHjkVG2FwKolXwnz44QABLIikFYIPiPJlqc8xAnA85JOihj0bl57y+hJ90GaH9eE4EVJ9l3CfEl7+ifjjqvSIsiq8HkOBCAAASOQVgji7HGSsI0l3SfpmJiL7EtlO2/uSEm/csfR3YkuE0tGRkYoVQhAAAIQSEggrRBsJukroSGWdLEkC+vF2XjCAkmn9xJZ0uOu66ltdFoECUuf6BCAAAQG0CL4nqTzJe3itvMk3dzWUq85MUHSNZK+uiZoraPtJFk8cwe47qPQ74JbdwgBdRoCEIBAcgJpWwT2amfUxYVF4xwkyfql7G2j8PVQ6/452W0W35a+tFdLbYzA3kQajd4k6i+0EPQxrXTy4uQKCEAAAskJpBWCn0oyox6690qysFxcYYWAaaWT10yugAAEMiOQVgj2c/+xW//9E5Lsu4J9clEBSYUVAqaVzqxC8yAIQCA5gbRCENp8e8PHNpuF1GYjzcUVVgiYVjp5zeQKCEAgMwL9CoEZ/S9KmuU+BLNBXOvTf8zNRooQ+EXItNI+DY4hAIGCEehXCOxL4G+7j8dulPQjSXdJsq6i3FxRWwRMK12wWk9yIACBFgL9CsHPPWtv3UH2RbHNRJqrK6oQMIlcS53DAwEIFIxAv0Jwf8TiR/2R09l4iyoETCtdsFpPciAAgRYC/QrBG5J+67bfSXrdO7bwXFxRhYAWQUudwwMBCBSMQL9CkIuh7/bQogoB00oXrNaTHAhAoIUAQtCCY3geppUeHlvuDAEIpCOAEKTjx9UQgAAESk8AISh9EZIBCEAAAukIIATp+HE1BCAAgdITQAhKX4RkAAIQgEA6AghBOn5cDQEIQKD0BBCC0hchGYAABCCQjgBCkI4fV0MAAhAoPQGEoPRFSAYgAAEIpCOAEKTjx9UQgAAESk8AIeinCFl/uB9qXAMBCBSUAEKQtGBYfzgpMeJDAAIFJ4AQJC0g1h9OSoz4EIBAwQkgBEkLiPWHkxIjPgQgUHACCEHSAqJFkJQY8SEAgYITQAiSFhBjBEmJER8CECg4AYSgnwLiraF+qHENBCBQUAIIQUELhmRBAAIQyIoAQpAVaZ4DAQhAoKAE8hKCnSTdKelhScskfSFmPeIJki6T9KikhyRNiYnTElTUNYsLWvYkCwIQgECDQF5CsL1n2DeR9IikPVqsunSkpPmSTBAOlLQ4cn4tL0JArYYABCCQnEBeQhA14rdIOjwS+E1JH/XCfinJBKStQwiSVwCugAAEIFAEIZgk6UlJm0Ys/DxJB3lhCyW90/OHhye6TCwZGRmhRCEAAQhAICGBvIVgY0n3STomtOrevlchaF5CiyBh6RMdAhCAQBAEeQrBepIWSDq9aclbD+gaoopCAAIQyIBAXkJgA8DXSPpqq+1v8X0gMlh8T8vZGA8tggxqDI+AAAQqRyAvIbC+f2uO2GuhD7jN3hI62W1m5k0sviZpuaSftxkfaJEDhKBy9ZMMQQACGRDISwhaDPigPAhBBjWGR0AAApUjgBBUrkjJEAQgAIFkBBCCZLyIDQEIQKByBBCCyhUpGYIABCCQjABCkIwXsSEAAQhUjgBCULkiJUMQgAAEkhFACJLxIjYEIACByhFACCpXpGQIAhCAQDICCEEyXo3Y4/evDEZnLAwmTZvX2JsfBwEIQKCsBBCChOsPm9GfPDY/mDhtXnMzP2JQ1p8A6YYABOotBCYC390wCK7Xms38Ft7GWUvAF4Hw2MJxEIAABMpIoN5CMD5xjQD4YmDhbZx1B4XG399bOA4CEIBAGQnUWwiunxAvBBbextEiaAOGYAhAoLQE6i0EfbQIGCMobV0n4RCAQBsC9RaCPsYIjKOJAW8NtalRBEMAAqUjUG8hsOJK+NZQ6UqYBEMAAhDoQgAh6AKI0xCAAASqTgAhqHoJkz8IQAACXQggBF0AcRoCEIBA1QkgBFUvYfIHAQhAoAsBhKALIE5DAAIQqDoBhKDqJUz+IAABCHQhgBB0AcRpCEAAAlUngBBUvYTJHwQgAIEuBBCCLoA4DQEIQKDqBBCCqpcw+YMABCDQhQBC0AUQpyEAAQhUnQBCUPUSJn8QgAAEuhDISwhmS3pe0lLFu0MlvSTpAbdNj4/WGjp16tQu2eU0BCAAAQhECeQlBH8paUoXIZjXaua7+xCCaPHihwAEINCdQF5CYFZ9EkLQvYCIAQEIQGDYBIosBC9KelDSfEl7dmgPnOgysWRkZGTYvLg/BCAAgcoRKKoQbCppY2f8j5T0qw5C0DxF11Dl6icZggAEMiBQVCFoGnd38LikraKBUT9CkEGN4REQgEDlCBRVCLaTNMEZ+gMkPen5o/a/6e9HCFh/uHJ1mgxBAAIJCeQlBN+R9Iyk1yStlPRpSSe7zQz7aZKWuTGCRZJGm9a+w0FSITARmDw2P5g4bV5zM7+F4yAAAQjUhUBeQtDBnPd/KqkQjM5Y2BQAXwwsHAcBCECgLgRqLQSTvJaALwQWjoMABCBQFwK1FgJaBHWp5uQTAhDoRKDWQsAYQaeqwTkIQKAuBGotBFbIvDVUl6pOPiEAgXYEai8E7cAQDgEIQKAuBBCCupQ0+YQABCDQhgBC0AYMwRCAAATqQgAhqEtJk08IQAACbQggBG3AEAwBCECgLgQQgrqUNPmEAAQg0IZApYRA0iqXoSWSbMZS29dxq3PeKft61vm6l3va/JvtrKQzMHV1dc67lXmd80/e6/qrr3e9b1vq/CDaoqn8Ccq+8kUcm8E6l7sBqXv+qRQRAnWvEHXOP3mP/Bhq5K1z2bctZlvLuK6uznm3Mq9z/sl7XX/19a739S11cg4BCEAAAhCAAAQgAAEIQAACEIAABOpN4K8l/VLSo5LOikGxvqQb3PnFkibFxClzULf8f9J9W/GAJNs+U+bMRtI+W9LzkpZGwkPvBEmXubJ/SNKU8EQF9t3yfqikl1yZW7lPr0CewyzsJOlOSQ+7dc2/EJ7w9lUu+17yX+Xy94p59eFbJC2XtIukP3ML3e8RiXWKpG+4sOOcKESilNbbS/5NCGaVNoedE/6Xzri3E4IjJc2XZEbhQEn2j0BVXLe8myGYV5XMRvKxvSfqm0h6RFL0d1/lsu8l/1Uu/0h1kN4jaYEX+kVJtvnOzls8c+tKesEZBhdU6l0v+a+yEFjhWQuvnRB8U9JHvRK2lqP9iKriOuW9TobgFkmHRwq16mXvZzcu/3Uqf31Y0lUekU/E/PdrRmJHL461ILby/GU+7CX/JgTPSLKukbmSrFlZJdfJGNp/xAd5mV0o6Z2ev+yHnfJuhuBF10q2VtGeZc9sm/QbgyclbRo5X/WyD7PbLv91Kf8Gh14MYd2FYEtJNk5i7iRJP3THVdl1MoZVNwad8m6GcWNXyNZN8quqFLiXD8vffZKO8cLCw6qXveWzU/7rUP5hWdM11EPXWBOWJBtTsAHEKrlOxrDq3QOd8h4tY5uEsCotYcvbeq7unx7NqPNXvey75T+KpWrl35I/6/NfIWlnb7A42gQ+NTJYfGPLHcrt6SX/fp/4hyQtKneW10p9J2P4gchg8T1rXV3ugE55384bCzvAdZ/YoHkVnOXjGklf7ZCZKpd9L/mvcvnHFrs1e+2tAev7P8fFuEDSB93xBpJucq8QmiGwN4yq5Lrlf4Z7xe5B98rd5Apl/jtu/OM1SSslfVrSyW6zbNoP5muubvy8YuMD3fJ+mlfuJv6jFSp3G/cJ3LhX+Fq0/Q7qUva95L/K5V+hqkxWIAABCEAAAhCAAAQgAAEIQAACEIAABCAAAQhAAAIQgAAEIAABCEAAAhCAAAQgAAEIQCCewNHuVcFeXnv9Z0kbere5XdLbPH9Whzu46Tyyel6759hr1H/V7iThEIAABMpCwKYQ/4mk83tIcKW/nuwh/34U+4ocBwEIQKD0BGwulack7ebWnAgzZEbuYjfrqE2m90+SPi/pVUn24ZjNVW/OFwabisDmnbLNWg7m7MvcX0i60n189QNJb3Xn/N233boGd7sv2W2OK3P2wdpMd0977t+7cP+LX/vS3T5ktA+fLK1/4eJ83Au36RCihtvWmbAPIUPnzyb5dUm2SPmyiEBafr8s6X5JNuW6pTtMq61HcK9L6xXeV8c/ctdYGu3DzIPdA+MY26mpku5yc/zYzL7+l+thWtlDAAIQGBiBj0n6lrubGWEzQuY+57pebIoNc1u4vW/4LSj023VmqDdyE3WZAd3fCcHrkvZz19v0I2ago84Mqhnlddy897YIkrljJf23M+LbumkczDD6QvAfkiwf5mzNDBOa3SXd5qoUlCoAAALJSURBVObLsfDLJf3D6ijNv5Y3m1XT0mzOjH+YtjC/ZqzNkO/j4lh+z3THtvOFILzGwq+V9Dcunl1/iTu2r3P/xx3HMbb5bawctnZxTPhsgRwcBCAAgaERsBkkw3nm7T9+awWY+54X7oIau9Dwh2Gh31awsv7y0F3oWhBmsP1ZOadJGgsjeXszqKExt+DfuXNfkXSCF88MrE1t4gvB8e4/d7t32Bqwz/+f9lYPs3US/tW7T3ho/7nbf/ahKNgiLOZsKgX7r99aGKtcHAu3/E5cHaXx1xcCEy1bmMcE0VpZ4Wp+JgTvddeYmIUiF8d4L0m/9dJt97JWFA4CEIDAUAjYf7B/kPSEM3D/502cFmekLBGh4Q8TFPo7CYF1FYXujDYG2TeoFvf37oJehMCi7uqEx0Tnfa4ry+aA6uYs7s2SjnB7i28TLJqx3txdbGmzNSfMhfl13maLwObbes5bi8JEJxQeE4JwjQabndTuYS6O8d6SfurOs4MABCAwdAInSrK+c99Z37Qt0Wj/EdsiO9GuIfsP1Qxl6ELDaGsV23/P9kaRdbWY8Q+7htIIgc2Db/3k1kVj3SUmWjbro98isEkObSzBnLVobHzCllU0UdjGhZvo+f/Ju+DGfS0P1i31ERe4r1tsxrqp7D94M/DdhMDenLJ41i1l4y6W525CEMfYurZMhMIV/6yrKDrbb5h29hCAAARSE7ABXxsw9Z11D1lfuQnAv7vFy21WVetqMWeDxtbNkmSwOI0Q9DJYbF0wNiZhg8V3eOMZ1r8eDiDb4iq2pnKcs/WmrQXivxZrrQAb2LUV16zF0E0I7L4XuVlY/1fS1T0IQTvGNp7yYydGlq/PxiWaMAhAAAIQgAAEIAABCEAAAhCAAAQgAAEIQAACEIAABCAAAQhAAAIQgAAEIAABCEAAAhCAAAQgAAEIQAACEIAABCAAgXIS+H9FkeZiZSxaPQAAAABJRU5ErkJggg==;" vertex="1" parent="1">
          <mxGeometry x="2758.58" y="-1857.5" width="707.17" height="480" as="geometry" />
        </mxCell>
        <mxCell id="L8zPbytYUb-S9XU9Fr7O-6" value="" style="shape=image;verticalLabelPosition=bottom;labelBackgroundColor=#ffffff;verticalAlign=top;aspect=fixed;imageAspect=0;image=data:image/png,iVBORw0KGgoAAAANSUhEUgAAAYIAAAEGCAYAAABo25JHAAAgAElEQVR4Ae19B7gdVbX/wvJ/76mPIl0lUgSkdwkCKiIq5fGQoqAgAooITxFEbnpPIA2SkJAEQkJCIJUESEjvjfReSC8QUiEJhPRk/b/f7Fnn7DNn5tQ5Z+beu9b33btn9uz62/vstcvaaxEpKQKKgCKgCCgCioAioAgoAoqAIqAIKAKKgCKgCCgCioAioAgoAoqAIqAIKAKKgCKgCCgCioAioAgoAoqAIhBrBI4//ni+4oor9E8x0D6gfUD7QB59gIi2xXpwz6dwYAJKioAioAgoAvkhQESz8xlrYx1WGUF+ja+hFQFFQBEAAsoItB8oAoqAIlDNEVBGUM07gFZfEVAEFAFlBNoHFAFFQBGo5ggoI6jmHUCrrwgoAoqAMgLtA4qAIqAIVHMElBFU8w6g1VcEFAFFQBlBXPrAl58yL3o7LqXRcigCikA1QkAZQVwau9dvmBsezfzZuriUSMuhCCgC1QQBZQRxaehONQ0j2LQoLiXScigCuSHQ+27moU/nFlZDxRIBZQS5NMuQp5iXj8wlZOFhulxvGMHHcwpPQ2MqAlEggJUs/pQqLQLKCHJpunJ09Fd/YX5M6z/IpUQaRhGIDwLl+H3Ep7ZVsiTKCHJp1nJ09B63GkawekIuJdIwikB8ECjH76NctT18mBl/1YyUEeTS4OXo6HJYvGJULiXSMIpAfBAox++jXLVtfTZzmx+WK7fY5KOMIJemKEdHf/N3ZkWwbGguJdIwikB8ECjH76Ncta1KdckDM2UEuYBVjs7R7wHDCEp5l+DIEebBjzOvnZJLrTWMIpAbAuX4feRWkuJDVaW65IGGMoJcwCpH5xj4Z8MI5vfJpUSFhTl0wOTR6NjC4mssRcAPgXL8PvzyLYVfVapLHvgoI8gFrHJ0jnceN4P07NdzKVFhYYQRoD5KikBYCJTj9xFWWbOlU5Xqkq2u1ndlBBYYgY/l6BxD/mkYwYxXAotR9IeD+00eygiKhjKuCWz/Yh+v3ba7vMUrx++jXDUKoS7rtu/mRR/vLFeJQ8lHGUEuMIbQObJmM6zCDNLTOmYNWnCAg/uUERQMXuaIhw4f4Xfnb+SDh6IVPbywwQj+fkWZBQ7K8fvIDH94X0OoC/AvexsUiYAyglwADKFzZM1mVH0zSE9qmzVowQEO7FVGUDB4mSO+Omm18+MfMPujzAFL/DWSQUh+HxBGqOwkdSmiHtIGByKeFORTBWUEuaAVQufIms3YZmaQHv9c1qAFB1BGUDB02SI2f3+pwwjajPwwW9CSfpdBKJHJ/i8TjyV7kN8HVpyVnaQuRdRD2uCTnXuKSKW8UZUR5IJ3CJ0jazYTWhlGMKZx1qAFBziwR1cEBYOXOWKTIUscRvBor1mZA5b4qwxCTjbrp5v2XjG6tLnK72PvrtLmU47UpS5F3C6WNpi/YUc5ShxKHsoIcoFROkcuYQsNM7G1+dGOqFNoCtnjYXZYjrpkL0mVC1ExcIHDCO57JVpdUTIIOQBPfcm0N86fSknSp77YWspcypO21AWTpgJJ2mDk4k0FplD+aMoIcsFcOkcuYQsNI4yglOp89+9WRlBo+2SJ9/ibcxxG8Nsu07KELO1nGYScXCCBhr4LibRSkvw+dkZ7PhJKFaUuez4rOLlz6g5z+kKvDyqPbZGoGMF/EtFMIlpAREuIqDH502+JaKkb5i3/IEnfK664ouDGyxhROkfGQEV+nOhuDQ16rMiEMkTf94UyggzwFPPpT91nOD/+ezrHiBHM6WnaG7fJS0ny+9i+qpS5lCdtqcvnmwvO76pmo52+EPV5UT4ViIoRHEVE33KH8K8T0Qwiqpkc0p2ns4loHhEd5/qf5Pme9loSRgBJCOkcRewbZm0UOSPo+4esQQsOoIygYOiyRcSWEGbjd748NVvQ0L/P27CDJyw32zIpK4L5fU3fHfhIUXkeOXKEXxy9nD/6LODgWX4fnywoKp9YRJa6FGEp8EqXETzTf34sqpRLIaJiBPYg/g0imktEV9ueRNSKiP7s8cv4WhJGgMFfOse+z3PBNGOYJRt38fn1h3OaRMGEliafXndkjF/UR5Rf6lJUQhrZiwAYAAbh/+1Yfj1O9uAvz4cPH2FePMi0d9/7vcXN63311i+cut3cbpJ/POlT60rLBMGIek8v8XaL1GXrcv+65uB7aeORDl73d5seHBrbaDGyRhglI/gqEc0not1E1NJnhH/HZQZTiWg6Ef3aJ0yKV8kZwa5Pghs2xy//99Zcp5O8PceznyqMAAZqSkWQ6pCOXqo8qmm6t3aY5LTr7S9NzhuBKSu3OXE/3b0/77iIIIO//Tx15TZmaLJFe7/524LSlUgrtxhGcEOb8eKV6kqfKqUVv0MHeHDz+/jyijf5swJxSi10wJvUZdPCgABJbzDbFu8v5ffmb2SsmoQubGgu9f2ibQbbIpKPRIrYjZIRyCB+LBGNJ6ILxcN1hxLRYCLC1tEZRPQRESGslx51KzG7Ro0a4cN5+FBy8Ny2oqj00XEwY8QP94f1hqemNf55k0+na1L9w3zbuzNZlzDT1bQYP3q06+m1hjoDAyCZve4zvq3D5OAtFRc3OV8Ys7SwfWk/RgC/5ZPdFUGRq8ycGcGigaXrCUvfc/rukHq/5A2fBmxRhZG7DNAbZmRN7cNNnyeYcM0WY3jvgUNOHPy2gT9ueQeS5BMYoLwf4sAIMLA3IKJnPCN8FyJ6yPIbS0RXWe9pjyVZERw6mBw8i7AnvGnn3kSnkR/ug91nMFQTOISLZOgcL15Uuh6wZ0eyLqXLpVqmfH3LcSntO2LxpsT7y+MzH6I+9sZsJ+zQBYWtOKU/YVYqz3CnjRpo2rv7LUW1SXZGcIzJp5QKEz8c5uQxut5PeeknJbyvIAP0qrEZMcPqrfOEVSl4L/zI6Bf6QZ33+YxaRs3E53sP+Kcj+VgrCf+A5fGNihGcaM3u/4uIJhPRbZ6RHVtBPV2/E9wVwfGeMCmvpWEErupmNNyaiQW3yq/bma0D+4eK58279vK+g4d47YC65sfU8syC88gaURlBAiLMwsOU8PlRcyMp4m1fvGfcK2bmf/ad5wwoAwtUTyF5YkYqz3CnjBpg+tSrNybqXchDVkbQ/Lsmn1LqyVo5xsljUr0f86y1nxZSjdziyAC95F3f8GBCv3pxonPOJ1j3m7XBwX3OeiNyilXhT1uZicHyzQHnipIPBDhiQFExgotdiaCFRLTYXRFgUG9CRLe7ozski15wxUcXEdG9KaO+z0tJGIGtsXPZ+wU32dmubLF0HnFxI/XHz43lF+v+yenoR5qeVHAe6HQZ95khGy0dEFte1ZgE/zAgwExc9oUlXbjTV293mMAdnTIfINd621xGK/QgVPLc9sW+FEYwaUR/096dry2qmglG0DrgjADmHdGvsL1ZKlo72cljev0f8bhlW0qVC3Pz75i6zO3tm8ffepvVm2AOd+yyzQ7u01Ztd1b48HvgNSNOPO7DgLLK73Dnx775lNszKkbgM4wX71VyRrCgX8HtY3ccv+d2LiNwflBgPgUQ0r2iaQZ1Al9+ajo5OiHOC6oxSRuEAUH7MStSBmCkjUtFoD++NoMvazKKsSJsO2o5Q0Xxm9PX8579SUbc6L3FTvxuk9cUVBypy/rtX6aUY8IwV3z0pasKSlcirXKlhm4IYgSw8Ys+NbKuRAnf3TDTyWNe/cv4nXklHDyFqU3v4lsHEQ0VzHHmJ4f98MOZENyG75o2DWTuDd3ttM1LfPMpt6cygmyI26qbZ3bLFjrwu3ScILdd3QcTg/SIaXOdWQa2jPIhSTswjs0IYjITCSxriT9kxSrH/Hd+ecAZ9MGAJU24N7oSI3IQLN9+1nq8E67rxOS5wfPDlzl+HcetzDHX1GCSNrYt5Blup25dTZ9qd3FqhDzfhBEgTV9qc67J570nfT+H4rlxnpPHkvoXcUlv7La/1NQFN/19yMYXz82GLuGpq4zUl/0NTP3M2u9zqxHLfFJh5hanmXzWR6uSRAqnjECQCHJtjZ1T2gWFyupvdxK/5/Z1/2g6RsOj+eZaHZ0fNO4bfLxjD09cvjUhkZApI0k3MMzu7Yk8eGvptGRitgsDKXGmrFjlWPhRS8y2ALaBMNuX/X4IAoAe7jHTaUuonpA8xUVcULvRZkVR6E1USQ975/IM9/7aLUx7tz3PyafQf1kZQetzTD79Hyw0i+zxXEawsv4PudP4whhm9kyYuePVpi6jG6YFh2CHjS+ecWCMtvf695mxnq9rOZYhLu5LL1xg8lmeQbLIN2JpPJURZMPV1tg5ulG20L7fvYd43k6D9w4WI8AP2BsGA0o2kjiB4WxG8NHswGDFfshajmIzCCF+WGV8aawZxL/cf9Ap1WuT1zhtV2eQkUMXceGe09Ym2vTpfvOd50deN20q0ieYXRZCUhfcLpZnuA/Ubm4GmyIFEOSMAGn6kjCCHrf6fg7F02UE6+ufxVhBlYw6/shgNvRfaVlgcmPji+c3PljHMy0G3H3KGsZdEkzgsC14S/uAS3idrzP5BJxFpGVeYg9lBNkAthnBu/+XLbTvd7Ea5e1E9rvNCJ6sXcsRkTuvvpFHlnDZTBBKOMxGfGn3NtP5sJ+7Onnwh5lsrbcXFmRdCweluFBjb2NJOXzLEBPPsMoIZXM47BeS84LWI8yKS6SJcKAoq4MFH+1gMAOcHQA/iJeiPPUGL5Jk8nKlLsMWfpIQW4TfH4URQKqnCFq5JSkv75uM7KtjEC0VbZzr9N3NDWpw3cHZL3sVXAycp+D3MeivaUms2JzEQTDHeQXui+D9ooaps/vG7y1x7gvh/tBbM9Y7ZwmJRN+4y+QzqU3CCw+79x3k2etKKBWVklvyRRlBEgv/J1t181v3+ocJ8N1/8LCzpSOdJpP7Ut0HEoN00zp/Y1g3en/hJ/zEm3MY8snYb5TBBdlt3LGHcThok52+7Z94hppgdHL8LR2S8JZZ61xX/C3xIYcHbFsh36ZDkrNZKQcGuTAIWxMy4w4jPaQhZSw2vZ+0Gsd/7ZVcXYmBGszyQWfXMZoo0YZf7DvIuFEOXETkEJeSnuxjbpv/K4NuGsyCse3kR1KX/rM2sC2d9mBt19hR42/7RcvZD9JokodvpFY/MH3q+dN9P4fiiTs8DY/mzxp8h//RJ2C7JYyMXrrS1OWt+9JSgylSwUFcMHjoesK7PSFAZAgFwB9SThI+sWUKnWL4Hb7/75R85JAZaj3syVVKoBK8KCPIBqqtujlPeeyftzEHg9IJMrkd697PBxocx180OIm7170nrVS3d5ySMuM4q/b7TueSwRYzEzv9XtPWOjZ0UxL6YovpfOiA895KfPqfl4ykQyFy7HLQKQZZwKykHB3GFHcTGwWUbbWwlblJGRMgFPAA7DHwQs2AEFZWSFukRSQfL9PGKky+iWszFEkP7pZdycuItr88S3yv+2Dtpsn2lsAFuMs2JQ+hfaO3OiuZDy5gloI+nu3ksbvBifxQDtukBRdBGEG3X6YkAVvUXnzxjvMBGKDBM+4X2CT+OCuQuPXfcVd9LiPY2u0evuvlqQmxb7l/IL9JuZtgp1uKZ2UE2VC1NXbmKX0hje91IWXwysTVjkihfOtU937e3+A4Xlz/Ih5X7/q0UmH/GGEhhYIr9hJPblnKrFL8xZ20YqtzcItBa/TMBckf7PSuiTyk0yFOviT5oLPjhyDv4hZrzH3Hl/sTaW75fG++xQsML+ULDJDDB9zZQDrYFxbCCg5+IuIo+UC6yEu/6WTUjUiY33X1V2Et1s8QDrR4407GWYQQbrJKGrb7p5AYARQlSroy8ZC8HddmBLs2pnwK7QVnWg2PdiZLYU8KUsrY4QrzG2l/WYo3jMwIBraLlR7uD8DPe0EROwISVuxV4B2ThSN9fu/kM6f+5Ykwo13BA4kjLrYQkVYpSRlBNnRtRtDsVOY8tjukIW0XA4X8mLCtIN/ACPY1+DYPqXcTr2twTlqpIIlzTYsxTvg/vDo9EU9kz2VmLul53bYjP+QrK3onGYFlG9leucg1+bQCBHhIPrIFIu/iFrufi8Ff0sq0dRJQvEBvSTMwQA4fMCAjHezNC+GQGH4frN7ueEk+jjZQCeS62A+W73BvesFfSdm9XY2Ka4SB1lqJ03L4Mme1cG49s/0k/uJ6GQEmBQmVJp6yZHpd9LGpJ9KVLa+U8DiMxiQJK81SaSD9aFai74pobkoZwnrpcLnJ57nTnBSx9YntPMHU62LbUpiEn0CHSIthVSdbSEhjR/d7nHx2NDiVv18xJDB9yS9I/QjUk9iTgkJhUEaQDTlR3SziXnmY45NGFNerz/3yJqMSHeDlun9wGAEulh1qeCyzj8praF18vPeclANBvGMvEdsTGIwhpSD52S5mUVdWvJH4MbFlCU0ONBFe9qGhvRL6kbKRnUfQc7Y0Mn2H9AXSRd2wDbNzT/rMOlP8oG9SVuz7FkpQEod07LMVDO5yDoB0JZ+gPCBxgvhYHVzRdJRvMEnDz72ny7TEOYT3+0O1myTaW26/FrJdh8mBpH3t88mD8URhW57BDMV2YARz30h4h/rgXihDHhkvTRabKVYCqAf+DiZXo1J/r7v1833OeR38wTS8hFUjDtuFZDU/67lfJfK5ouLNBL7e9O13R6OsmxAmSLY+K0m/UFcZQTbkRHXz67eZhstBK6EkaTcinr3qc0XaAN86O4zg+KTI36pxkkyK63d5BXrisX1wQYMRCckUb954v8pmBP0eSKSLAcgvPBRnZSO/eF6/fLaHcEiOC0NgAJCugaQU0vu7q74bA2cYZJex0PQgOoh0MjFMzNozqiN2M4dsPNLCtoGX7LLm8/xw7caJwea8uu8l2tibfqZ3YSB2vmnhcUj83j+YcSjtI3/vDY8BDPL1sjL2fvd9txgBtsLyiuubYICnXCgDI9iVfjgMHHDxD6ukQicREPwYVe+GRNv8ofZzibaxcfZ7xgE07p/YQgEIVywpI3ARxEwTP9q0JbyobsatSXQO65A1G/jehvTb50OHhljazncqeG+D4/mCiv68v+HxzO8/45u8HJ4i7VcnrU7pQBBfg+yyN195/1FFr0Tn4+43J9IHA5EwXjfwZqQb2xve7x2m+3IlnJ3YaYAZ4F1k7SGVEwbZeRSaHg7GwSzzYXRBeYnxF5QLGAAzbCeA7LLm8ix9+BGLEVxc0TeRTlAZ/Pz9+kZaODACyN1Dp1HP29M+ez2kDtjykrJ6w6S9YwLmztQRHyuvkhAYgSjR22AuA0p5xS02XzARMIK19c/mgw2OZUgMYrdA0i/ELbZMyghcBG3wU0B1NXYu6d+EDzc9mXnYsymfM73YaeI5I42sx4ebnOR0humt7jBX0CHl40PQZ4J9Yez3yoGl5PXvAeaykrzb7tUVrg3bhkczbmhCbl1ER+1w3mefIiS8vGGD3sHAciEwYzuNvjONCN7wRcnDul1Bqn1zycANY+cxfFFyjz+PJBimCK9uPiafKBnDQhMtNFfaZQs6QLTDeJ8lkz/XbpQYPH9c0SORLnQepRAUEAaYYfWmjfe02fjz3zcTF2w3QmlbFl1ZctYlaaPeNkF53uC5Hn1C66cn6oJ4WDGWhNpdwiyXvRb0T2AmZYUbBu3reQ9/2b4mQ4neqvrn8pHDqZpj7fxyeS7UloXURRkBs7PU8oKNgzVcDmKXETSu8wRPrVeTuctPBLusrjfNwAhQY9HlJ3ykyQnOzHfX+gXMTU40Mywfc3YYVG0to7Z4H1Y23nzlXRjBlw1OdMRUczmkQlxIQ/hpfIRsv6SdzYXCMgzgkEDJRN5Dbxw2I23kj4treLaldDKl5f0GyR3El5u9dpm9YXN5h4bJQiySZUpbbB/bZcv1GasmG5uXXm6XGDxvqtU5pa340AHmMY35YEtXcyhm242OZcadAAyEve9xtnteqPMQV9R5miGKCtUnl1W8xR1GL3dWsYl6PFeDl3V/jDfPesfkB8toGQjaWG0BBdTPJlHchjsWCYJOHmtFAOGHPVgV7FjPjINk/E5wfgemBhHWPIQ60C/lcN859IZpz4ZH86Fxz6dgJu2QKFMxD7Aa1/k6Htn3JVOveW8l8pL6BwlgSDlsFzaliyFlBMw8aOgQHlzv144q6H/UrsW/qvUyn1nxrtMw7KpublTnCcZB7hH8WD7PzZKU3VCBM5jP1iYlLmzx1BWjmSG5gM4PSQbs6Y9pbLamcLlm+yrz53Z46LZBfiA7X/u5prsiWFrf6DmB2T/7e7ZnzNzs7S1bCiJbXPs79tYhf42ZpVdfe4N3FqWUSey/Tl6xzakbDlUhbQVpjXxJLnHZZZHnxECQR6IQl/1zz1l5xMgeFKs8rH7gChNEGTGLhmCAlNfr4vKhlwa91SUxeN5Vq01K3I97P+Z8G17vRqdfL+tT2/Svd//O3PtuMwmxxULdQRj9cVeDU3he/Ut5UL2bec/oFs5KGXdfzqp4hxm3jGFuNWCFgTLiTgy2MNH+Ug+cDUEM0xaDTlHCt25aoi6YwGBSs/a5mgk/YRKHGx3HR3BWge0dqLwY24z//XxbZ8s1aCUpotnOoS4MQ739F+a25/Oh/g8nyiflhBsKgdF2ud4wrdd+xdz4eP5kYC3+dM08PnDwkDNhwpminW+m5xSsCiigMgJmHvF2D/6owZl8uIGrGrbh0YxZ88z6V/Let59wOhsYwc9qveo87x/T3NF3gn1d7KGjE/uR3XC+0i4YxLvdxPxcDWNfFpfXbIK20A9eZn7zd4YZoINbP0jnGRdgxjXnwx/N4cMHzb6piPthFo2ZAnSi4/7Bc31GOfGH1bvRcX9T64VER7vVtblrl9nv+ZHXkwOfLU3iFzabH67dIwzU+Arhwo1fPDAOkH1xLtvqQtKEa9/u9EvfT/TPju/3jH38Zwcs8PsUmp8tUICbyfjBQ5TQWwe/OxZ7FwxO9JdHazdMxMGEAH0dg7ekE3SZ8AcV7/A1Fa/zHbVe5L/WbsBYGb9e9y6eWO9a5zcj/RH73EjLOUNDH+3/J2b0Xx/CvRX0RxAYGOJ564StTzAMrH7Hf7iF960y9giQ3w8rBvLc+pfz7gYn8cIBLZiXj+S33+jIM/o+x1DeOPC5PzlnFkc6X8+HIYGH2X2DY3hvh5rmLGPhAOYdGxIlw/0NlMGZbDiM4FHmPr/nw+0uSeAjODl1TMQs4sFhBO7uAnYdgJeopoY2135/5MPTOnFFh9e59oDgCUBY5VJGwJw4iDynYhBjCQ1dP6/V/S3Pqn8lH2h8otOR4AfQMYgebHQC/9466ZfLQ3a3wCGY3Ui+B4rubUme8YodNfgZy/mty5lhPWnmq8y4FIZZD1Yp+PFhBYEbi7O6M+9KnyE6y+iGRzNEVRH+qdrPJspY25V/t8sc9CwFFDn6oHDZ/CGKiDBYzchNXJxbSDzRwYN3MDcQcBQjMDhPEIIYH6RRZKUh/uJKmplcnK/ko8oCuqBs1RqSVyguJgmQyZ/Ti3v06MqvDEm9tYpty4qBC7jLhFUcaA4R/cSdONSq81QCV6gwgf91tV5L+AXJomfCC98g3IAJBVy8g45MesFZOR/B9iY0ki4fwZM+/CQxYYKIszBe+54I4kNNN9QwAFc770ebJLe5/l67jlP+Z+v8ywkjF7rs8HjGKur8igHObxVbXF+8cgsfxl0gmUy1PZ95wEPcu0NdvrZWd3Mf5MULmd9+lBmahhsezX6r5lDaF6su7zYzLuPB3OeAh5lFXB1lbXYKr2j5U4fJPVq7Af+iVhfn7gC2JcEkpd5YMRZKygigeXacEd0TQG0XW0Rb1i3jMyqM+B32SNc1ucjpJEPr/YLvqdWa2/vsz2GVgHSwfSCz2bRGwlZPo+MCZ05p4YM8sDe6oD/zO084S1rT0Y9hfu3XZkUhTOGzdU65MSjg8lrXuvclOhEGEwwqdt1xP8F+l2cphlf/vXwv1J2x5lOWC1lIAysFzOQhnWNfhMIsUW4xQzcLZnJ2nggPJoXtOBnY7e+ZniGJBXXQYIyZCOVBOsXuzQbmAR00MmCJi4EL0muwixEw205Jb4m7Z9/waG5d5xFnOw3ihyPq/ZzX1D87BTPUxU+CJxNWft+w3QOLaxissOLY2ciYsdza4DT+oPNjzBvn8a89W2rQ0SNpSfltw/D49ttarRN4jK93Pe9pcAJj4oZvWM1I/EwuthXxe76lVkdu1fifZhYuRnUaHs2b27kindgacpXc4XzETtNevUpZC3KhdK7rTzNHhc2QRQMdfUSbW/3IkTCSPnG45x3M66Y5vwu7fJkTDP6qjICZccnGBjPbM2Y/0BaKW4FomPXNLmGe3YMZmkpdwmCFdDIaLsfdhGydQRLM1cVMElaPYDawk7uHii0lzHJWT3DK+686/3akFWDtCQdSuMIOksNYqT/85Nl2pSi2MjL7ezHPoqsHaWCmF0R+miD98hU1wH7f/PxskdygLT+USQ6e5WZ3UDkL8nfVKfCQfzJ/usb5wTMsZmG11+wUMyBiDxy3w3HPJYgWJ7eGlnQz2jQxg9zU4PvO/r63/n63yr1hsr3bmkoRFltLkF7CWcTBhmZrc2Pjc3hQ+6fM4S6zIy6LsDhz8hLOpdDWNiPAb25CvesSfRN6tbKVy++7cz515Ai/0G8Et6zzZ/7s+QsNthDdPnKED3a4imEIRyaBUPMdGr1xJ3PXn+WcHG4vn1cx0Fl98eQXmOX8pvst7u7EEOeuTc4JegIqI2B2ZnV+HSWb37kVb/O/6/yLVzR2rRpB4gJ7+ocOOJomEd+2RJWCPQZsWCkqpVUnZLhtBfOwCmaIvrp7kGAEEzv/3ZlhHPji04SWQzAv3CyGTLNsN2AwhJlFGwuph/dHb4cp9BkimRI32+WxXLemMqkIkLz83KDDRdRfDnL7zUzuNQsuRbsQw8SA72fYHNuDnywwTAErBcjwT2nPDMkzL1mMAFsgoNkr1juD3fN1HuWaLdYkj0AAACAASURBVMY4t5ml7n4rV/kWhntJRR9nq2tek2vNgIs+iQnLgT0pKz5vNfC+csYwE8ddHWEiJmWSOybynqsLxY0gOZdqCIVwmxayIyDCzLtmvOXkOfilZ5wtGL9yFewHRvDKDXlFh4qVRH+DVmSMNa51OOgs2jincJvqygiYna2AXDuPX7gf1BnKh1ZNMPv16Khdf8afbzRaOANnjNgPRNhczwfy6jI+gZEfto5wnoCVgWvoI5f8ZU9e6i6pl2JFAD0ykg8OSrMRtiKgvx03VSVeWG6QbLZto9ZPWidbmbN+xz41lJJlI0iP9fqN6UeQf1/pudOweJD5htkjhBJwxrLRKB78ck5/5x2MHto8gZmfofWwsJR0kOkNbcZz4+6DzPkBfgPYt4e9Y5iFDaI1E01dXEYwbkBSHBZbeZJ+vi6yw1kL4nmtiW3eucfR/eX8TnFmgMlbWIR2y5MR+GZ9cB+vGtaBD7a9gHlSW98guXgqI2B2bhTn24G84aEKATPII5iFPVeDjzQ71TmMfd3STJnSICIXvcJfv0xK2DBfMKNEh8YflqbYd8bsIgPZIn2oNwZfkH1/wYtHGO9+WwVBxYRaZ+wB4yYy9ozFqI/3gla+5fLLz56B4r5JqCRW5PIxi7pqLLNozRz8eHK7aNHbZvCEOCfEOkGwQ4HBFEzEJWHoforN8sUrl/DQsZUYdHEgPvARt5w3OmodpFwprrut6ZQdUkCfLHTsQCA/GIDJJV+/MMjjqX7znPh/eHV6Spaw+XF2xWBe3+VuUz5MpLJclktJINMLdDO98vNMIfL7ht+136owx1SUETAnLET5dZRsfjJbls70+tS1/PSrQ/nzzjc5nWdNl98xQ02Fl3C4ix9kCW0He7NMe8ePEGXwGMfwhsOBK+zhij4cbCGBbPXEXpzykULyxpV3vz1rb9kyvYstYEmvENcv/RdGLU8MPLbCOb+wefthUEebYODLhzAIwJQqVnwvXGgkjnDQiLRw+AkX4snTOppn67BZ1BvgnoWXCsEslziYXKQQVi9YGWB71U+DKSzqoQ7yt2dHov/hcDqXPP3CoAyymsQWqE2iIG7ArPXOfQQn7+635HZQbyfk99zzf5nztG/il0xYfsoIXJFEv06Six+2JfzCnV17CLeq82fGBReGRkNIANg00ZWCyDIbt6OU5Hl4LfPjmvdm1uRxaxV1FeV5cl/BW39I1EBtttc/33ecARRDXr1F+eaP8DAoA3UHsgpCeWxG4Bw4FlNIb1yIBWOwE0kv7/ds79DJA305jY93RCOdtHCojDQhRID29qhTl4tL9q1kyaYQzHKJA423abRlWfK+jFeLKZQwChOAe+QIi3EfGchzydcbBmWAQSD4e8skCg8Hzf3IFHVBP+YmJxh8cfZWDDmM4BfFpBBq3KgYwX8S0UwiWkBES4ioMQXTXUTERHRlcBDz5YorrigYHG8HyfUdA0SmsGNHvGNuOUJnO7aNhDALx2Fx1ITr+JBegsw3rupnIMj6o66iG0YUwtn1x6pBKNslLjue33OKigFJNA9XtIP6pZ2r392dpzp1tu3Iil1ipIFZY6g0qr4ZbDLczM2aH27Dw8KWDJyyMoCL1QHOICwSCTe77eRzrjgVEk7ySHGxesYgibJPfSn5SVZKUidmxt0R5Cu2oAspA0Rm5YzEq9UUt9eRZso9IWzp4reMOzv5rtqStTHK+bBlFxOKihEcRUTfcgf2rxPRDCKq6TPQ/zcRTSKi6XFlBGhH6YAYuCB+KOoe4I93hgrdtueZzo3LXiBIcWDmFgfCvjTUW6CDQ3VFAMEmLuokg5+figk7qp/KbMEqF9fW426nm+tzodJCQWXD7WusdnB3QMKIdFWuZcoaDhewPNaxssbxC4CVphhIhwhq05OYR9Qxfh6RZbn86HcnQlR8SH3DdP2K7fjh0LjfH83vBZIxIJsRYLXDnFh1ys3gQsqGrVzcYJa4tqSYiCgPWeCxWYH7OB2vNphC9UUh9Pr/JA7wC4kedpyoGIE95n+DiOYS0dW2p/vcjohuJaIJpWYEkJ7AjxzWpqRTZHNF/AxqF6BjXGjlFjOTQPyEcjgc5uCHiU6MG8VQ1xujGQFvW2lEEaHXKEA2XdQ7oH4gW/2BYCUYwM22WpI4QW4h+oTs/KFVNCjtQv0h1SQGxv3UOtj5F/SMfWMMEmGQiJoiLaSLC4YQEIDEiofQl+2b2vL54kYjnRu6uH+AAbFQ3PziSR6+LpTHiYF3bMlAIgqrgeUjE/0T/QvCAKKkzS+PfP2wihUSYQjbAp18493bzDYWVvXY0sqXsAr32EXON4kww0fJCL5KRPOJaDcRtfRhApcT0duufyZG8Khbidk1atQIBRuZ+WbrRJhJgMBAvJePIJOdpjMdB3S4Og59JnChQyhOhEM6nGlA74mPqJwMrKLjBwfINkaQS/eS/T3fZ+hyKobs6/dBeUNSJOgb/GFvQAZ+O9z59YcXU7TguFglQsVA2ATxTExCYE1s4J/TUg9SlwFhiEbvLXbC2zYTbCwKfU4rhNcDB+BQoYLVDLaJwAigjtoi2EuAWopCyyDxYFLywgYjHCNCohdM7qlAdYkvQfMpDrchumsdvvuG9XqiXlA2FxOKkhHI2H8sEY0nogvFg4i+4q4CTs+BESSiFXNGYLcHVB1IB7Hdc+qm2oaF/di8Cfvw+EGiUw/+W97RSx4Bssgo2/w+aVmJaUYR6xSc5GY2DI14CdbGbAzzecZhXTEE036Z8hP9OpnCSP7e1Q36QkkICggDjBIVld/aKaZd0bY+NjUuaTzSuVjlzQMDLazfCWXCKt9vkmZGFzY5cA8CZ1gou8dC4JXNRjumK/PN2xseB8bXtzQ2xEWRoChVDLpP4pQb5cHvGZM6n8lTYN0cRvDrwM/l/hAHRoCBvAERPZMY0YmOIaLtRLTO/dtHRJ9k2x4KixHIIZS3s3gvrhTcWLhEhk6N/eC4EZbk2ELAknenKy3hlhEy88BEbvxCdTPeccEKWliDTDbah6teTDO9QyqkGPKuWKDR0p7dS9qZyiBh4HqlkOxvoTwDe9z+Htc8lORSEoFQAO4SoN/hNq+HoEkVF6u8hJUC1DQLZcIq32+SZlZ35egkE8N5m0XQU4SVaKa8vYZw/MLCvsFNLyQvM2I1L2cPfhftrCIwf9DZlG9qhxTvjC/KCJzh/kQiwkoA9F9ENJmIbnPf/ZxMW0OJ8GExAmlAb4cRMTv4398tdYkqcXJyMXPAhaFC9hZzyqDIQDhchIgh9qot6RVsd6HuonhLZty56PL3YpnLe7GMYP4GY+ZS8oL6DKhyxj4/JJ6E5LvXxeGwl8DsJJz3W9HvcpkMA0spCIfFYAQ+doWhCfapvvPScgXzbGGZB5W6h+GmZZbJA1tbKDtUQFj001bjMq4IpG9i6zZTmbHKlRWuN1xWHUP4Pb91n1Hj4pk8WUVNfcR9BMtcbOrH8r9FtSK4mIjmEdFCIlrsrggwoDchotsTI3vyIRJG4N0TxSAinaT8TVXmHCHdhB8eVF27hMtTqL8cqInWT1khSDg/t5DLXZDhL4a82lEHzE5d4UjaUHss7SouBACC7gjAGE02W86Sdl4uZNOBOQ5HS0HQe48tjC3pdp+h9uHxN5O3jSV7GElvMSwZ3ragBt03xYjoSh45uVjRrJmUtv3yi7YTEmrJIf4Ju93ShnBtEukguSiG7+jTtop4P9OgsJuRlXBegO2rXLd7wQTADGJCUTGC5BAf4lPYKwK0Eey7osPIgZl0spi0X+mKgVkOpJyg/AwSEsyOamfUHxa0QBOXm60iW8be+eDzDyKK+aoCEDFVn+Ry8rKlt2AaMRvZF+SyhS3Jd7HLW261I8yOWm8/a2vQTgvzoUK4Q4ItUltltfwm8nUlzWLcm9tNYjAr5I1+CAt6KJ+oH7fTRpkh2AEC08CNZD+yVaGDeWCrOCdyVi3HMG82h+sZ44ARYHsoJqSMIEtD4JDQnplKZ88SrWp8hhEc7FlDdQE0QG753PnBvTvfyFVj7xR4zFmfXTmcACL4QT20PHvt14q/349Z0snFtWd+93TJTd5b8s4l/dDDfDjcrAighrrMBKthMB/pJYiVZlv9YMvU706JYBnkevMq5F1m+cgjn36YLS+sEqBqPC+C5BAumuUiDYhzOGUEIS4DrKRKsSLwdgQoopI9cu+3KvmOA23ovt/zmcMQ8YOTLZaxyzY7gzn24nMl3GLFrAz7/xhkZHXhvYUs+oxyTdcvnL2fj4O/XAhWymATIRKaZ9QeZ7rUV6py3fXyVMa2j5cgPosZdjbCfZmgAT/IP1uauXxHuSX9fPphLmkXFGZCS8PMoc4jE+EOAe4SxIR0RRCThohtMTYtMh17YmuGuCx+dLByBZL91GKVwyEtWW3IjxpL/GLJHpz8Brli0w89vkiTQWSyzAR8MKh6Ce2B7dFc6IqmoxODMjTBSlsGubmkmS0MRJYl/TD6Ybb8sn7HqgDbqYMeyxy083XMb/42c5gyflVGUEawK21WuAXd9jzevtPcmMa1fBCsJuFHKPaEi62f/KDh2gd4haYL9Q+SplfFcKFpljSeayfX1yBNSTNmRy0KtodskrsTfqon7HDyLErggDkuaMnFzDs6TXHO2KQtxJV4xbgPvDYj0cZh9cNiyuPExT0QKKfLxNChNjxG4uPKCIpu9WqQwIfGOtTuuQOcH52jP4mZvTeNi0UCe7wySGAQKpZsm8tFifsWW5Bc449rYVZflshurlGLDYeDYtiBtglbeGgP3APJlfrOXO/EARNA/OeGLXMOW3FQa+t+SlNDnWsGnnCPvG6M6qCccuPdE6T8r1DXAukv3NeAlbnhtZlhP9om6B6D7YiYkDKCmDRErIuBi04vXMAHX/9f50cOwywgWOfCD7BYLaF23YUR2H6FPmPwkfT8DkILTbdk8SB1AvONEdDfes9mr2SVyN6/NDZ3RoCiZ9LBJO0B1d5hkKiQRrrQDRQb6n23ucAHZgCmgL/5fZPFe/77zEP/lXyP+EkZQcQNUGmyH9eCjzQ8hn9c0YM7jjOqpkUJGbQ0hkWwY1CstJBdFogJYpD4U/d0iRg7XCyehzxldAFFUJi/vzWXcTnLJllRSXvb3wp9xqz95fHBGm7zTde2RRB07yPfNEMJb9+G7nK9UfYHHWOYVIFw52BkvVCyCiMRZQRhoFgd0sCFmYZHc+s6jzhqmFFlrzbSOMIgJiuhsz72NOivxrpYBAWFhT2oa7BJ7BSEOXDb6YfxLJYBweyLVVseRnkSaWBrU8yHDn2aWcyGQnuqo0oEW0fPJYJH/aCMIOoWqEz5v/YrXlb/Am49wogTYnmPH+CaIpXDlRICKFNDGXFTOPbU937mjj+KpJhQtOa10IWVGbDr4m4FRlKwLJmi3Cgj/opVW54lq/w/i0oPnP3A1jE0v/Z7wJwbYKsoH7vU+eeeVwxlBHnBVc0DQ91Ew6O569vG9oIc/hWrE6iUqEI7JQaJv/SsBIzgjTvNFkIpAQlIG7dpYVQeuvdFdFdUqkDZXlyp7uCFCUYQuwkJdEe9dS/zDtcWNMyEQlMp7JSDEUBcOCakjCAmDVEpivH5Jj7c4Bie0PVpp7giHlisKohS1h3bHWAEOFSMPUV429TWygpVICBY6wJ2IiUWR/yg+gVlxF+cJyQOdhvnGQYwprFx5/aODaTKCGLTFJWjIDMbXsNbnrvYUf7Vb6YxXfnRZ8UphytlzcVoCaRiYk84VIS0SQTUdMiSxIAqgypULOBZ7DZEUKysWUIzqjCCOE9InIrg3ABGbMRsLc4NYkLKCGLSEJWlGC0a/8vMZjYv4T4zjMx4QQZ6ylThX74w0Rko/DRrlqkIuWeDw0XY6o2AIO8vAyrcO1+eyqJ2vceUNRGUKLcsoQdJyh3nCUmiNtDbJeKky0ckvKN+UEYQdQtUsvxvbjaQDzc8lnlsU0fVBH6E0EgZVxLldhAzjD05l4yisVrnNboE3EQ9d89p5iZ5HPHDrWdhBNADFnv6ZH6SEaxJvcAXZdmVEUSJfiXMGwZMVrb8CXOX61nMUGa6QBR1FUU75T/6VAJGADOVEV0y8tqLuP2lyc6NYAyyaOe4Eu44CCMIspAXq7Jjewh2qbEqgNnamFAYjAD2hS8joluJ6OdEdJKlELSsj+XQPhqTdousGNhzb1vnYT7c8Bh+a6IR3cPMMa4k2ilhnSz2FOElI3tAlYH1Ulf0FsZn4kpdJ65KMIItMV6ZpuAnh8XZNJSmRCrtSzGM4CwieoWI1hDRSCLqTUQDXatj04noIdcIfdmYgTKC0nYWpA4zj/fUau3MaIYNfM35EWIvOa4kdmdx8SjWhJkibD+MbRpJMWVAxX2Lq5un2gAWbbORFCxLpt2nrEkwgpwNyGRJs+SfP99sbHzA6lpMqBhG0IeIfkJER/mM9FgV/JOIHvT5VjIvZQSl71VQTHZOxSDe2+B4nvzSX5wfYd4GPEpfzEQOUDaHGS7MKsaaDh0w2wUTWkVSTEgGASfct8Beu6wK4EIoIK7Ua9raRFnjvDKNK35SrmIYQckG9EITVkYgzVo6t2YLM1ucWq8mr2xymfMjhLrnuBJ0DGEwg8GZWBO0VEZ421QGVGghhbI+uYgH7CAmHFeCPWFhWnFemcYVPylXGIzgHiL6b3fwrk9Eg4jo8kIH82LiKSOQZi2dKz8655ygwTF8UUVf3r0vPktcb80xsKHMFQP97dN6w0f2DoMmYAQfdI6kCDKgiioO234zLg7GlfrNMndZ0MZxXpnGFT8pVxiMYKE7eF9HRBPcQ+MZxQzohcZVRiDNWjpXGIGcE/y5diOGxtC4Ei6SocyRmZ/MFZjPNxlGMLNbrjFCDSe3xEU537Yv9iVm2gNnfxRqXmEmNmjuR4ly4ia0UmEIhMEI5rkD93NE9Hv3WfwKHdMLiqeMoLBOkE8sYQS3txvrnBN0q/s7DsO+cD5lyCcs1CujzNClE2v6bJ1hBHPfiKSYokDwIVdLq23LAYNtXOnd+RsTjAC6kZQKQyAMRjCUiLq60kPHEtF/ENGCLCP5fxLRTDfcEiJq7BP+aSJa6kohjSWi7/uESfFSRlBYJ8gnljCCp/vN5yn1ruHF9S9iGDCJK4ma4nqDF8W1iKZc21YYRrCgfyTlFNsSD1p2G6StoW48riTGkVDWMO1YxLW+pSpXGIzgG0R0JxGd7Y7KpxLRL1NG6PQXSBp9y/X+OhFhK6mmJ9gNRIS0QX8jon7uc6CjjKBU3SSZrgwOzd9fym1wn6DBMXxo96fJADF7EjXFDd6JOSPYvNgwgsWDI0Fw+CJjfxo2gIWkrTHrjiuJ3WyUNc4r07jiJ+UqhhHMIaL2RPRrIsIMv1DCYD+XiK7OkAAurE3N8N35pIxAmrV0rgwOsGN7b+2WzuB1ZMXo0mVYZMrYEkKZoV0z1vTxHMMIYB86AhqzdLODk23bWdoaq4W40thlptwoKyyqKRWGQDGM4GtE9DMiet6d0Q8joieJ6JxsA7b7/atENJ+IdhNRyyxxOhJRvYAwj7qVmF2jRo3CUNBYOSMggwPkzi+s6G8Gr4hk33MptKhXFtXKucSJJMz6DwyWK8dEkv34D7c4jOAPr05P5C9tje2XuNLE5VsTZwRx3qKMK35SrmIYgXdc/g4RPUxE/d0Z/sveAAHvOFcYT0QXBny/n4hwUxlnDxlJVwTSrKVzZXAQsb1V9c9lfuu+0mVYZMqiXhlurGn1BMMI1k6OpJiTV2xzBtT7Xvkgkf8ZtYye/+GL4ssIpq405Ua/PHT4SKLs+pAfAmEyAnuQhv6ha22PLM8NiOgZnzC/IKJlueovUkaQX+MXEloYASxZ4XlQvZuZ2/ywkKTKEkfUK+NMI9aE7TXcI9iQ3KMvZ3llQL23a5IRnFtvmNPGIxZvKmdR8spr+urtiRXBEajpUCoIgTAYwZVENNhdBeBOgfz5jOsJrxOJCCsB0H8R0WQius19FwfnAqutQ2jxD3SVERTUB/KKJIxg0gqzJG9c5wkzgEEOPoYk6pVbDIs5I1g21OAIK1YR0LRVZkD9bZdpidwvbmTsPY9asjnhF7eH2es+SzCCuJWtMpUnDEawnIhuJ6IzXBFPiHlmE/W8mIhw1wBMYzERYUUAauKmhecxRLTFPUfAWcJ7Jkjwf2UEpe96wgjmrjc/wLtqtTEDWESHnNlqLOqVY88IYK0KK4It0TCsD9yZ9T2dk4xA1EzgIDmuNH/DDmUEITROGIxgSvDQXN4vyghC6BFZkhBGsHLL584P8IcVA80AhkHsQPwM1Ih65WZDY35GML+PwXH7qiwtUJrPM9Z86rTn3Z2nJjIQe8/jlm1J+MXtYfHGncoIQmiUMBjBjUTUjYjuc+8T4E4B/spOyghC6BFZkhBGACMg8sytzzGDWEQSL5mKLOqVYy81NKenwXBHNHp9Zq01jAD2G4RuaD3eaeNxH8aXEXy4yUxI0BeVCkcgDEYAOwSziagnEfVw/7qXnQsQkTKCwjtCrjFl8IdeF3lmaM5sdCzzuOa5JlO2cKJeOfb3CGa8YhjBF9EMurPXGUbwm05TEm0j9p4nLN+a8Ivbw8otXyT7YdwKV4nKEwYjwBlBLEgZQel7HgzTgAEcPHQ49QfY7hLm/n8qfQHyzOH1qUZffexVTEzraBjBnh151jCc4HPcM587LEYg9p4hGBBXWrd9d2o/jGtBY16uMBgBVgHnx4ETKCMofW+DFShc4gElVgR4eeMu5s7Xlr4AeeYgdpVrx13p3OQXDCPY/2WeNQwnuBijaTtqeSJBsfc8ZeW2hF/cHj767MvUfhi3AlaS8oTBCCDnf4CIsDKAFNAi1y07b1BGUN5el8IIhtdibnYKc8xkuWFmEeWMvT2C8c8bRnA4OjUJOPexL2Xh4BjYTV0VX0aweZd1VlXe7l+lcguDEYi4qNdVRlClukp6ZVIYwcxXzUC2K156afrONIzgmbibqoRB80bHpYMcoQ8ul6GN47wisO0mRAhVpc+6GEYg2kMzDfi5hMkUP69vuiIob39MYQSrxxtGAFUJMSIxuBJ74/Uj6zI3PTlGyDFDEynaOM5SQ7BKltIPY4Vg5SlMMYwANgLaugbsv2mN2GcS0SNENJKI7rb8S/6ojKC8HS/lB7jzY8MIIrKwFVTzt+cYC1ZP9pkbFCQe/sMqmFt8Lx5lcUsBa2Vo4zjfLIYxmpR+GCsEK09himEEGNhvIaI3iWgdEX1ORJ8S0TQiqktEp5R85PdkoIygvB0v5Qd4+LA5I8BZQYwIRlVQzifenBOjUvkUZei/mJ8/3edDdF6P9jL2nqFXKq4EGwQp/TCuBY15uYplBJ6hONpXZQTl7W1pP0BIDfW+u7yFyJKbWN6C7eJY03v/YG71g1gVEcwTbRxnC2VpYsyxQrDyFKYYRnA5EWX6KztXUEZQ3o6Xxgj6P8iM+wQxItGSitltrOmdx5nbnherIv6z7zyHEcTZeD00jqb1w1ihWDkKUwwjgA0B/H1ARAfdhGC1DM/wKzspIyhvp0v7AY5tam4YH9xf3oJkyA0qlFHOR16POSN4+1HmFy/MUJPyf2oyZEnsVwRAJa0flh+qSp9jMYxABvpBRHSRvLgGZgZa72V7VEZQ3v6Y9gOc39ccGG9NXkoqb4nScxu9xJgyfKjHzPSPcfIZ8DBz+8viVCLes/8QQ1eTfbcgVgV0C5PWD+NYyJiXKQxGsMRnpPfz8wkWrpcygvL2trQf4EezDSOAbv2YEDRnopx/tIyyx6RoqcXo9wDzS1el+ulbTgik9cOcYmkgG4EwGEEfV/so7Bfj71Uigl/ZSRmB3bSlf077AUJPDtRRT2lX+sxzzAEK01BO2yh7jlHLG6zP75k7XVPePKtIbmn9sIrUq5zVCIMR/CcRPeVaKYOlMjzDr+ykjKCcXYcZs+1Bcz9KzbTVWczvPJHqF+Gbny3eCIsTnPWbv2Xucn3wd/0SiIAygkBocv4QBiPAgA9zk+eWfeT3ZKiMIOd2L13A137F/NqvS5d+nilDTw4GCtsEY55JlCd4r98wv3JDefKqYrkoIyi+QcNgBDBTCYVza91x+dJczEp6xvBQXpURFN8hik4BYpCQh4fk0Mh6zBGpVZZ6iCW12NsjeP1/mLv9Uoqtbh4IKCPIA6yAoGEwAoiMHuPaIJYBHRpIy07KCAJauZzek1805wRiaAUXpSIm6Nrff/BwxKXIkn33m5m735IlkH72Q0AZgR8q+fmFwQimuyM+jNELQR112UkZQX6NX5LQS4cYRjCijnH7/bEk2VS5RLvdxNzz9ipXrXJUSBlB8SiHwQheI6LfuzYIziail4ioS9m5gJqqLL43hJHC1g8NA8AtY0gQ9b4njFSrfho4H3jjzqpfzxLUUBlB8aCGwQi+QUTNiWiW+9dMpYaKb5hKm8LBfeZ2MWa4YAQ9bq20VSlrwTtfxwzJIaW8EVBGkDdkaRHCYAQy+QdDyJUgXjqTiBYQES6fNfaJ+B9E1I+IVhHRDCI63SdMipduDaW1bzQe7S5mbvNDwwhe+Xk0ZahsueIOAe4SKOWNgDKCvCFLixAGI/gxES0log3uqHwJEb2cMkKnvxxFRGK05uvuQF/TE+xxa4vpXpcpeIKkviojSGvfaDxgvxirAfx1qhlNGSpbri9dyaznKQW1mjKCgmBLiRQGI8Bs/TSP1NDi1CE64xtWEnOJ6GpPKBi2ucb1+xoRbSciMJBAUkaQ0rbRvcDIijACrA6UsiPQ/lLmgY9kD6ch0hBQRpAGSd4eYTECDM621BC2fLLRV4loPhHtJqKWPoHBTL5n+a8mohOsd3l81K3E7Bo1auQNgEYoAQLTuyYZQetzSpBBFUzyhQuZB/21Clas9FVSRlA8xmEwAmgaxfYQZvXY5nmGiPrKKJ2De6yrzvpCT9hcGUEimq4Iiu8QoaTw4bAkI2hxVYrD9wAAGbhJREFUWihJVvlEcKaCy3hKeSMAVeNDF8TXilreFYogQhiMALN0mKvcQkTbiKg3ER2fGJ1ze2jgMhA7tG4NRdAhQsly8+IkI2h8fChJVvlEcBv7vSerfDW1gvFEIAxGYA/euT6fSERYCYCgp2gyEd3mvovzhOewuL98CHJ1RRCTTrZ3V5IR4KxAKTsCz3+fGXaLlRSBCBAIgxGcSURD3NXAViJ6l4jgl4kuds8UcAMZW0BYEYCaEBF0F4EgYjrAFR+FqGm2NEkZQQQ9KChLOSxWRhCEUKp/i+8xD6+V6qdvikCZEAiDEUDFxANEBMke/N3vioO643n5HGUEZeo1uWSjjCAXlJJhmp7MPLJu8l2fFIEyIhAGI/DTK5SL1FDoHEIZQRl7TrasmpyQ3B7KFla/M+MsZXQjRUIRiASBMBgBRD9ruTd/v09EzxLRc0T0bfcv9AE/KEFlBJH0If9MIRcvq4JDB/3DqK9B4MgRg9XYZoqIIhAJAmEwAtghwN8a90/exS9o3A7dXxlBJH3IP9PXb0sygi8/9Q+jvgaBw4cMVuOfV0QUgUgQKIYRXEVEp1ij+YOuQZoO5V4JSBmUEUTSh/wzXdA/yQg+XeMfRn0NAlDUh9XTpDaKiCIQCQLFMAJcIMP2D+gnRPQJEd1FRE2JCJfMyk7KCCLpQ8GZLuhnBriN84LD6BfmfV8YnKa0UzQUgUgQKIYR2AfCnYiokTXyQ3VE2UkZQSR9KDjTtZPNALd6QnAY/WLMeWJFMK2ToqEIRIJAMYwA8v8QFwV96K4K3FfnboA8l81VRhBJHwrOdNNCwwiWvBscRr8w795mcIKOJiVFIAIEimEEdYloqnuBDArnRDPoD1z/sjEAyUgZQQQ9KFOWO9abAW5Or0yh9NvnmwxOs15TLBSBSBAohhFg/IUNgd8Q0TdlMCaic4jocuu9bI/KCCLpQ8GZ7t1pBripHYLD6BfmHRtchtlT0VAEIkGgWEZQtkE+l4yUEUTSh4IzhXx842/rRalghMwXSFXhjGDem9lC6ndFoCQIKCMoCayaaAKBNueqeuUEGAEP21cZRjC/b0AA9VYESouAMoLS4qupd76Wufc9ikMmBLYuN4xg4YBMofSbIlAyBJQRlAxaTdhBoNdvmLv+TMHIhMCWpYYRLHo7Uyj9pgiUDAFlBCWDVhN2EID5xRcuUDAyIaBitpnQ0W9lQEAZQRlArtZZjKzH3OREZhwcK/kjgJvXOCxeNtT/u/oqAiVGQBlBiQGu9slPaW8GOYiSKvkj8PFsg9GHw/2/q68iUGIElBGUGOBqn/z8PmaQg2SMkj8CG2YajFaM8v+uvopAiRFQRlBigKt98ivHmEFu3bRqD0UgAOs/MBgBKyVFIAIElBFEAHq1ynLTIjPILR5UraqdV2XXTjEYrR6fVzQNrAiEhYAygrCQ1HT8EYBRGtWs6Y+N+K6ZaDBaM0l81FUEyoqAMoKywl0NM4O0EAyzj6hTDSufY5VXjTOMYN3UHCNoMEUgXASUEYSLp6bmh0D7y5j7P+j3Rf2AwMrRhhGsn654KAKRIKCMIBLYq1mmPW5l7nZTNat0HtVdPtIwgo9m5RFJgyoC4SEQFSM4jYjGE9FSIlpCRE/6aBc9hoiGEBEsoSHMQz5hUrxU+2h4HSPUlN5+VG8XZwL0w2GGEXw8J1Mo/aYIlAyBqBjBqZbNgv8mohVEdH7KqE5Uh4haun4nEtFnRPT/PGFSXpURlKyfFJfwmMZGHfXhQ8WlU1VjL33PMIJPFlTVGmq9Yo5AVIwgZQB3rZzd5PGsTUQvu5bPziCiVUT0FU+YlFdlBDHtbTNfNQMdLHEppSOweLDBZ/Pi9G/qowiUAYE4MILTiWgDER2dMqoTYaWA7aNNRLSbiG71fJfXR91KzK5Ro0YZINMs8kYgsfUxO++o1SLCooGGEWxZVi2qq5WMHwJRM4JvEdEcIrpTRnXLvZuIXnRXBLCDvNaHWVjBiXRFEL8O5pTok/lmoFMj9v4NtKC/wWfbCv/v6qsIlBiBKBnB14loJBE9nTKaJ1/eJ6Lrk680joh+ZL2nPSojKHFvKTT5xKWyjoWmULXjqT6mqt2+laB2UTGCo4ioFxG1SxvNkx6diaiR+3oyEW0kohOSn9OflBHEtMfhUlnz7zK//++YFjDiYs3tbVYEn62NuCCafXVFICpGcB0RMREtJKL57t8tRPSY+4dR/jtENIqIFhHRYiK6P33oT/VRRhDjbtzpGuY3fxfjAkZYtDk9DSPYsSHCQmjW1RmBqBhB6gge0psyghh35bfuZe5UM8YFjLBos7obRrBrY4SF0KyrMwLKCKpz65ez7sOeZW52qloq88M8IV672e+r+ikCJUdAGUHJIdYMHAQ+eNnMer/YqoB4EZje1WCze5v3i74rAmVBQBlBWWDWTHj5CDPYwQiLUioC0zoZbCBdpaQIRICAMoIIQK+WWcJUJewSQEJGKRWBqR0MNnt3pfrrmyJQJgSUEZQJ6GqfzaEDzI2OY4beIaVUBCa/aBjB/t2p/vqmCJQJAWUEZQJas2Hm9pcy93tAofAiMKmNYQQH9nq/6LsiUBYElBGUBWbNxEGg993ML1+rYHgRmNDKMAKsmpQUgQgQUEYQAejVNsuR9ZibnMB8cH+1hcC34uOfM4zg8GHfz+qpCJQaAWUEpUZY008iIFo2N85L+ukT89hmhhEoFopARAgoI4gI+GqZ7aerzYA3u0e1rH5gpXGAjoN0JUUgIgSUEUQEfLXMFsrncLsYt4yVkgiMamC2zJI++qQIlBUBZQRlhVsz464/Ze55uwJhIzCyLnPTk20ffVYEyoqAMoKywq2ZMQzZtzlXgbARGF6bufl3bB99VgTKioAygrLCrZnx5BfMOcGeHQqGIAA7DS1Okzd1FYGyI6CMoOyQV/MMPxxuGMH66dUcCKv6Q59mfv50y0MfFYHyIqCMoLx4a26wwgWdQyo5lOwL7z3J3Oqs5Ls+KQJlRkAZQZkBr/bZ4dJUs1OYh1VUeygSALz7f8ytz0m86oMiUG4ElBGUG3HNj7nrz5h73KpICAKDH2due568qasIlB2BKs8IDhw4wGvWrOGlS5fqXwAGwAc4lY1G1GFuciLz/i/LlmWsMxr0V+YXLox1EbVwVRuBKs8IMMht27aNj+Ayk1IaAsAF+ACnstHK0eacAK4S88A/M7e7WJFQBCJDoMozAqwElAlk7l/ABziVjbASwIoA8vNKzAMeYm5/mSKhCESGQLVgBJGhW4kyLisjAC64Xdzx6kqEUAmL2u+PzC9dWcIMNGlFIDMCUTGC04hoPBEtJaIlRPQk+dPPiGi+G2aif5Ck7xVXXJFW27IPcGklqBweZcdpSjuzPbRrY+UAqJSl7PsHZYqlxFfTzopAVIzgVCK63B3C/5uIVhDR+ckh3Xk61mUUNVz/kzzf017jyAi2b9/Ol1xyifN38skn83e+853EOxE5z+effz5ffPHF3KZNGz7s6qSfMWNGIhy+DRo0KGtjFhOg7Ixg00LDCOa+UUyxq0bct+5jfvnHVaMuWotKiUBUjMA7iL9LRDd5PB8nomYev4yvcWQEdq9o2LAht27dOuH1zW9+M/G8ZcsWvvHGG7lBgwaO35dffskHDx50nj/55BM+8cQTE++JSCE+lJ0R4PAel6je/kuItaikSfW+h7nL9ZW08FrsqoBAHBjB6US0gYiO9ozy7YioExFNIKI5RPRHz3d5fdStxOwaNWqktYk9wDV6bzH/tsu0UP+QZq6UiREgjdWrV/O3v/3ttMNtSPScdNJJVYsRoMKYCXe4PFf4qm64N+40dyuqbg21ZjFHIGpG8C13kL9TRnXL7UhE04nom0R0AhGtJKJzrO9pj9lWBHFnBOgrxxxzDG/evNnpNtOnT2dsG2HlUOW2hlBDsdW77/OY/0xKXLye/8v86o0lzkSTVwSCEYiSEXydiEYS0dNpI7rxqEVEja1vrxHRPdZ72mM2RhAMQ3m+ZFsRoBQ2I5BSYVVz1VVX8d69e8UrdNdeOYWeeFCCHw4z5wQbZgSFqB7+r9/G3O2X1aOuWstYIhAVIziKiHoREbZ/gug8IhpLRF8jom8Q0WIiujAoMPwrOyMI2hpCz7nhhht41qxZJetEkTCCHesNI5jZrWT1il3CB/cxfzI/tVjdb2HufnOqn74pAmVEICpGcB0kZohooSseChHRW4joMfdPxvt/u5JDYAL/FM8gtzIzgq1bt/JNN92UOCzGuYAcFq9bt45PPfVU5wZwqfpGJIwAB8bPf58ZunaqC0G9BrSvbluRrPFrv1LdS0k09CkCBKJiBEFjeVH+lY0RfOUrX0kRH4VEkYiP9urVyzkfgOjpZZddxoMHDy5p94iEEaBGkKFvez5zdVEB0us3hhFgW0zo1V+o+U7BQt1IEFBGEAns8cs0MkaAbSHvDDl+8BRXIjC5Q65SP5jqRH3n9Eqm+coNzGAQSopARAgoI4gI+LhlGxkj2L7KDIwzXikdJKvHM6+dXLr0M6UMJtD/T8ytfsCMQ3HZGpqYvE/CXX7C3PvuTKnoN0WgpAgoIygpvJUn8cgYAQbKNj80g2Wp4MIMHH9R0ObFJm/k3/ps5uG1zDuskgl1vpb5zd/Jm7qKQNkRUEZQdsjjmWFkjABwDHjYDJKlOicQRlCq9DM16YJ+ZuCf2Mq4UC6H8rxxVzJWp5rMfX6ffNcnRaDMCCgjKDPgcc0uUkYwt7cZHDfOCwce7Mevn548gBZG8MWWcNLPJ5WxzZgbHsO8ZwdzkxNMPVEe+0Z1hyuY+z2QT6oaVhEIFQFlBKHCWXkTi5QR7N7O3OhY5pH1koN3MVA6g+/RzGMam1SEEaybWkyqhcUd+rQRkUVsrHykLKjvgb2mvs2/wzzs2cLS11iKQAgIKCMIAcSqkESkjAAA4kAVg2Sj45jHNi0cUmz/wBC8DLgtTks+z349Nd2dHzHv+yLVL+w31EuMzmDgR56LBpoyQQPrl5+a52kdw85Z01MEckZAGUHOUBUe0NYyaqfSs2dPvuCCC/jCCy/kSy+9NKGZ9JlnnuFzzz2XL7roIr7jjjt4x44diWgtWrTgs846i8855xweMWJEwv+hhx5yNJQiPZvq1avnpIP7CLiwtnGjv/7/yBnBZ+uMcZamJ5uBce0UuxrpzxhUD+5nPnyIefOS5EpCbit/0JkZNg+gukGYAg5qhVZPMEyn60+ZIdO/cIB8CdeFHqFXfp6aJsqLMs17k3nrh+a5VPmn5qxvioAvAsoIfGEJ19OPEQwbNsy5KCYD8759+/iVV4wI5ciRIxO3ip999lnGH2jJkiWO3QKExc3jM888kw8dOuR8mzhxIs+ZM8dhLHbpd+3alXht3749//Wvf0282w+RMwIpDMxYYhYPO75BtHQI8/Onm4toMvuf3sWEXjUulZGAWQx6zOzP46AWK4adH5v4wiDExb793iRevtkj/palZibvG8DjCdFQ+2AYn8G8YKweDGLNJFNeiLgqKQIRIVC9GMGwCmZHrwt0u4T0hzSzkB8juP7663ns2LFZYrKjdfT3vzcSJVgN4E/ol7/8JU+bNk1eee3atWmMIPGR2Yn72GOP2V6J59gwApRoyFPMTU9ixtmBl2C4B4No4+OZO11jpG1wGCuD/Py+ZmDF/QSbZvcw/tiWeffvhjFsW8mM+wuQ6R9V33zP1p5D/mnCNf+u2c569/+Yty63c0p9fvEif6aGFQsYkJxnYJWgpAhEhIAygmIZQraBg9lRI+1t3+OOO4537tzp9U57v+222/iNN4wVryeeeCLxjIAPP/wwDxiQ3NIIYgR16tTh733vew6TgE4jP4oVIxDZ+8kvpBd13TQzgGLAF5r5qvFDPDGB6VVtDQbS/lITDgPwe/+Q2EkXgzwOcVeONvv4nxt14IkA0A8EpgOZ/zbnJtPCGQBWHn7U4nvM7/87/QskmJAWVjYozxf+7ZIeUX0UgfARqF6MIHz8ckrRb0WQCyNo1qyZc0ZwxJV/L5QRSCGxmhALaOInbqwYAQqF7RScF+zYIEU0LmbzzU5JPeTFIArRTCivG/AQc7NTk2cGdmwczo5pYvbmccbgpd3bkgMzBmfM+kUnEML3vN2sVDCI7/nM7O+vGGUGclgZg1QQziRwixkrDfk2rrk3J/Pe49YkM8F2kZIiEBECygjKALwfI7juuusybg316NGDa9asyTBZKVTs1tD69esDt45ixwjAAJqcyDzwEam+2ZcHc3jniaSfPGHWjcEbf9DnUyjhkLrjj8x2Ebae2p7HfGAPM7aAkPa45NZcIotJbcw3SDxJGWw3SCIIKw8Jl0hMHxSB8iOgjKAMmPsxgvfff58vv/xy3rRpk1OC/fv386uvvuo8Dx8+nM877zz2buMsXrw45bD4jDPOSBwWI6Lf1tCKFUl1xx06dOC77rJutFp1jx0jQNlk/xzWuzC4D69tBk5sAXkJg/X0rmZLB89hkBzkymCNOwFBBKkn/K0YbVYzCCvxbAVz3vjvP5PK7Lzf9V0RKAMCygjKAPJRRx3F3/3udxN/bdu2dXLt3r27M0OHOUqIfYo/xEOxpw+RT/zZkj7YLoK0EMRHIXkkdO+99/Ipp5zCX/va15x8unUzxl7uvPNOJ22IouK84eOPP5YoKW4sGcGhg+aSGfbgZVB9696Ucpf8ZUF/5pZnmrsA+d5MhlZRlHvxoJIXUzNQBIpBQBlBMehVobixZAQ2vtheweFxWLN9O+1SPeOyGg6vs4mklip/TVcRyBEBZQQ5AlXVg8WeEVT1BtD6KQIRIqCMIELw45S1MoI4tYaWRREoLwLVghGI+GV5oa08uQEfZQSVp720pIpA2AhUeUYAVQzbtm1jZQb+XQe4AB/gpKQIKALVE4EqzwgOHDjgDHKY8eqfPwZgAsBJSRFQBKonAlWeEVTPZtVaKwKKgCKQOwLKCHLHSkMqAoqAIlAlEVBGUCWbVSulCCgCikDuCCgjyB0rDakIKAKKQJVEoEoxAiLa5lZodgHuugLiFJJPHOJoXYni0A5hlkHbVNu0mP6EsVOpqnHELC2KDlNdqLrUtbrUE/22utS1utQzVmNRdQJd6xqrrhdKYbRNQ4ExVolUpzaNDfDVCXSta2y6XWgF0TYNDcrYJFSd2jQ2oD8am5KUviBa19JjXO4ctE3LjXjp86tObVp6NDUHRUARUAQUAUVAEVAEFAFFQBFQBBQBRUARUAQUAUUgGIFfE9FyIlpFRLWCg1XKL5AvX0RE8y2xu28T0WgiWum6x1XKmhF1J6KtRLTYKn9Q3Y4iog5uGy8kosutOJXh0a+ujYhoo9u2aN9brIrUduuKfv0ryz/uj6cR0XgiWkpES4joSbfAVa1dg+pZFds07n3OKd9XiWg1EZ1JRP+PiBYQ0fmVouS5FRKM4ARP0FYWwwPja+n5Xllef+IO6DYjCKobBsnhRASGUJOIZlSWSrrl9KsrBo1nfOqB/ot+/B9EdIbbv9HPKwOdajHp/yaiFe7vsaq1a1A9q2KbVoZ+R9cQ0UirpJhJ4a+qkB8jwCwRHREEF++VlU73rAiC6taViO6zKmmHs7xj/eita9Cg4e3D6N/o55WR3iWim9w+6tdnq0K7ol2kntWhTWPZD+8mom5WyR4goo7We2V/XEtEc4loDhGJONpOq1KYIdvv1qdK8egdHO262HUbSkTXWTUaS0RXWu+V4dFbVwwaYPTY6sLWkWzxof/eb1XoNSJCP69shPpuIKKjPX20Krar1LOqt2ls+2BVZwTfdZE/yd0uwBaDPVji847Ytk72gnkHx6C6VUVGcDIRYcvnK0TU3GUGQKwqMIJvuZOXO90uUFXb1VvPqtym2X/NEYao6ltDNrSy7LS3RXRryEYo3s9epmeX1v5W2beGvu5u1z5tVTCoz1bmrSG/elpVpqrUpna9Yvn8NSJa4x6qyWHxBbEsaf6F+iYR4cANhOdpRAQJqdaew2IcxFVWsn8sqENQ3W71HBbPrIQV9tZV9sxRlaeIqK9bJ/Rf+7AY/buyHBZj26cXEbXztE9Va9egelbFNvU0ZXxfIVEC6QRID9WNbzHzLhkkoTAg4A+ieFK344kIe+QQHx1DRBDNq4zUh4g2EdFBIvqYiB4hoqC64YfXyW1jiNNWtvMBv7q+4YoG44zgPUsAAG2JtkZ/xkz65krUuDjHYffcAyKxIhZb1do1qJ5VsU0rUffToioCioAioAgoAoqAIqAIKAKKgCKgCCgCioAioAgoAoqAIqAIKAKKgCKgCCgCioAioAgoAoqAIqAIKAKKgCKgCCgCmRCAOKOIN262tIDuJqKXM0XUb4qAIqAIKAJVDwG5sV31aqY1UgQUAUVAEcgJAZsR/IyIoNcIBP+eRDSZiNYTEfTm4BY3LrSNICKoGABdQUQTXd060BRq3y51g6ijCCgCioAiEGcEMjGCKe6AfwkR7bFu+Q4mojvcb1D9caJbwd9ZyuPiXGctmyKgCCgCioCFQCZGIGo9oCF0v2sYB1GbENE/iehCIvrcOm/AamGUlbY+KgKKgCKgCFQCBDIxAtuCGA6ShSTORUT0gXiqqwgoAoqAIlA5EZBBHaX3nhFkYwTQeAtb2WJBDOcGVUX7beVsTS21IqAIKAIFIFAMI0B2lxLRJEtL7F8KKINGUQQUAUVAEVAEFAFFQBFQBBQBRUARUAQUAUVAEVAEFAFFQBFQBBQBRUARUAQUAUVAEVAEFAFFQBFQBBQBRUARUAQUAUVAEVAEFAFFQBFQBBQBRUARUASKQuD/Az9naI+6S7CJAAAAAElFTkSuQmCC;" vertex="1" parent="1">
          <mxGeometry x="2066" y="-2321.5" width="683.6" height="464" as="geometry" />
        </mxCell>
        <mxCell id="L8zPbytYUb-S9XU9Fr7O-7" value="&lt;font style=&quot;font-size: 30px&quot;&gt;&lt;b&gt;A&lt;/b&gt;&lt;/font&gt;" style="text;html=1;strokeColor=none;fillColor=none;align=center;verticalAlign=middle;whiteSpace=wrap;rounded=0;" vertex="1" parent="1">
          <mxGeometry x="2096" y="-2338" width="40" height="20" as="geometry" />
        </mxCell>
        <mxCell id="L8zPbytYUb-S9XU9Fr7O-9" value="&lt;font style=&quot;font-size: 30px&quot;&gt;&lt;b&gt;B&lt;/b&gt;&lt;/font&gt;" style="text;html=1;strokeColor=none;fillColor=none;align=center;verticalAlign=middle;whiteSpace=wrap;rounded=0;" vertex="1" parent="1">
          <mxGeometry x="2799" y="-2338" width="40" height="20" as="geometry" />
        </mxCell>
        <mxCell id="L8zPbytYUb-S9XU9Fr7O-10" value="&lt;font style=&quot;font-size: 30px&quot;&gt;&lt;b&gt;C&lt;/b&gt;&lt;/font&gt;" style="text;html=1;strokeColor=none;fillColor=none;align=center;verticalAlign=middle;whiteSpace=wrap;rounded=0;" vertex="1" parent="1">
          <mxGeometry x="2096" y="-1877.5" width="40" height="20" as="geometry" />
        </mxCell>
        <mxCell id="L8zPbytYUb-S9XU9Fr7O-11" value="&lt;font style=&quot;font-size: 30px&quot;&gt;&lt;b&gt;D&lt;/b&gt;&lt;/font&gt;" style="text;html=1;strokeColor=none;fillColor=none;align=center;verticalAlign=middle;whiteSpace=wrap;rounded=0;" vertex="1" parent="1">
          <mxGeometry x="2799" y="-1877.5" width="40" height="20" as="geometry" />
        </mxCell>
      </root>
    </mxGraphModel>
  </diagram>
</mxfile>
